<?xml version="1.0" encoding="UTF-8" standalone="no"?>
<!-- Created with Inkscape (http://www.inkscape.org/) -->

<svg
   xmlns:dc="http://purl.org/dc/elements/1.1/"
   xmlns:cc="http://creativecommons.org/ns#"
   xmlns:rdf="http://www.w3.org/1999/02/22-rdf-syntax-ns#"
   xmlns:svg="http://www.w3.org/2000/svg"
   xmlns="http://www.w3.org/2000/svg"
   xmlns:xlink="http://www.w3.org/1999/xlink"
   xmlns:sodipodi="http://sodipodi.sourceforge.net/DTD/sodipodi-0.dtd"
   xmlns:inkscape="http://www.inkscape.org/namespaces/inkscape"
   id="svg4190"
   version="1.1"
   inkscape:version="0.91 r13725"
   width="5082"
   height="2902.5"
   viewBox="0 0 5082 2902.5"
   sodipodi:docname="buildingcartoon.svg">
  <metadata
     id="metadata4196">
    <rdf:RDF>
      <cc:Work
         rdf:about="">
        <dc:format>image/svg+xml</dc:format>
        <dc:type
           rdf:resource="http://purl.org/dc/dcmitype/StillImage" />
        <dc:title />
      </cc:Work>
    </rdf:RDF>
  </metadata>
  <defs
     id="defs4194" />
  <sodipodi:namedview
     pagecolor="#ffffff"
     bordercolor="#666666"
     borderopacity="1"
     objecttolerance="10"
     gridtolerance="10"
     guidetolerance="10"
     inkscape:pageopacity="0"
     inkscape:pageshadow="2"
     inkscape:window-width="1440"
     inkscape:window-height="856"
     id="namedview4192"
     showgrid="false"
     inkscape:object-paths="true"
     inkscape:object-nodes="true"
     showguides="true"
     inkscape:zoom="0.125"
     inkscape:cx="4204.333"
     inkscape:cy="2596.0308"
     inkscape:window-x="0"
     inkscape:window-y="0"
     inkscape:window-maximized="0"
     inkscape:current-layer="g7530" />
  <g
     inkscape:groupmode="layer"
     id="layer1"
     inkscape:label="cartoon layer"
     style="display:inline;opacity:1" />
  <g
     id="g7530">
    <path
       sodipodi:nodetypes="cccccccccccccccccccc"
       inkscape:connector-curvature="0"
       id="path4266"
       d="m 584,1842.5 24,-1128 2353.6569,5.05025 L 2968,1848.5 l -1338,-6 11.9019,-702.8172 10.6066,-10.6066 39.598,0.7071 4.9498,-19.0919 16.9705,-16.2634 -4.9497,-17.6777 L 1365,908.5 l -209,2 -370,171 13,13 13.46569,25.7374 57.6292,23.3345 L 857,1858.5 l -271.51559,8.7957 z"
       style="display:inline;opacity:1;fill:#dda06a;fill-opacity:1;fill-rule:evenodd;stroke:none;stroke-width:1px;stroke-linecap:butt;stroke-linejoin:miter;stroke-opacity:1" />
    <path
       sodipodi:nodetypes="ccccc"
       inkscape:connector-curvature="0"
       id="path4269"
       d="m 608,714.5 1.48744,-112.78249 718.98736,-8.00431 6.3194,122.34628 z"
       style="display:inline;opacity:1;fill:#859f67;fill-opacity:1;fill-rule:evenodd;stroke:none;stroke-width:1px;stroke-linecap:butt;stroke-linejoin:miter;stroke-opacity:1" />
    <path
       sodipodi:nodetypes="ccccc"
       inkscape:connector-curvature="0"
       id="path4272"
       d="m 1357.645,591.67504 -0.7287,124.43191 872.0725,1.87121 -0.188,-118.52495 z"
       style="display:inline;opacity:1;fill:#a1b175;fill-opacity:1;fill-rule:evenodd;stroke:none;stroke-width:1px;stroke-linecap:butt;stroke-linejoin:miter;stroke-opacity:1" />
    <path
       inkscape:connector-curvature="0"
       id="path4274"
       d="m 2253,600.5 -0.9968,117.52754 709.6537,1.52271 L 2961,607 Z"
       style="display:inline;opacity:1;fill:#8fa366;fill-opacity:1;fill-rule:evenodd;stroke:none;stroke-width:1px;stroke-linecap:butt;stroke-linejoin:miter;stroke-opacity:1" />
    <path
       inkscape:connector-curvature="0"
       id="path4287"
       d="m 1479.2674,560.56234 326.6833,-236.17366 321.7336,247.48737 z"
       style="display:inline;opacity:1;fill:#9b6d59;fill-opacity:1;fill-rule:evenodd;stroke:none;stroke-width:1px;stroke-linecap:butt;stroke-linejoin:miter;stroke-opacity:1" />
    <path
       inkscape:connector-curvature="0"
       id="path4290"
       d="M 585.48441,1867.2957 609.48744,601.71751 595.5,601.5 594.5,710 570,710 546.59354,1867.2957 Z"
       style="display:inline;opacity:1;fill:#c9b696;fill-opacity:1;fill-rule:evenodd;stroke:none;stroke-width:1px;stroke-linecap:butt;stroke-linejoin:miter;stroke-opacity:1" />
    <path
       inkscape:connector-curvature="0"
       id="path4293"
       d="m 2968,1848.5 36.4967,1.118 L 2996,718.5 l -34.3431,1.05025 z"
       style="display:inline;opacity:1;fill:#d5ac72;fill-opacity:1;fill-rule:evenodd;stroke:none;stroke-width:1px;stroke-linecap:butt;stroke-linejoin:miter;stroke-opacity:1" />
    <path
       inkscape:connector-curvature="0"
       id="path4296"
       d="m 570,710 24.5,0 1,-108.5 732.9748,-7.7868 6.3194,122.34628 22.1221,0.0475 0.7287,-124.43191 871.1558,7.77817 0.188,118.52495 23.0144,0.0494 L 2253,600.5 2961,607 2961.6569,719.55025 2996,718.5 l 1.4256,-129.29984 6.7176,-6.71751 8.8388,-0.70711 -885.2977,-9.89949 -648.4169,-11.31371 -934.79518,2.82843 L 546,570.25 l 10,5 3,4.75 4.5,36.75 3.25,17.75 -2.75,13.25 7,23.75 -4,10.5 2.5,13 2,7 z"
       style="display:inline;opacity:1;fill:#2a2e38;fill-opacity:1;fill-rule:evenodd;stroke:none;stroke-width:1px;stroke-linecap:butt;stroke-linejoin:miter;stroke-opacity:1" />
    <path
       inkscape:connector-curvature="0"
       id="path4299"
       d="m 544.47222,563.39077 -12.02081,-30.05204 -28.28427,-37.83022 812.46566,-8.48528 476.59,-334.4615 443.3559,344.361 797.6165,10.6066 -21.2132,74.24621 -788.9815,-8.82247 L 1805,253.25 1368.9997,560.89598 Z"
       style="display:inline;opacity:1;fill:#a98457;fill-opacity:1;fill-rule:evenodd;stroke:none;stroke-width:1px;stroke-linecap:butt;stroke-linejoin:miter;stroke-opacity:1" />
    <path
       inkscape:connector-curvature="0"
       id="path4302"
       d="M 1368.9997,560.89598 1805,253.25 2224.0005,572.95307 2189.752,572.5701 1806.1275,278.42673 1406.7493,560.78176 Z"
       style="display:inline;opacity:1;fill:#1e2b34;fill-opacity:1;fill-rule:evenodd;stroke:none;stroke-width:1px;stroke-linecap:butt;stroke-linejoin:miter;stroke-opacity:1" />
    <path
       inkscape:connector-curvature="0"
       id="path4305"
       d="M 1406.7493,560.78176 1806.1275,278.42673 2189.752,572.5701 2127.6843,571.87605 1805.9507,324.38868 1479.2674,560.56234 Z"
       style="display:inline;opacity:1;fill:#e7b461;fill-opacity:1;fill-rule:evenodd;stroke:none;stroke-width:1px;stroke-linecap:butt;stroke-linejoin:miter;stroke-opacity:1" />
    <path
       sodipodi:nodetypes="ccccccc"
       inkscape:connector-curvature="0"
       id="path4308"
       d="M 3017.1094,1388.0927 3016,1417 l -14.7381,1.983 3.2348,430.635 1394.4146,17.6777 L 4392.5,1392 Z"
       style="display:inline;opacity:1;fill:#8d965e;fill-opacity:1;fill-rule:evenodd;stroke:none;stroke-width:1px;stroke-linecap:butt;stroke-linejoin:miter;stroke-opacity:1" />
    <path
       inkscape:connector-curvature="0"
       id="path4311"
       d="M 3001.2619,1418.983 3016,1417 l 1.9317,-50.3359 2.8285,-6.364 1391.5861,7.7782 0,50.2046 17.6777,2.1213 2.8284,-43.8406 9.8995,-11.3137 2.8284,-10.6066 -3.5355,-9.1924 4.9497,-14.8493 -1446.439,-5.6538 z"
       style="display:inline;opacity:1;fill:#2a2e38;fill-opacity:1;fill-rule:evenodd;stroke:none;stroke-width:1px;stroke-linecap:butt;stroke-linejoin:miter;stroke-opacity:1" />
    <path
       sodipodi:nodetypes="cccccccc"
       inkscape:connector-curvature="0"
       id="path4316"
       d="m 3000.5555,1324.9478 1446.439,5.6538 15.8492,0.6421 7.0503,-16.3995 25.1213,-10.8284 1.5355,-27 -1496.3661,-1.4272 z"
       style="display:inline;opacity:1;fill:#a98457;fill-opacity:1;fill-rule:evenodd;stroke:none;stroke-width:1px;stroke-linecap:butt;stroke-linejoin:miter;stroke-opacity:1" />
    <path
       inkscape:connector-curvature="0"
       id="path4314"
       d="m 3017.1094,1388.0927 0.8223,-21.4286 2.8285,-6.364 1391.5861,7.7782 0,50.2046 17.6777,2.1213 6.0104,447.9521 -37.1231,-1.0606 L 4392.5,1392 Z"
       style="display:inline;opacity:1;fill:#d5ac72;fill-opacity:1;fill-rule:evenodd;stroke:none;stroke-width:1px;stroke-linecap:butt;stroke-linejoin:miter;stroke-opacity:1" />
    <path
       inkscape:connector-curvature="0"
       id="path4320"
       d="m 3000.1847,1275.5886 228.4652,0.2179 2.8281,-150.6194 -232.423,0.01 z"
       style="display:inline;opacity:1;fill:#586250;fill-opacity:1;fill-rule:evenodd;stroke:none;stroke-width:1px;stroke-linecap:butt;stroke-linejoin:miter;stroke-opacity:1" />
    <path
       inkscape:connector-curvature="0"
       id="path4322"
       d="m 2999.055,1125.1971 232.423,-0.01 -2.8281,150.6194 24.0413,0.023 3.5355,-158.4205 -257.2302,-0.01 z"
       style="display:inline;opacity:1;fill:#dab47f;fill-opacity:1;fill-rule:evenodd;stroke:none;stroke-width:1px;stroke-linecap:butt;stroke-linejoin:miter;stroke-opacity:1" />
    <path
       inkscape:connector-curvature="0"
       id="path4335"
       d="M 626.49661,755.72381 2940.15,768.45173 Z"
       style="display:inline;opacity:1;fill:none;fill-rule:evenodd;stroke:#000000;stroke-width:0.5;stroke-linecap:butt;stroke-linejoin:miter;stroke-miterlimit:4;stroke-dasharray:none;stroke-opacity:1" />
    <path
       style="display:inline;opacity:1;fill:none;fill-rule:evenodd;stroke:#000000;stroke-width:0.5;stroke-linecap:butt;stroke-linejoin:miter;stroke-miterlimit:4;stroke-dasharray:none;stroke-opacity:1"
       d="M 626.49661,791.72381 2940.15,804.45173 Z"
       id="path4337"
       inkscape:connector-curvature="0" />
    <path
       inkscape:connector-curvature="0"
       id="path4339"
       d="M 626.49661,825.72381 2940.15,838.45173 Z"
       style="display:inline;opacity:1;fill:none;fill-rule:evenodd;stroke:#000000;stroke-width:0.5;stroke-linecap:butt;stroke-linejoin:miter;stroke-miterlimit:4;stroke-dasharray:none;stroke-opacity:1" />
    <use
       height="100%"
       width="100%"
       transform="translate(0,30)"
       id="use4341"
       xlink:href="#path4339"
       y="0"
       x="0"
       style="display:inline;opacity:1" />
    <use
       height="100%"
       width="100%"
       transform="translate(0,32)"
       id="use4343"
       xlink:href="#use4341"
       y="0"
       x="0"
       style="display:inline;opacity:1" />
    <use
       height="100%"
       width="100%"
       transform="translate(0,164)"
       id="use4345"
       xlink:href="#path4335"
       y="0"
       x="0"
       style="display:inline;opacity:1" />
    <use
       height="100%"
       width="100%"
       transform="translate(0,164)"
       id="use4347"
       xlink:href="#path4337"
       y="0"
       x="0"
       style="display:inline;opacity:1" />
    <use
       height="100%"
       width="100%"
       transform="translate(0,164)"
       id="use4349"
       xlink:href="#path4339"
       y="0"
       x="0"
       style="display:inline;opacity:1" />
    <use
       height="100%"
       width="100%"
       transform="translate(0,164)"
       id="use4351"
       xlink:href="#use4341"
       y="0"
       x="0"
       style="display:inline;opacity:1" />
    <use
       height="100%"
       width="100%"
       transform="translate(0,164)"
       id="use4353"
       xlink:href="#use4343"
       y="0"
       x="0"
       style="display:inline;opacity:1" />
    <use
       x="0"
       y="0"
       xlink:href="#path4335"
       id="use4355"
       transform="translate(0,328)"
       width="100%"
       height="100%"
       style="display:inline;opacity:1" />
    <path
       style="fill:#542a05;fill-rule:evenodd;stroke:none;stroke-width:1px;stroke-linecap:butt;stroke-linejoin:miter;stroke-opacity:1;fill-opacity:1"
       d="M 786,1081.5 594.0937,1368.096 585.48441,1867.2957 857,1858.5 l 13.09489,-714.9281 -57.6292,-23.3345 z"
       id="path4334"
       inkscape:connector-curvature="0" />
    <use
       x="0"
       y="0"
       xlink:href="#path4337"
       id="use4357"
       transform="translate(0,328)"
       width="100%"
       height="100%"
       style="display:inline;opacity:1" />
    <use
       x="0"
       y="0"
       xlink:href="#path4339"
       id="use4359"
       transform="translate(0,328)"
       width="100%"
       height="100%"
       style="display:inline;opacity:1" />
    <use
       x="0"
       y="0"
       xlink:href="#use4341"
       id="use4361"
       transform="translate(0,328)"
       width="100%"
       height="100%"
       style="display:inline;opacity:1" />
    <use
       x="0"
       y="0"
       xlink:href="#use4343"
       id="use4363"
       transform="translate(0,328)"
       width="100%"
       height="100%"
       style="display:inline;opacity:1" />
    <use
       height="100%"
       width="100%"
       transform="translate(0,492)"
       id="use4365"
       xlink:href="#path4335"
       y="0"
       x="0"
       style="display:inline;opacity:1" />
    <use
       height="100%"
       width="100%"
       transform="translate(0,492)"
       id="use4367"
       xlink:href="#path4337"
       y="0"
       x="0"
       style="display:inline;opacity:1" />
    <use
       height="100%"
       width="100%"
       transform="translate(0,492)"
       id="use4369"
       xlink:href="#path4339"
       y="0"
       x="0"
       style="display:inline;opacity:1" />
    <use
       height="100%"
       width="100%"
       transform="translate(0,492)"
       id="use4371"
       xlink:href="#use4341"
       y="0"
       x="0"
       style="display:inline;opacity:1" />
    <use
       height="100%"
       width="100%"
       transform="translate(0,492)"
       id="use4373"
       xlink:href="#use4343"
       y="0"
       x="0"
       style="display:inline;opacity:1" />
    <use
       x="0"
       y="0"
       xlink:href="#path4335"
       id="use4375"
       transform="translate(0,656)"
       width="100%"
       height="100%"
       style="display:inline;opacity:1" />
    <use
       x="0"
       y="0"
       xlink:href="#path4337"
       id="use4377"
       transform="translate(0,656)"
       width="100%"
       height="100%"
       style="display:inline;opacity:1" />
    <use
       x="0"
       y="0"
       xlink:href="#path4339"
       id="use4379"
       transform="translate(0,656)"
       width="100%"
       height="100%"
       style="display:inline;opacity:1" />
    <use
       x="0"
       y="0"
       xlink:href="#use4341"
       id="use4381"
       transform="translate(0,656)"
       width="100%"
       height="100%"
       style="display:inline;opacity:1" />
    <use
       x="0"
       y="0"
       xlink:href="#use4343"
       id="use4383"
       transform="translate(0,656)"
       width="100%"
       height="100%"
       style="display:inline;opacity:1" />
    <use
       height="100%"
       width="100%"
       transform="translate(0,822)"
       id="use4385"
       xlink:href="#path4335"
       y="0"
       x="0"
       style="display:inline;opacity:1" />
    <use
       height="100%"
       width="100%"
       transform="translate(0,822)"
       id="use4387"
       xlink:href="#path4337"
       y="0"
       x="0"
       style="display:inline;opacity:1" />
    <use
       height="100%"
       width="100%"
       transform="translate(0,822)"
       id="use4389"
       xlink:href="#path4339"
       y="0"
       x="0"
       style="display:inline;opacity:1" />
    <use
       height="100%"
       width="100%"
       transform="translate(0,822)"
       id="use4391"
       xlink:href="#use4341"
       y="0"
       x="0"
       style="display:inline;opacity:1" />
    <use
       height="100%"
       width="100%"
       transform="translate(0,822)"
       id="use4393"
       xlink:href="#use4343"
       y="0"
       x="0"
       style="display:inline;opacity:1" />
    <use
       x="0"
       y="0"
       xlink:href="#path4337"
       id="use4397"
       transform="translate(0,954.1)"
       width="100%"
       height="100%"
       style="display:inline;opacity:1" />
    <use
       x="0"
       y="0"
       xlink:href="#path4339"
       id="use4399"
       transform="translate(0,954.1)"
       width="100%"
       height="100%"
       style="display:inline;opacity:1" />
    <use
       x="0"
       y="0"
       xlink:href="#use4341"
       id="use4401"
       transform="translate(0,954.1)"
       width="100%"
       height="100%"
       style="display:inline;opacity:1" />
    <use
       x="0"
       y="0"
       xlink:href="#use4343"
       id="use4403"
       transform="translate(0,954.1)"
       width="100%"
       height="100%"
       style="display:inline;opacity:1" />
    <path
       inkscape:connector-curvature="0"
       id="path4278"
       d="m 2214,1284.5 -2,498 446,8 0,-496 z"
       style="display:inline;opacity:1;fill:#e4ba76;fill-opacity:1;fill-rule:evenodd;stroke:none;stroke-width:1px;stroke-linecap:butt;stroke-linejoin:miter;stroke-opacity:1" />
    <path
       inkscape:connector-curvature="0"
       id="path4281"
       d="m 2251.428,1319.995 -7.0711,420.0215 168.2914,4.2426 4.2427,-421.4356 z"
       style="display:inline;opacity:1;fill:#788382;fill-opacity:1;fill-rule:evenodd;stroke:none;stroke-width:1px;stroke-linecap:butt;stroke-linejoin:miter;stroke-opacity:1" />
    <path
       style="display:inline;opacity:1;fill:#788382;fill-opacity:1;fill-rule:evenodd;stroke:none;stroke-width:1px;stroke-linecap:butt;stroke-linejoin:miter;stroke-opacity:1"
       d="m 2456.489,1324.2376 -7.0711,420.0215 168.2914,4.2426 4.2427,-421.4356 z"
       id="path4283"
       inkscape:connector-curvature="0" />
    <path
       sodipodi:nodetypes="ccccccc"
       inkscape:connector-curvature="0"
       id="path4330"
       d="m 786,1081.5 177.5,-56 457.5,-8 288.0771,59.2503 L 1365,908.5 l -209,2 z"
       style="display:inline;opacity:1;fill:#6b3c2d;fill-opacity:1;fill-rule:evenodd;stroke:none;stroke-width:1px;stroke-linecap:butt;stroke-linejoin:miter;stroke-opacity:1" />
    <path
       inkscape:connector-curvature="0"
       id="path4333"
       d="M 963.5,1025.5 1145.0631,915.55463 786,1081.5 Z"
       style="display:inline;opacity:1;fill:#281e23;fill-opacity:1;fill-rule:evenodd;stroke:none;stroke-width:1px;stroke-linecap:butt;stroke-linejoin:miter;stroke-opacity:1" />
    <path
       inkscape:connector-curvature="0"
       id="path4405"
       d="m 786,1081.5 26.46569,38.7374 L 982,1071.5 l -18.5,-46 z"
       style="display:inline;opacity:1;fill:#3a3531;fill-opacity:1;fill-rule:evenodd;stroke:none;stroke-width:1px;stroke-linecap:butt;stroke-linejoin:miter;stroke-opacity:1" />
    <path
       inkscape:connector-curvature="0"
       id="path4407"
       d="m 963.5,1025.5 18.5,46 439,-2 0,-52 z"
       style="display:inline;opacity:1;fill:#d6af6c;fill-opacity:1;fill-rule:evenodd;stroke:none;stroke-width:1px;stroke-linecap:butt;stroke-linejoin:miter;stroke-opacity:1" />
    <path
       inkscape:connector-curvature="0"
       id="path4409"
       d="m 1421,1017.5 288.0771,59.2503 4.9497,17.6777 -8.2165,7.8741 -8.754,8.3893 -4.9498,19.0919 -39.598,-0.7071 L 1421,1069.5 Z"
       style="display:inline;opacity:1;fill:#fef895;fill-opacity:1;fill-rule:evenodd;stroke:none;stroke-width:1px;stroke-linecap:butt;stroke-linejoin:miter;stroke-opacity:1" />
    <path
       inkscape:connector-curvature="0"
       id="path4411"
       d="m 812.46569,1120.2374 57.6292,23.3345 L 1018,1094.5 l 389,-3.5 234.9019,48.6828 10.6066,-10.6066 L 1421,1069.5 l -439,2 z"
       style="display:inline;opacity:1;fill:#262124;fill-opacity:1;fill-rule:evenodd;stroke:none;stroke-width:1px;stroke-linecap:butt;stroke-linejoin:miter;stroke-opacity:1" />
    <path
       inkscape:connector-curvature="0"
       id="path4417"
       d="M 870.09489,1143.5719 857,1858.5 999.99861,1843.8785 1018,1094.5 Z"
       style="display:inline;opacity:1;fill:#4e4c47;fill-opacity:1;fill-rule:evenodd;stroke:none;stroke-width:1px;stroke-linecap:butt;stroke-linejoin:miter;stroke-opacity:1" />
    <path
       inkscape:connector-curvature="0"
       id="path4419"
       d="m 892.01521,1171.149 -2.47488,83.4386 106.06602,-27.2236 1.41421,-85.9134 z"
       style="display:inline;opacity:1;fill:#1f3642;fill-opacity:1;fill-rule:evenodd;stroke:none;stroke-width:1px;stroke-linecap:butt;stroke-linejoin:miter;stroke-opacity:1" />
    <path
       inkscape:connector-curvature="0"
       id="path4421"
       d="m 886.7119,1286.2307 -10.42982,448.6592 109.9551,-15.2028 11.13694,-462.0943 z"
       style="display:inline;opacity:1;fill:#1f3642;fill-opacity:1;fill-rule:evenodd;stroke:none;stroke-width:1px;stroke-linecap:butt;stroke-linejoin:miter;stroke-opacity:1" />
    <path
       inkscape:connector-curvature="0"
       id="path4423"
       d="m 877.45468,1856.4085 1.85103,-75.1939 104.98693,-16.0959 -2.54556,80.626 z"
       style="display:inline;opacity:1;fill:#1f3642;fill-opacity:1;fill-rule:evenodd;stroke:none;stroke-width:1px;stroke-linecap:butt;stroke-linejoin:miter;stroke-opacity:1" />
    <path
       inkscape:connector-curvature="0"
       id="path4428"
       d="m 898.02561,1301.6102 -3.53553,207.1823 89.44901,-17.3241 4.24264,-213.8998 z"
       style="display:inline;opacity:1;fill:#434c4e;fill-opacity:1;fill-rule:evenodd;stroke:none;stroke-width:1px;stroke-linecap:butt;stroke-linejoin:miter;stroke-opacity:1" />
    <path
       inkscape:connector-curvature="0"
       id="path4430"
       d="m 894.49008,1517.6314 -5.65686,199.4041 89.44901,-12.3744 4.24264,-204.0003 z"
       style="display:inline;opacity:1;fill:#434c4e;fill-opacity:1;fill-rule:evenodd;stroke:none;stroke-width:1px;stroke-linecap:butt;stroke-linejoin:miter;stroke-opacity:1" />
    <path
       inkscape:connector-curvature="0"
       id="path4434"
       d="m 1018,1094.5 389,-3.5 -11.5248,740.9403 0.2731,14.1153 -395.74969,-2.1771 z"
       style="display:inline;opacity:1;fill:#d8b271;fill-opacity:1;fill-rule:evenodd;stroke:none;stroke-width:1px;stroke-linecap:butt;stroke-linejoin:miter;stroke-opacity:1" />
    <path
       inkscape:connector-curvature="0"
       id="path4437"
       d="m 1053,1136.5 0,83 318,-5 -0.5,-81 z"
       style="display:inline;opacity:1;fill:#67755e;fill-opacity:1;fill-rule:evenodd;stroke:none;stroke-width:1px;stroke-linecap:butt;stroke-linejoin:miter;stroke-opacity:1" />
    <path
       inkscape:connector-curvature="0"
       id="path4439"
       d="m 1048.5,1253 -10,463.5 328.5,-7 7.5,-463 z"
       style="display:inline;opacity:1;fill:#67755e;fill-opacity:1;fill-rule:evenodd;stroke:none;stroke-width:1px;stroke-linecap:butt;stroke-linejoin:miter;stroke-opacity:1" />
    <path
       sodipodi:nodetypes="ccccc"
       inkscape:connector-curvature="0"
       id="path4441"
       d="m 1041.375,1761.875 c -0.4125,26.0024 -2.8748,56.2081 -2.8748,82.2153 l 322.1254,1.7721 L 1359,1757 Z"
       style="display:inline;opacity:1;fill:#67755e;fill-opacity:1;fill-rule:evenodd;stroke:none;stroke-width:1px;stroke-linecap:butt;stroke-linejoin:miter;stroke-opacity:1" />
    <path
       inkscape:connector-curvature="0"
       id="path4446"
       d="m 1067,1270.5 -7,215 291,-2 3,-214 z"
       style="display:inline;opacity:1;fill:#84826d;fill-opacity:1;fill-rule:evenodd;stroke:none;stroke-width:1px;stroke-linecap:butt;stroke-linejoin:miter;stroke-opacity:1" />
    <path
       inkscape:connector-curvature="0"
       id="path4448"
       d="m 1060,1493.5 -6,206.5 293.5,-1.5 3.5,-205.5 z"
       style="display:inline;opacity:1;fill:#84826d;fill-opacity:1;fill-rule:evenodd;stroke:none;stroke-width:1px;stroke-linecap:butt;stroke-linejoin:miter;stroke-opacity:1" />
    <path
       inkscape:connector-curvature="0"
       id="path4452"
       d="M 1395.7483,1846.0556 1630,1842.5 1641.9019,1139.6828 1407,1091 Z"
       style="display:inline;opacity:1;fill:#fefe9a;fill-opacity:1;fill-rule:evenodd;stroke:none;stroke-width:1px;stroke-linecap:butt;stroke-linejoin:miter;stroke-opacity:1" />
    <path
       inkscape:connector-curvature="0"
       id="path4455"
       d="m 1438,1138.5 0.5,79.5 166.5,27 -0.5,-76 z"
       style="display:inline;opacity:1;fill:#babf87;fill-opacity:1;fill-rule:evenodd;stroke:none;stroke-width:1px;stroke-linecap:butt;stroke-linejoin:miter;stroke-opacity:1" />
    <path
       inkscape:connector-curvature="0"
       id="path4457"
       d="m 1436,1251 -9.7656,460.3786 175.3625,10.9602 7.4246,-444.7702 z"
       style="display:inline;opacity:1;fill:#babf87;fill-opacity:1;fill-rule:evenodd;stroke:none;stroke-width:1px;stroke-linecap:butt;stroke-linejoin:miter;stroke-opacity:1" />
    <path
       sodipodi:nodetypes="ccccc"
       inkscape:connector-curvature="0"
       id="path4468"
       d="m 1428.3557,1757.6941 171.8269,9.1924 0.7239,76.0551 -173.9189,2.6398 z"
       style="display:inline;opacity:1;fill:#babf87;fill-opacity:1;fill-rule:evenodd;stroke:none;stroke-width:1px;stroke-linecap:butt;stroke-linejoin:miter;stroke-opacity:1" />
    <path
       inkscape:connector-curvature="0"
       id="path4477"
       d="m 453.96255,1876.1345 92.63099,-8.8388 266.40405,-7.3702 -1.23901,66.7671 22.62742,23.3346 -342.23968,5.6568 -9.19239,-28.2843 -5.65685,-16.2634 -11.31371,-13.435 -14.14214,-8.4853 z"
       style="display:inline;opacity:1;fill:#0c1820;fill-opacity:1;fill-rule:evenodd;stroke:none;stroke-width:1px;stroke-linecap:butt;stroke-linejoin:miter;stroke-opacity:1" />
    <path
       inkscape:connector-curvature="0"
       id="path4479"
       d="m 1000.2019,1942.947 -37.968,-37.5726 -12.09259,-56.398 -139.09767,11.0123 0.33994,66.8602 20.68158,23.2167 z"
       style="display:inline;opacity:1;fill:#101a21;fill-opacity:1;fill-rule:evenodd;stroke:none;stroke-width:1px;stroke-linecap:butt;stroke-linejoin:miter;stroke-opacity:1"
       sodipodi:nodetypes="ccccccc" />
    <path
       sodipodi:nodetypes="cccccccc"
       inkscape:connector-curvature="0"
       id="path4481"
       d="m 950.14131,1848.9764 49.8573,-5.0979 409.00619,2.2501 -3.5048,52.8714 -15.2678,42.5104 -392.50453,1.4457 -36.06245,-38.1838 z"
       style="display:inline;opacity:1;fill:#2f372a;fill-opacity:1;fill-rule:evenodd;stroke:none;stroke-width:1px;stroke-linecap:butt;stroke-linejoin:miter;stroke-opacity:1" />
    <path
       sodipodi:nodetypes="cccccccccccc"
       inkscape:connector-curvature="0"
       id="path4483"
       d="M 1409.0048,1846.1286 1630,1842.5 l 41.2469,0.185 1.0031,26.565 -12.75,39.75 -23,1 -3.0962,15.8596 L 1622,1931 l -0.5,12 -231.2678,-1.4896 L 1405.5,1899 Z"
       style="display:inline;opacity:1;fill:#889264;fill-opacity:1;fill-rule:evenodd;stroke:none;stroke-width:1px;stroke-linecap:butt;stroke-linejoin:miter;stroke-opacity:1" />
    <path
       inkscape:connector-curvature="0"
       id="path4485"
       d="M 1671.2469,1842.685 2968,1848.5 l 36.4967,1.118 1431.5377,18.7383 37.9656,22.1437 -18,41 -2796.5,-22.5 12.75,-39.75 z"
       style="display:inline;opacity:1;fill:#3e4332;fill-opacity:1;fill-rule:evenodd;stroke:none;stroke-width:1px;stroke-linecap:butt;stroke-linejoin:miter;stroke-opacity:1" />
    <path
       sodipodi:nodetypes="ccccccccccccc"
       inkscape:connector-curvature="0"
       id="path4487"
       d="m 544.9886,1954.8106 289.3974,-4.7834 163.34167,-7.0711 392.50453,-1.4457 231.2678,1.4896 0.5,-12 11.4038,-5.1404 3.0962,-15.8596 23,-1 2777.4932,22.3471 1.0068,91.1529 -3896,-5 z"
       style="display:inline;opacity:1;fill:#232018;fill-opacity:1;fill-rule:evenodd;stroke:none;stroke-width:1px;stroke-linecap:butt;stroke-linejoin:miter;stroke-opacity:1" />
    <path
       inkscape:connector-curvature="0"
       id="path4489"
       d="m 325,2020.5 -1,73 4374,9 0,-77 -260,-3 -3896,-5 z"
       style="display:inline;opacity:1;fill:#1a2e35;fill-opacity:1;fill-rule:evenodd;stroke:none;stroke-width:1px;stroke-linecap:butt;stroke-linejoin:miter;stroke-opacity:1" />
    <path
       inkscape:connector-curvature="0"
       id="path4473"
       d="M 1450.9831,1270.4975 1446.5,1483 l 144,20.5 3,-205 z"
       style="display:inline;opacity:1;fill:#faf6c7;fill-opacity:1;fill-rule:evenodd;stroke:none;stroke-width:1px;stroke-linecap:butt;stroke-linejoin:miter;stroke-opacity:1" />
    <path
       inkscape:connector-curvature="0"
       id="path4475"
       d="m 1446.0334,1492.1755 -4.2427,202.9397 144.9569,14.1421 3.5356,-198.697 z"
       style="display:inline;opacity:1;fill:#faf6c7;fill-opacity:1;fill-rule:evenodd;stroke:none;stroke-width:1px;stroke-linecap:butt;stroke-linejoin:miter;stroke-opacity:1" />
    <path
       inkscape:connector-curvature="0"
       id="path4491"
       d="M 538.00527,2093.9403 511,2658.5 l 3933.1661,9.9477 -4.9452,-566.4802 z"
       style="display:inline;opacity:1;fill:#253632;fill-opacity:1;fill-rule:evenodd;stroke:none;stroke-width:1px;stroke-linecap:butt;stroke-linejoin:miter;stroke-opacity:1" />
    <path
       inkscape:connector-curvature="0"
       id="path4579"
       d="m 594,2466.5 19,-357 204,-3 -15,356 z"
       style="display:inline;opacity:1;fill:#110f0d;fill-opacity:1;fill-rule:evenodd;stroke:none;stroke-width:1px;stroke-linecap:butt;stroke-linejoin:miter;stroke-opacity:1" />
    <path
       inkscape:connector-curvature="0"
       id="path4581"
       d="m 844.2855,2458.4369 9.89949,-348.6036 228.39551,-2.8284 -14.8493,355.6747 z"
       style="display:inline;opacity:1;fill:#110f0d;fill-opacity:1;fill-rule:evenodd;stroke:none;stroke-width:1px;stroke-linecap:butt;stroke-linejoin:miter;stroke-opacity:1" />
    <path
       inkscape:connector-curvature="0"
       id="path4583"
       d="m 1105,2462.5 8,-354 227,-2 -9,361 z"
       style="display:inline;opacity:1;fill:#110f0d;fill-opacity:1;fill-rule:evenodd;stroke:none;stroke-width:1px;stroke-linecap:butt;stroke-linejoin:miter;stroke-opacity:1" />
    <path
       inkscape:connector-curvature="0"
       id="path4585"
       d="m 1367,2465.5 9,-359 222,-2 -11,360 z"
       style="display:inline;opacity:1;fill:#110f0d;fill-opacity:1;fill-rule:evenodd;stroke:none;stroke-width:1px;stroke-linecap:butt;stroke-linejoin:miter;stroke-opacity:1" />
    <path
       sodipodi:nodetypes="ccccc"
       inkscape:connector-curvature="0"
       id="path4587"
       d="m 1630.5758,2661.3316 14.1546,-557.8623 243.2447,-1.4142 -9.9028,559.9025 z"
       style="display:inline;opacity:1;fill:#4f6c60;fill-opacity:1;fill-rule:evenodd;stroke:none;stroke-width:1px;stroke-linecap:butt;stroke-linejoin:miter;stroke-opacity:1" />
    <path
       inkscape:connector-curvature="0"
       id="path4589"
       d="m 1931.8157,2459.8512 1.4142,-356.3819 227.6884,-1.4142 -7.071,356.3818 z"
       style="display:inline;opacity:1;fill:#110f0d;fill-opacity:1;fill-rule:evenodd;stroke:none;stroke-width:1px;stroke-linecap:butt;stroke-linejoin:miter;stroke-opacity:1" />
    <path
       inkscape:connector-curvature="0"
       id="path4591"
       d="m 2189.2026,2461.2654 4.2426,-356.3818 217.7889,1.4142 -5.6568,357.796 z"
       style="display:inline;opacity:1;fill:#110f0d;fill-opacity:1;fill-rule:evenodd;stroke:none;stroke-width:1px;stroke-linecap:butt;stroke-linejoin:miter;stroke-opacity:1" />
    <path
       inkscape:connector-curvature="0"
       id="path4593"
       d="m 2441.6397,2466.2151 2.8284,-358.5031 214.2534,0.7071 -0.7071,359.9173 z"
       style="display:inline;opacity:1;fill:#110f0d;fill-opacity:1;fill-rule:evenodd;stroke:none;stroke-width:1px;stroke-linecap:butt;stroke-linejoin:miter;stroke-opacity:1" />
    <path
       inkscape:connector-curvature="0"
       id="path4595"
       d="m 2692.6626,2467.6293 4.9498,-359.2102 210.7178,-0.7071 -3.5355,357.0889 z"
       style="display:inline;opacity:1;fill:#110f0d;fill-opacity:1;fill-rule:evenodd;stroke:none;stroke-width:1px;stroke-linecap:butt;stroke-linejoin:miter;stroke-opacity:1" />
    <path
       inkscape:connector-curvature="0"
       id="path4597"
       d="m 3097,2465.5 352,7 -3.2687,-356.3027 -345.0681,-3.5356 z"
       style="display:inline;opacity:1;fill:#110f0d;fill-opacity:1;fill-rule:evenodd;stroke:none;stroke-width:1px;stroke-linecap:butt;stroke-linejoin:miter;stroke-opacity:1" />
    <path
       inkscape:connector-curvature="0"
       id="path4599"
       d="m 3507.2496,2116.1973 367.6956,2.8284 12.7279,535.9869 -374.7666,-1.4142 z"
       style="display:inline;opacity:1;fill:#54725e;fill-opacity:1;fill-rule:evenodd;stroke:none;stroke-width:1px;stroke-linecap:butt;stroke-linejoin:miter;stroke-opacity:1" />
    <path
       sodipodi:nodetypes="ccccc"
       inkscape:connector-curvature="0"
       id="path4601"
       d="m 3923.0284,2117.6115 1.4142,373.3523 452.5484,7.0711 -4.2427,-371.9381 z"
       style="display:inline;opacity:1;fill:#110f0d;fill-opacity:1;fill-rule:evenodd;stroke:none;stroke-width:1px;stroke-linecap:butt;stroke-linejoin:miter;stroke-opacity:1" />
    <path
       inkscape:connector-curvature="0"
       id="path4603"
       d="m 3038,1407.5 1329,0 z"
       style="display:inline;opacity:1;fill:none;fill-rule:evenodd;stroke:#000000;stroke-width:0.40000001;stroke-linecap:butt;stroke-linejoin:miter;stroke-miterlimit:4;stroke-dasharray:none;stroke-opacity:1" />
    <path
       inkscape:connector-curvature="0"
       id="path4607"
       d="m 3038,1433.5 1329,0 z"
       style="display:inline;opacity:1;fill:none;fill-rule:evenodd;stroke:#000000;stroke-width:0.40000001;stroke-linecap:butt;stroke-linejoin:miter;stroke-miterlimit:4;stroke-dasharray:none;stroke-opacity:1" />
    <path
       style="display:inline;opacity:1;fill:none;fill-rule:evenodd;stroke:#000000;stroke-width:0.40000001;stroke-linecap:butt;stroke-linejoin:miter;stroke-miterlimit:4;stroke-dasharray:none;stroke-opacity:1"
       d="m 3038,1461.5 1329,0 z"
       id="path4609"
       inkscape:connector-curvature="0" />
    <path
       inkscape:connector-curvature="0"
       id="path4611"
       d="m 3038,1489.5 1329,0 z"
       style="display:inline;opacity:1;fill:none;fill-rule:evenodd;stroke:#000000;stroke-width:0.40000001;stroke-linecap:butt;stroke-linejoin:miter;stroke-miterlimit:4;stroke-dasharray:none;stroke-opacity:1" />
    <path
       style="display:inline;opacity:1;fill:none;fill-rule:evenodd;stroke:#000000;stroke-width:0.40000001;stroke-linecap:butt;stroke-linejoin:miter;stroke-miterlimit:4;stroke-dasharray:none;stroke-opacity:1"
       d="m 3038,1517.5 1329,0 z"
       id="path4613"
       inkscape:connector-curvature="0" />
    <path
       inkscape:connector-curvature="0"
       id="path4615"
       d="m 3038,1547.5 1329,0 z"
       style="display:inline;opacity:1;fill:none;fill-rule:evenodd;stroke:#000000;stroke-width:0.40000001;stroke-linecap:butt;stroke-linejoin:miter;stroke-miterlimit:4;stroke-dasharray:none;stroke-opacity:1" />
    <path
       style="display:inline;opacity:1;fill:none;fill-rule:evenodd;stroke:#000000;stroke-width:0.40000001;stroke-linecap:butt;stroke-linejoin:miter;stroke-miterlimit:4;stroke-dasharray:none;stroke-opacity:1"
       d="m 3038,1575.5 1329,0 z"
       id="path4617"
       inkscape:connector-curvature="0" />
    <path
       inkscape:connector-curvature="0"
       id="path4619"
       d="m 3038,1603.5 1329,0 z"
       style="display:inline;opacity:1;fill:none;fill-rule:evenodd;stroke:#000000;stroke-width:0.40000001;stroke-linecap:butt;stroke-linejoin:miter;stroke-miterlimit:4;stroke-dasharray:none;stroke-opacity:1" />
    <path
       style="display:inline;opacity:1;fill:none;fill-rule:evenodd;stroke:#000000;stroke-width:0.40000001;stroke-linecap:butt;stroke-linejoin:miter;stroke-miterlimit:4;stroke-dasharray:none;stroke-opacity:1"
       d="m 3038,1631.5 1329,0 z"
       id="path4623"
       inkscape:connector-curvature="0" />
    <path
       style="display:inline;opacity:1;fill:none;fill-rule:evenodd;stroke:#000000;stroke-width:0.40000001;stroke-linecap:butt;stroke-linejoin:miter;stroke-miterlimit:4;stroke-dasharray:none;stroke-opacity:1"
       d="m 3038,1657.5 1329,0 z"
       id="path4625"
       inkscape:connector-curvature="0" />
    <path
       inkscape:connector-curvature="0"
       id="path4627"
       d="m 3038,1685.5 1329,0 z"
       style="display:inline;opacity:1;fill:none;fill-rule:evenodd;stroke:#000000;stroke-width:0.40000001;stroke-linecap:butt;stroke-linejoin:miter;stroke-miterlimit:4;stroke-dasharray:none;stroke-opacity:1" />
    <path
       style="display:inline;opacity:1;fill:none;fill-rule:evenodd;stroke:#000000;stroke-width:0.40000001;stroke-linecap:butt;stroke-linejoin:miter;stroke-miterlimit:4;stroke-dasharray:none;stroke-opacity:1"
       d="m 3038,1713.5 1329,0 z"
       id="path4629"
       inkscape:connector-curvature="0" />
    <path
       inkscape:connector-curvature="0"
       id="path4631"
       d="m 3038,1741.5 1329,0 z"
       style="display:inline;opacity:1;fill:none;fill-rule:evenodd;stroke:#000000;stroke-width:0.40000001;stroke-linecap:butt;stroke-linejoin:miter;stroke-miterlimit:4;stroke-dasharray:none;stroke-opacity:1" />
    <path
       style="display:inline;opacity:1;fill:none;fill-rule:evenodd;stroke:#000000;stroke-width:0.40000001;stroke-linecap:butt;stroke-linejoin:miter;stroke-miterlimit:4;stroke-dasharray:none;stroke-opacity:1"
       d="m 3038,1771.5 1329,0 z"
       id="path4633"
       inkscape:connector-curvature="0" />
    <path
       inkscape:connector-curvature="0"
       id="path4635"
       d="m 3038,1799.5 1329,0 z"
       style="display:inline;opacity:1;fill:none;fill-rule:evenodd;stroke:#000000;stroke-width:0.40000001;stroke-linecap:butt;stroke-linejoin:miter;stroke-miterlimit:4;stroke-dasharray:none;stroke-opacity:1" />
    <path
       style="display:inline;opacity:1;fill:none;fill-rule:evenodd;stroke:#000000;stroke-width:0.40000001;stroke-linecap:butt;stroke-linejoin:miter;stroke-miterlimit:4;stroke-dasharray:none;stroke-opacity:1"
       d="m 3038,1827.5 1329,0 z"
       id="path4637"
       inkscape:connector-curvature="0" />
    <path
       inkscape:connector-curvature="0"
       id="path4639"
       d="m 642.76006,612.18114 0,89.09545 z"
       style="display:inline;opacity:1;fill:none;fill-rule:evenodd;stroke:#000000;stroke-width:0.30000001;stroke-linecap:butt;stroke-linejoin:miter;stroke-miterlimit:4;stroke-dasharray:none;stroke-opacity:1" />
    <path
       style="display:inline;opacity:1;fill:none;fill-rule:evenodd;stroke:#000000;stroke-width:0.30000001;stroke-linecap:butt;stroke-linejoin:miter;stroke-miterlimit:4;stroke-dasharray:none;stroke-opacity:1"
       d="m 680.76006,612.18114 0,89.09545 z"
       id="path4641"
       inkscape:connector-curvature="0" />
    <path
       inkscape:connector-curvature="0"
       id="path4643"
       d="m 718.76006,612.18114 0,89.09545 z"
       style="display:inline;opacity:1;fill:none;fill-rule:evenodd;stroke:#000000;stroke-width:0.30000001;stroke-linecap:butt;stroke-linejoin:miter;stroke-miterlimit:4;stroke-dasharray:none;stroke-opacity:1" />
    <path
       style="display:inline;opacity:1;fill:none;fill-rule:evenodd;stroke:#000000;stroke-width:0.30000001;stroke-linecap:butt;stroke-linejoin:miter;stroke-miterlimit:4;stroke-dasharray:none;stroke-opacity:1"
       d="m 760.76006,612.18114 0,89.09545 z"
       id="path4645"
       inkscape:connector-curvature="0" />
    <path
       inkscape:connector-curvature="0"
       id="path4647"
       d="m 798.76006,612.18114 0,89.09545 z"
       style="display:inline;opacity:1;fill:none;fill-rule:evenodd;stroke:#000000;stroke-width:0.30000001;stroke-linecap:butt;stroke-linejoin:miter;stroke-miterlimit:4;stroke-dasharray:none;stroke-opacity:1" />
    <path
       style="display:inline;opacity:1;fill:none;fill-rule:evenodd;stroke:#000000;stroke-width:0.30000001;stroke-linecap:butt;stroke-linejoin:miter;stroke-miterlimit:4;stroke-dasharray:none;stroke-opacity:1"
       d="m 836.76006,612.18114 0,89.09545 z"
       id="path4649"
       inkscape:connector-curvature="0" />
    <path
       inkscape:connector-curvature="0"
       id="path4651"
       d="m 880.76006,612.18114 0,89.09545 z"
       style="display:inline;opacity:1;fill:none;fill-rule:evenodd;stroke:#000000;stroke-width:0.30000001;stroke-linecap:butt;stroke-linejoin:miter;stroke-miterlimit:4;stroke-dasharray:none;stroke-opacity:1" />
    <path
       style="display:inline;opacity:1;fill:none;fill-rule:evenodd;stroke:#000000;stroke-width:0.30000001;stroke-linecap:butt;stroke-linejoin:miter;stroke-miterlimit:4;stroke-dasharray:none;stroke-opacity:1"
       d="m 920.76006,612.18114 0,89.09545 z"
       id="path4653"
       inkscape:connector-curvature="0" />
    <path
       inkscape:connector-curvature="0"
       id="path4655"
       d="m 968.76006,612.18114 0,89.09545 z"
       style="display:inline;opacity:1;fill:none;fill-rule:evenodd;stroke:#000000;stroke-width:0.30000001;stroke-linecap:butt;stroke-linejoin:miter;stroke-miterlimit:4;stroke-dasharray:none;stroke-opacity:1" />
    <path
       style="display:inline;opacity:1;fill:none;fill-rule:evenodd;stroke:#000000;stroke-width:0.30000001;stroke-linecap:butt;stroke-linejoin:miter;stroke-miterlimit:4;stroke-dasharray:none;stroke-opacity:1"
       d="m 1012.7601,612.18114 0,89.09545 z"
       id="path4657"
       inkscape:connector-curvature="0" />
    <path
       inkscape:connector-curvature="0"
       id="path4659"
       d="m 1054.7601,612.18114 0,89.09545 z"
       style="display:inline;opacity:1;fill:none;fill-rule:evenodd;stroke:#000000;stroke-width:0.30000001;stroke-linecap:butt;stroke-linejoin:miter;stroke-miterlimit:4;stroke-dasharray:none;stroke-opacity:1" />
    <path
       style="display:inline;opacity:1;fill:none;fill-rule:evenodd;stroke:#000000;stroke-width:0.30000001;stroke-linecap:butt;stroke-linejoin:miter;stroke-miterlimit:4;stroke-dasharray:none;stroke-opacity:1"
       d="m 1096.7601,612.18114 0,89.09545 z"
       id="path4661"
       inkscape:connector-curvature="0" />
    <path
       inkscape:connector-curvature="0"
       id="path4663"
       d="m 1138.7601,612.18114 0,89.09545 z"
       style="display:inline;opacity:1;fill:none;fill-rule:evenodd;stroke:#000000;stroke-width:0.30000001;stroke-linecap:butt;stroke-linejoin:miter;stroke-miterlimit:4;stroke-dasharray:none;stroke-opacity:1" />
    <path
       style="display:inline;opacity:1;fill:none;fill-rule:evenodd;stroke:#000000;stroke-width:0.30000001;stroke-linecap:butt;stroke-linejoin:miter;stroke-miterlimit:4;stroke-dasharray:none;stroke-opacity:1"
       d="m 1178.7601,612.18114 0,89.09545 z"
       id="path4665"
       inkscape:connector-curvature="0" />
    <path
       inkscape:connector-curvature="0"
       id="path4667"
       d="m 1222.7601,612.18114 0,89.09545 z"
       style="display:inline;opacity:1;fill:none;fill-rule:evenodd;stroke:#000000;stroke-width:0.30000001;stroke-linecap:butt;stroke-linejoin:miter;stroke-miterlimit:4;stroke-dasharray:none;stroke-opacity:1" />
    <path
       style="display:inline;opacity:1;fill:none;fill-rule:evenodd;stroke:#000000;stroke-width:0.30000001;stroke-linecap:butt;stroke-linejoin:miter;stroke-miterlimit:4;stroke-dasharray:none;stroke-opacity:1"
       d="m 1264.7601,612.18114 0,89.09545 z"
       id="path4669"
       inkscape:connector-curvature="0" />
    <path
       inkscape:connector-curvature="0"
       id="path4671"
       d="m 1306.7601,612.18114 0,89.09545 z"
       style="display:inline;opacity:1;fill:none;fill-rule:evenodd;stroke:#000000;stroke-width:0.30000001;stroke-linecap:butt;stroke-linejoin:miter;stroke-miterlimit:4;stroke-dasharray:none;stroke-opacity:1" />
    <path
       style="display:inline;opacity:1;fill:none;fill-rule:evenodd;stroke:#000000;stroke-width:0.30000001;stroke-linecap:butt;stroke-linejoin:miter;stroke-miterlimit:4;stroke-dasharray:none;stroke-opacity:1"
       d="m 1378.7601,610.18114 0,89.09545 z"
       id="path4673"
       inkscape:connector-curvature="0" />
    <path
       inkscape:connector-curvature="0"
       id="path4675"
       d="m 1420.7601,610.18114 0,89.09545 z"
       style="display:inline;opacity:1;fill:none;fill-rule:evenodd;stroke:#000000;stroke-width:0.30000001;stroke-linecap:butt;stroke-linejoin:miter;stroke-miterlimit:4;stroke-dasharray:none;stroke-opacity:1" />
    <path
       style="display:inline;opacity:1;fill:none;fill-rule:evenodd;stroke:#000000;stroke-width:0.30000001;stroke-linecap:butt;stroke-linejoin:miter;stroke-miterlimit:4;stroke-dasharray:none;stroke-opacity:1"
       d="m 1472.7601,610.18114 0,89.09545 z"
       id="path4677"
       inkscape:connector-curvature="0" />
    <path
       inkscape:connector-curvature="0"
       id="path4679"
       d="m 1522.7601,610.18114 0,89.09545 z"
       style="display:inline;opacity:1;fill:none;fill-rule:evenodd;stroke:#000000;stroke-width:0.30000001;stroke-linecap:butt;stroke-linejoin:miter;stroke-miterlimit:4;stroke-dasharray:none;stroke-opacity:1" />
    <path
       style="display:inline;opacity:1;fill:none;fill-rule:evenodd;stroke:#000000;stroke-width:0.30000001;stroke-linecap:butt;stroke-linejoin:miter;stroke-miterlimit:4;stroke-dasharray:none;stroke-opacity:1"
       d="m 1568.7601,610.18114 0,89.09545 z"
       id="path4681"
       inkscape:connector-curvature="0" />
    <path
       inkscape:connector-curvature="0"
       id="path4683"
       d="m 1612.7601,610.18114 0,89.09545 z"
       style="display:inline;opacity:1;fill:none;fill-rule:evenodd;stroke:#000000;stroke-width:0.30000001;stroke-linecap:butt;stroke-linejoin:miter;stroke-miterlimit:4;stroke-dasharray:none;stroke-opacity:1" />
    <path
       style="display:inline;opacity:1;fill:none;fill-rule:evenodd;stroke:#000000;stroke-width:0.30000001;stroke-linecap:butt;stroke-linejoin:miter;stroke-miterlimit:4;stroke-dasharray:none;stroke-opacity:1"
       d="m 1658.7601,610.18114 0,89.09545 z"
       id="path4685"
       inkscape:connector-curvature="0" />
    <path
       inkscape:connector-curvature="0"
       id="path4687"
       d="m 1708.7601,610.18114 0,89.09545 z"
       style="display:inline;opacity:1;fill:none;fill-rule:evenodd;stroke:#000000;stroke-width:0.30000001;stroke-linecap:butt;stroke-linejoin:miter;stroke-miterlimit:4;stroke-dasharray:none;stroke-opacity:1" />
    <path
       style="display:inline;opacity:1;fill:none;fill-rule:evenodd;stroke:#000000;stroke-width:0.30000001;stroke-linecap:butt;stroke-linejoin:miter;stroke-miterlimit:4;stroke-dasharray:none;stroke-opacity:1"
       d="m 1756.7601,610.18114 0,89.09545 z"
       id="path4689"
       inkscape:connector-curvature="0" />
    <path
       inkscape:connector-curvature="0"
       id="path4691"
       d="m 1798.7601,610.18114 0,89.09545 z"
       style="display:inline;opacity:1;fill:none;fill-rule:evenodd;stroke:#000000;stroke-width:0.30000001;stroke-linecap:butt;stroke-linejoin:miter;stroke-miterlimit:4;stroke-dasharray:none;stroke-opacity:1" />
    <path
       style="display:inline;opacity:1;fill:none;fill-rule:evenodd;stroke:#000000;stroke-width:0.30000001;stroke-linecap:butt;stroke-linejoin:miter;stroke-miterlimit:4;stroke-dasharray:none;stroke-opacity:1"
       d="m 1850.7601,610.18114 0,89.09545 z"
       id="path4693"
       inkscape:connector-curvature="0" />
    <path
       inkscape:connector-curvature="0"
       id="path4695"
       d="m 1896.7601,610.18114 0,89.09545 z"
       style="display:inline;opacity:1;fill:none;fill-rule:evenodd;stroke:#000000;stroke-width:0.30000001;stroke-linecap:butt;stroke-linejoin:miter;stroke-miterlimit:4;stroke-dasharray:none;stroke-opacity:1" />
    <path
       style="display:inline;opacity:1;fill:none;fill-rule:evenodd;stroke:#000000;stroke-width:0.30000001;stroke-linecap:butt;stroke-linejoin:miter;stroke-miterlimit:4;stroke-dasharray:none;stroke-opacity:1"
       d="m 1942.7601,610.18114 0,89.09545 z"
       id="path4697"
       inkscape:connector-curvature="0" />
    <path
       inkscape:connector-curvature="0"
       id="path4699"
       d="m 1990.7601,610.18114 0,89.09545 z"
       style="display:inline;opacity:1;fill:none;fill-rule:evenodd;stroke:#000000;stroke-width:0.30000001;stroke-linecap:butt;stroke-linejoin:miter;stroke-miterlimit:4;stroke-dasharray:none;stroke-opacity:1" />
    <path
       style="display:inline;opacity:1;fill:none;fill-rule:evenodd;stroke:#000000;stroke-width:0.30000001;stroke-linecap:butt;stroke-linejoin:miter;stroke-miterlimit:4;stroke-dasharray:none;stroke-opacity:1"
       d="m 2036.7601,610.18114 0,89.09545 z"
       id="path4701"
       inkscape:connector-curvature="0" />
    <path
       inkscape:connector-curvature="0"
       id="path4703"
       d="m 2084.7601,610.18114 0,89.09545 z"
       style="display:inline;opacity:1;fill:none;fill-rule:evenodd;stroke:#000000;stroke-width:0.30000001;stroke-linecap:butt;stroke-linejoin:miter;stroke-miterlimit:4;stroke-dasharray:none;stroke-opacity:1" />
    <path
       style="display:inline;opacity:1;fill:none;fill-rule:evenodd;stroke:#000000;stroke-width:0.30000001;stroke-linecap:butt;stroke-linejoin:miter;stroke-miterlimit:4;stroke-dasharray:none;stroke-opacity:1"
       d="m 2126.7601,610.18114 0,89.09545 z"
       id="path4705"
       inkscape:connector-curvature="0" />
    <path
       inkscape:connector-curvature="0"
       id="path4707"
       d="m 2170.7601,610.18114 0,89.09545 z"
       style="display:inline;opacity:1;fill:none;fill-rule:evenodd;stroke:#000000;stroke-width:0.30000001;stroke-linecap:butt;stroke-linejoin:miter;stroke-miterlimit:4;stroke-dasharray:none;stroke-opacity:1" />
    <path
       style="display:inline;opacity:1;fill:none;fill-rule:evenodd;stroke:#000000;stroke-width:0.30000001;stroke-linecap:butt;stroke-linejoin:miter;stroke-miterlimit:4;stroke-dasharray:none;stroke-opacity:1"
       d="m 2210.7601,610.18114 0,89.09545 z"
       id="path4709"
       inkscape:connector-curvature="0" />
    <path
       inkscape:connector-curvature="0"
       id="path4711"
       d="m 2270.7601,610.18114 0,89.09545 z"
       style="display:inline;opacity:1;fill:none;fill-rule:evenodd;stroke:#000000;stroke-width:0.30000001;stroke-linecap:butt;stroke-linejoin:miter;stroke-miterlimit:4;stroke-dasharray:none;stroke-opacity:1" />
    <path
       style="display:inline;opacity:1;fill:none;fill-rule:evenodd;stroke:#000000;stroke-width:0.30000001;stroke-linecap:butt;stroke-linejoin:miter;stroke-miterlimit:4;stroke-dasharray:none;stroke-opacity:1"
       d="m 2308.7601,612.18114 0,89.09545 z"
       id="path4713"
       inkscape:connector-curvature="0" />
    <path
       inkscape:connector-curvature="0"
       id="path4715"
       d="m 2354.7601,612.18114 0,89.09545 z"
       style="display:inline;opacity:1;fill:none;fill-rule:evenodd;stroke:#000000;stroke-width:0.30000001;stroke-linecap:butt;stroke-linejoin:miter;stroke-miterlimit:4;stroke-dasharray:none;stroke-opacity:1" />
    <path
       style="display:inline;opacity:1;fill:none;fill-rule:evenodd;stroke:#000000;stroke-width:0.30000001;stroke-linecap:butt;stroke-linejoin:miter;stroke-miterlimit:4;stroke-dasharray:none;stroke-opacity:1"
       d="m 2400.7601,612.18114 0,89.09545 z"
       id="path4717"
       inkscape:connector-curvature="0" />
    <path
       inkscape:connector-curvature="0"
       id="path4719"
       d="m 2450.7601,612.18114 0,89.09545 z"
       style="display:inline;opacity:1;fill:none;fill-rule:evenodd;stroke:#000000;stroke-width:0.30000001;stroke-linecap:butt;stroke-linejoin:miter;stroke-miterlimit:4;stroke-dasharray:none;stroke-opacity:1" />
    <path
       style="display:inline;opacity:1;fill:none;fill-rule:evenodd;stroke:#000000;stroke-width:0.30000001;stroke-linecap:butt;stroke-linejoin:miter;stroke-miterlimit:4;stroke-dasharray:none;stroke-opacity:1"
       d="m 2494.7601,612.18114 0,89.09545 z"
       id="path4721"
       inkscape:connector-curvature="0" />
    <path
       inkscape:connector-curvature="0"
       id="path4723"
       d="m 2544.7601,612.18114 0,89.09545 z"
       style="display:inline;opacity:1;fill:none;fill-rule:evenodd;stroke:#000000;stroke-width:0.30000001;stroke-linecap:butt;stroke-linejoin:miter;stroke-miterlimit:4;stroke-dasharray:none;stroke-opacity:1" />
    <path
       style="display:inline;opacity:1;fill:none;fill-rule:evenodd;stroke:#000000;stroke-width:0.30000001;stroke-linecap:butt;stroke-linejoin:miter;stroke-miterlimit:4;stroke-dasharray:none;stroke-opacity:1"
       d="m 2586.7601,612.18114 0,89.09545 z"
       id="path4725"
       inkscape:connector-curvature="0" />
    <path
       inkscape:connector-curvature="0"
       id="path4727"
       d="m 2632.7601,612.18114 0,89.09545 z"
       style="display:inline;opacity:1;fill:none;fill-rule:evenodd;stroke:#000000;stroke-width:0.30000001;stroke-linecap:butt;stroke-linejoin:miter;stroke-miterlimit:4;stroke-dasharray:none;stroke-opacity:1" />
    <path
       style="display:inline;opacity:1;fill:none;fill-rule:evenodd;stroke:#000000;stroke-width:0.30000001;stroke-linecap:butt;stroke-linejoin:miter;stroke-miterlimit:4;stroke-dasharray:none;stroke-opacity:1"
       d="m 2670.7601,612.18114 0,89.09545 z"
       id="path4729"
       inkscape:connector-curvature="0" />
    <path
       inkscape:connector-curvature="0"
       id="path4731"
       d="m 2712.7601,614.18114 0,89.09545 z"
       style="display:inline;opacity:1;fill:none;fill-rule:evenodd;stroke:#000000;stroke-width:0.30000001;stroke-linecap:butt;stroke-linejoin:miter;stroke-miterlimit:4;stroke-dasharray:none;stroke-opacity:1" />
    <path
       style="display:inline;opacity:1;fill:none;fill-rule:evenodd;stroke:#000000;stroke-width:0.30000001;stroke-linecap:butt;stroke-linejoin:miter;stroke-miterlimit:4;stroke-dasharray:none;stroke-opacity:1"
       d="m 2756.7601,614.18114 0,89.09545 z"
       id="path4733"
       inkscape:connector-curvature="0" />
    <path
       inkscape:connector-curvature="0"
       id="path4735"
       d="m 2796.7601,614.18114 0,89.09545 z"
       style="display:inline;opacity:1;fill:none;fill-rule:evenodd;stroke:#000000;stroke-width:0.30000001;stroke-linecap:butt;stroke-linejoin:miter;stroke-miterlimit:4;stroke-dasharray:none;stroke-opacity:1" />
    <path
       style="display:inline;opacity:1;fill:none;fill-rule:evenodd;stroke:#000000;stroke-width:0.30000001;stroke-linecap:butt;stroke-linejoin:miter;stroke-miterlimit:4;stroke-dasharray:none;stroke-opacity:1"
       d="m 2848.7601,614.18114 0,89.09545 z"
       id="path4737"
       inkscape:connector-curvature="0" />
    <path
       inkscape:connector-curvature="0"
       id="path4739"
       d="m 2892.7601,614.18114 0,89.09545 z"
       style="display:inline;opacity:1;fill:none;fill-rule:evenodd;stroke:#000000;stroke-width:0.30000001;stroke-linecap:butt;stroke-linejoin:miter;stroke-miterlimit:4;stroke-dasharray:none;stroke-opacity:1" />
    <path
       style="display:inline;opacity:1;fill:none;fill-rule:evenodd;stroke:#000000;stroke-width:0.30000001;stroke-linecap:butt;stroke-linejoin:miter;stroke-miterlimit:4;stroke-dasharray:none;stroke-opacity:1"
       d="m 2940.7601,614.18114 0,89.09545 z"
       id="path4741"
       inkscape:connector-curvature="0" />
    <path
       inkscape:connector-curvature="0"
       id="path4911"
       d="m 3003.0051,2099.0124 -4.0058,565.7802 34.9997,0.088 4.0019,-565.7967 z"
       style="display:inline;opacity:1;fill:#54725e;fill-opacity:1;fill-rule:evenodd;stroke:none;stroke-width:1px;stroke-linecap:butt;stroke-linejoin:miter;stroke-opacity:1" />
    <path
       inkscape:connector-curvature="0"
       id="path4916"
       d="m 1680.0857,2138.8247 178.1909,-2.1213 -8.4853,419.3143 -181.7264,-0.7071 z"
       style="display:inline;opacity:1;fill:#0f0e0d;fill-opacity:1;fill-rule:evenodd;stroke:none;stroke-width:1px;stroke-linecap:butt;stroke-linejoin:miter;stroke-opacity:1" />
    <path
       inkscape:connector-curvature="0"
       id="path4918"
       d="m 3538.3623,2147.31 120.2082,0.7071 6.3639,414.3645 -120.2081,0 z"
       style="display:inline;opacity:1;fill:#0f0e0d;fill-opacity:1;fill-rule:evenodd;stroke:none;stroke-width:1px;stroke-linecap:butt;stroke-linejoin:miter;stroke-opacity:1" />
    <path
       inkscape:connector-curvature="0"
       id="path4920"
       d="m 3723.6243,2150.8455 119.5011,0.7071 7.071,412.2433 -121.6223,-1.4143 z"
       style="display:inline;opacity:1;fill:#0f0e0d;fill-opacity:1;fill-rule:evenodd;stroke:none;stroke-width:1px;stroke-linecap:butt;stroke-linejoin:miter;stroke-opacity:1" />
    <path
       sodipodi:nodetypes="cscccccccccccccc"
       inkscape:connector-curvature="0"
       id="path5092"
       d="m 1705,2094.75 c 0,0 1.25,-0.5 0,0 -1.25,0.5 -13.25,5 -13.25,5 l -4,3.25 2.25,16.75 3,7.25 25.75,13.75 7.75,1.5 9.25,-0.75 23.5,-10.75 5,-4.75 5.25,-20.5 -4.75,-4.25 -12.25,-4.5 0,0 z"
       style="display:inline;opacity:1;fill:#e39c2a;fill-opacity:1;fill-rule:evenodd;stroke:none;stroke-width:1px;stroke-linecap:butt;stroke-linejoin:miter;stroke-opacity:1" />
    <path
       sodipodi:nodetypes="ccccccccccccccc"
       inkscape:connector-curvature="0"
       id="path5096"
       d="M 3755.9988,2100.5617 3745,2105 l -9.5,6.5 -0.75,4.5 8.5,16 5.75,6 13.75,4.75 30.5,0.25 17,-8.25 5.5,-12.5 3.25,-8.5 -6.75,-6.5 -14,-6 -6.7462,-0.6152 z"
       style="display:inline;opacity:1;fill:#fcc232;fill-opacity:1;fill-rule:evenodd;stroke:none;stroke-width:1px;stroke-linecap:butt;stroke-linejoin:miter;stroke-opacity:1" />
    <path
       sodipodi:nodetypes="ccccccc"
       inkscape:connector-curvature="0"
       id="path5100"
       d="M 1350.574,2459.8512 905,2456 l -1.18447,146.2118 448.76557,2.8452 -0.9305,-60.7106 -0.5126,-34.4376 z"
       style="display:inline;opacity:1;fill:#261e1b;fill-opacity:1;fill-rule:evenodd;stroke:none;stroke-width:1px;stroke-linecap:butt;stroke-linejoin:miter;stroke-opacity:1" />
    <path
       sodipodi:nodetypes="ccccccccc"
       inkscape:connector-curvature="0"
       id="path5102"
       d="m 903.32892,2580.4128 1.76536,79.0839 -25.44316,-0.064 -3.54581,-146.5478 8.48527,-13.435 9.8995,-43.8407 L 905,2456 l 0.0967,5.6189 z"
       style="display:inline;opacity:1;fill:#5e311b;fill-opacity:1;fill-rule:evenodd;stroke:none;stroke-width:1px;stroke-linecap:butt;stroke-linejoin:miter;stroke-opacity:1" />
    <path
       style="display:inline;opacity:1;fill:#5e311b;fill-opacity:1;fill-rule:evenodd;stroke:none;stroke-width:1px;stroke-linecap:butt;stroke-linejoin:miter;stroke-opacity:1"
       d="m 1352.2451,2584.264 1.2339,76.3668 20.9429,0.053 5.0468,-143.9477 -8.4853,-13.435 -9.8995,-43.8407 -10.5099,0.3908 -0.097,5.6189 z"
       id="path5104"
       inkscape:connector-curvature="0"
       sodipodi:nodetypes="ccccccccc" />
    <path
       inkscape:connector-curvature="0"
       id="path5106"
       d="m 2199,2559.5 3,-109 -14,-2 -0.7923,56.5169 -5.6678,6.4697 -2.6414,21.4827 8.1811,23.0741 L 2185,2662.5 l 13,0 1.4556,-88.8047 556.8466,1.7678 2.8285,88.7419 17.6776,-0.7071 -0.7071,-112.43 9.8995,-20.5061 -4.2426,-21.2132 -4.9498,-6.3639 -4.2426,-53.7401 -7.7782,-6.364 -6.3639,5.6568 -2.1214,110.3087 z"
       style="display:inline;opacity:1;fill:#2c160f;fill-opacity:1;fill-rule:evenodd;stroke:none;stroke-width:1px;stroke-linecap:butt;stroke-linejoin:miter;stroke-opacity:1"
       sodipodi:nodetypes="cccccccccccccccccccccc" />
    <path
       inkscape:connector-curvature="0"
       id="path5108"
       d="M 2201.8629,2455.4825 C 2199,2559.5 2199,2559.5 2199,2559.5 l 557.3022,-0.6539 1.9876,-103.3501 z"
       style="display:inline;opacity:1;fill:#36170f;fill-opacity:1;fill-rule:evenodd;stroke:none;stroke-width:1px;stroke-linecap:butt;stroke-linejoin:miter;stroke-opacity:1" />
    <path
       inkscape:connector-curvature="0"
       id="path5110"
       d="m 3082.2785,1803.6561 24.7487,-0.7071 0.7071,-22.6275 560.7357,14.8493 634.2748,2.8284 1.4142,20.5061 24.0416,0 -4.2426,-274.3574 -25.4559,-0.7071 0.7071,18.3847 -293.4493,-2.8284 -304.0559,-74.9533 -300.5204,68.5894 -292.7422,-2.8285 0,-17.6776 -24.7487,-1.4143 z"
       style="display:inline;opacity:1;fill:#e8ac6e;fill-opacity:1;fill-rule:evenodd;stroke:none;stroke-width:1px;stroke-linecap:butt;stroke-linejoin:miter;stroke-opacity:1" />
    <path
       inkscape:connector-curvature="0"
       id="path5120"
       d="m 3110,1561 -1,206.5 556,13 635.5,4 -0.5,-209.5 -300.5,-3.5 -296.5,-76 -303.5,71 z"
       style="display:inline;opacity:1;fill:#e2c28f;fill-opacity:1;fill-rule:evenodd;stroke:none;stroke-width:1px;stroke-linecap:butt;stroke-linejoin:miter;stroke-opacity:1" />
    <path
       style="display:inline;opacity:1;fill:#41472b;fill-opacity:1"
       d="m 3220.8736,1578.6459 c -5.4777,-0.024 -10.8633,0.1347 -10.8633,0.5019 0,0.2828 1.3735,1.7453 3.0527,3.25 1.7909,1.6049 3.4085,4.3236 3.9141,6.5762 0.4737,2.1121 0.6691,12.9121 0.4336,24 -0.2355,11.088 -0.4458,30.0164 -0.4688,42.0645 -0.045,23.62 -0.4676,25.8681 -5.6211,29.9218 -1.3293,1.0457 -2.2111,2.1071 -1.9589,2.3594 0.2523,0.2523 5.4529,0.5392 11.5546,0.6367 10.2291,0.1635 13.4122,-0.4967 9.5508,-1.9785 -0.8485,-0.3255 -2.5218,-2.4471 -3.7187,-4.7168 -1.9113,-3.6242 -2.1693,-5.6488 -2.1153,-16.6269 0.034,-6.875 0.1109,-13.175 0.1719,-14 0.061,-0.825 -0.1388,-7.5179 -0.4453,-14.8731 -0.6231,-14.9549 -0.1687,-15.5857 4.5508,-6.3164 5.8913,11.5708 8.6243,16.1717 9.6094,16.1797 0.5559,0.01 4.8401,3.092 9.5214,6.8594 19.5109,15.7017 24.2743,25.293 20.4356,41.1504 -0.4853,2.0047 0.4033,1.4104 4.4805,-3 2.7964,-3.025 5.2866,-6.4 5.5351,-7.5 0.6217,-2.7527 1.5902,-50.0168 1.4785,-72.1524 -0.1055,-20.8762 0.7234,-25.458 5.0664,-28.0234 1.6347,-0.9657 2.9727,-2.1096 2.9727,-2.541 0,-0.4314 -5.4168,-0.7832 -12.0352,-0.7832 l -12.0332,0 3.3907,3.3886 c 2.5833,2.5834 3.5418,4.5463 4.0253,8.25 0.935,7.1609 0.6323,62.3614 -0.3418,62.3614 -1.0146,0 -9.0058,-14.6219 -9.0058,-16.4785 -2.3425,-4.4954 -9.5448,-6.1848 -12.7402,-10.2969 -19.1513,-16.3319 -20.7598,-18.8049 -20.7598,-31.8887 0,-7.8665 0.3097,-9.5834 2.1953,-12.1367 1.208,-1.6358 1.9211,-3.2488 1.584,-3.5859 -0.369,-0.369 -5.9383,-0.5773 -11.416,-0.6016 z m 526.8281,6.2949 c -0.5988,-0.031 -1.3148,0.057 -2.1914,0.1934 l -24,0 c -26.2787,0 -28.8051,0.4803 -31.3066,5.9707 -2.7281,5.9875 -0.5733,11.6359 5.3886,14.1269 3.7382,1.5619 6.8511,0.8167 9.6758,-2.3203 1.682,-1.8679 1.6712,-2.0328 -0.25,-3.7715 -1.1044,-0.9995 -2.0078,-2.5916 -2.0078,-3.539 0,-3.5553 2.7616,-4.4037 13.8613,-4.2578 l 10.6387,0.1406 -0.2773,6.8242 c -0.3114,7.6886 -1.7686,19.3541 -3.3516,26.8262 -2.9826,14.0779 -14.3626,38.7616 -20.8262,45.1738 -9.7684,9.6908 -21.6195,10.9556 -25.5254,2.7246 -1.7915,-3.7754 -2.7706,-3.6562 -7.6015,0.9219 -5.9549,5.6433 -6.2222,13.1176 -0.6582,18.3594 8.851,8.3384 21.8039,6.8686 33.1699,-3.7637 7.6689,-7.1739 11.4902,-12.9004 16.8184,-25.207 8.4697,-19.563 11.3436,-29.2397 14.2851,-48.0899 0.8548,-5.478 2.14,-3.6097 5.0703,7.3731 1.3588,5.0925 3.769,13.1394 5.3574,17.8828 1.5885,4.7433 3.8426,12.225 5.0079,16.625 1.1652,4.4 3.2107,11.6 4.5468,16 1.3362,4.4 3.4096,11.7803 4.6075,16.4023 1.9501,7.5249 2.3194,8.2125 3.5273,6.5606 0.7419,-1.0147 1.3653,-2.772 1.3848,-3.9043 0.019,-1.1324 0.6382,-3.1468 1.375,-4.4766 1.6031,-2.8839 1.2488,-8.236 3.1972,-10.7265 -0.018,-0.083 -0.038,-0.1748 -0.057,-0.2579 0.6641,-1.2184 1.4718,-3.1753 2.461,-6.0976 0.122,-0.3605 1.6232,-2.8125 2.7617,-6.25 9.7783,-29.5246 16.1412,-47.2222 17.0918,-47.5391 1.3147,-0.4382 1.3344,2.9083 0.2226,39.2891 -0.8393,27.4642 -1.3557,30.023 -7.0175,34.7871 -3,2.5243 -3.3916,4.9477 -0.7461,4.6211 0.646,-0.08 2.2144,-0.093 3.4843,-0.027 0.8416,0.059 -2.1389,-0.04 7.75,0.092 3.8605,-2.6973 1.8126,0.053 15.3496,-0.1153 11.4392,-0.1424 13.8414,-0.7153 10.7481,-2.5585 -0.7381,-0.4399 -3.0464,-3.2739 -5.1309,-6.2989 l -3.791,-5.5 0.6582,-41.3398 c 0.6184,-38.8958 0.7768,-41.5752 2.6934,-45.3321 1.1204,-2.1961 3.3565,-4.7428 4.9687,-5.6601 1.6123,-0.9173 2.9345,-1.893 2.9375,-2.168 0,-0.275 -6.9135,-0.6422 -15.3691,-0.8164 l -15.3731,-0.3183 -0.666,2.8183 c -0.6155,2.6037 -4.5182,14.0562 -11.5234,33.8164 -9.0649,25.5703 -14.8282,31.1217 -17.6133,26.1973 -1.8404,-8.8149 -3.4352,-16.6908 -4.3867,-21.6973 -6.7788,-35.4681 -5.1777,-41.4774 -9.3691,-41.6933 z m -94.2812,7.5176 c -2.7044,0.022 -5.4351,1.0603 -7.5098,3.2812 -4.9855,5.337 -3.2298,10.4579 4.6133,13.4532 3.1494,1.2027 4.6988,2.4405 5.1113,4.084 0.7786,3.1022 1.6776,2.9747 4.7461,-0.6719 2.8455,-3.3817 4.1816,-8.6289 3.1973,-12.5508 -1.2155,-4.8429 -5.651,-7.6315 -10.1582,-7.5957 z m -306.2442,10.0957 c -0.9166,0.9649 -2.1232,2.5494 -2.6816,3.5195 -0.9307,1.6167 -3.3067,1.7644 -28.4551,1.7871 l -27.4375,0.025 2.5898,2.2286 c 3.602,3.0982 4.978,6.0355 4.2266,9.0292 0.5123,10.788 2.1112,7.1696 -0.4727,35.1739 -0.5849,1.5483 -2.2446,4.0539 -3.6875,5.5664 l -2.623,2.75 7.9375,0.064 c 4.3654,0.035 15.8633,0.408 25.5508,0.8281 15.0288,0.6518 18.1107,1.0598 21,2.7852 1.8625,1.1121 3.4823,1.9559 3.5996,1.875 0.1173,-0.081 3.0942,-4.944 6.6152,-10.8067 5.8806,-9.7912 6.1733,-10.5418 3.5996,-9.2109 -1.541,0.7969 -3.111,1.9501 -3.4883,2.5605 -0.3772,0.6105 -2.9924,2.183 -5.8125,3.4961 -4.5881,2.1364 -6.5205,2.3895 -18.3769,2.3985 l -13.25,0.01 0,-9.5313 c 0,-7.4606 0.3188,-9.6544 1.4687,-10.0957 3.314,-1.2717 20.2891,1.4705 25.5235,4.1231 2.8635,1.451 5.4351,2.4086 5.7148,2.1289 0.2798,-0.2797 -1.0633,-3.1217 -2.9844,-6.3164 -1.9212,-3.1948 -4.5185,-7.8336 -5.7714,-10.3086 l -2.2774,-4.5 -1.3535,3.2793 c -1.72,4.1719 -4.9149,5.3813 -13.2461,5.0117 l -6.5742,-0.291 -0.2969,-5.0645 c -0.1627,-2.7854 0.1878,-6.334 0.7774,-7.8848 l 1.0703,-2.8183 12.2246,0.4726 c 12.7358,0.4934 17.8563,1.9049 24.7676,6.8262 1.6258,1.1577 2.957,1.6033 2.957,0.9902 0,-0.613 -2.0608,-4.6865 -4.5781,-9.0507 -2.5173,-4.3643 -4.4255,-8.7305 -4.2403,-9.7032 -0.4433,0.2289 -0.7945,0.4482 -1.1015,0.6602 -0.1557,-0.5504 -0.4428,-1.2158 -0.9141,-2.0078 z m -5.2461,0.209 c -0.1199,-0.063 -0.6498,0.1986 -1.6699,0.7422 -1.2375,0.6594 -2.25,1.4084 -2.25,1.664 0,1.0592 1.8491,0.3498 3.1269,-1.1992 0.6223,-0.7543 0.9129,-1.1435 0.793,-1.207 z m 515.9649,2.8711 c -0.4042,0 -2.0546,2.3625 -3.666,5.25 -4.1097,7.3639 -11.8386,20.1885 -20.6426,34.25 -7.8399,12.5215 -13.51,19.5393 -17.3262,21.4453 -4.4028,2.199 -2.0981,2.9423 9.25,2.9785 6.325,0.02 11.5,-0.257 11.5,-0.6152 0,-0.3583 -0.7042,-1.4304 -1.5644,-2.3809 -2.961,-3.2718 -1.1708,-13.9277 2.3398,-13.9277 2.0782,0 9.1462,7.5716 10.8301,11.6015 1.7775,4.2542 3.0812,4.9657 3.959,2.1622 1.1859,-3.7881 6.4719,-10.8246 8.9961,-11.9747 3.1388,-1.4301 5.0869,0.191 6.4902,5.4024 1.1998,4.4557 0.4621,5.9732 -3.9297,8.0781 -3.1342,1.5022 -3.624,4.467 -0.6211,3.7578 1.1,-0.2598 17.1873,-0.4848 35.75,-0.5 18.5627,-0.015 33.7502,-0.095 33.75,-0.1777 -2e-4,-0.082 -1.5206,-1.669 -3.3769,-3.5254 -3.7519,-3.7519 -5.2641,-10.3939 -3.8301,-16.8242 l 0.7812,-3.5 6.5196,-0.291 c 9.1736,-0.4099 9.5398,0.1572 10.3515,16.0254 0.8728,17.0612 2.369,21.7823 8.9336,28.1914 3.7381,3.6495 6.7589,5.5667 10.7481,6.8242 7.2083,2.2722 16.2314,2.2241 21.3808,-0.1153 4.5793,-2.0803 10.1609,-7.9667 11.0996,-11.707 0.869,-3.4621 -0.1938,-9.3117 -2.0664,-11.3808 -0.8485,-0.9376 -1.541,-2.0599 -1.541,-2.4942 0,-1.1099 92.1921,0.3577 99.5,1.584 3.3,0.5538 7.0507,1.6865 8.3359,2.5156 1.2853,0.8292 2.4651,1.3592 2.6211,1.1778 0.1561,-0.1815 2.4106,-4.6051 5.0098,-9.8301 2.5992,-5.225 5.1876,-10.0625 5.752,-10.75 l -0.2071,-1.1445 c -0.9632,0.3743 -2.6629,1.4428 -4.625,3.0214 -6.5841,5.2975 -9.714,6.1459 -24.5859,6.6563 l -13.6992,0.4687 -0.6035,-2.4023 c -0.3316,-1.3212 -0.3928,-5.5391 -0.1368,-9.375 l 0.4649,-6.9746 7.4961,-0.291 c 8.5496,-0.3313 16.5758,1.9492 22.3476,6.3515 1.9036,1.452 3.6339,2.4677 3.8457,2.2559 0.2119,-0.2118 -2.1401,-5.3078 -5.2265,-11.3242 -4.8811,-9.5149 -5.7344,-10.6642 -6.5528,-8.8301 -1.5673,3.5125 -4.6765,4.4457 -13.7539,4.1309 l -8.4824,-0.293 -0.2969,-7.3789 -0.2968,-7.377 8.7968,0.6348 c 4.838,0.3493 10.5299,0.6116 12.6485,0.582 32.4907,-1.1981 25.4477,-6.4624 -11.711,-9.6133 0.3878,0.2501 -3.9531,0.4227 -10.1406,0.3907 -6.6,-0.034 -20.5083,-0.018 -30.9062,0.037 l -18.9043,0.1015 1.707,2.6074 c 0.9395,1.4339 1.4465,3.4307 1.1269,4.4375 -0.3195,1.0069 -5.1807,6.2726 -10.8027,11.7032 l -10.2207,9.875 -0.3144,-8 c -0.344,-8.7592 0.8367,-14.3222 3.5546,-16.7383 7.5452,-7.4101 2.9239,-5.3412 0.5313,-4.0469 0.417,-0.2462 0.7292,-0.4261 1.498,-0.8945 -2.4876,1.3949 -4.119,0.6711 -17.9492,0.6347 l -16.6797,-0.043 3.3047,2.2442 c 5.1005,3.4659 5.7965,8.3251 1.1973,8.3574 -2.3545,0.016 -9.2042,2.214 -10.291,3.3008 -1.3365,1.3364 -2.0487,0.6371 -3.3418,-3.2813 -0.7198,-2.1809 -2.2661,-4.8643 -3.4375,-5.9648 -4.5909,-4.3129 -9.0494,-4.9451 -35.7832,-5.0723 -13.9094,-0.066 -25.7391,-0.091 -26.2891,-0.055 -0.55,0.036 0.488,0.974 2.3086,2.084 5.0387,3.072 6.1914,7.0373 6.1914,21.3203 -0.017,13.8947 -0.016,5.3822 -1.7187,17.5332 -0.1748,1.0274 -6e-4,10e-5 -1.584,10.2813 -1.7788,0.952 -2.4343,0.6623 -4.6348,-2.0488 -1.4097,-1.7368 -4.1826,-5.0597 -6.1621,-7.3848 -1.9795,-2.3251 -7.3274,-10.5266 -11.8828,-18.2266 -12.3985,-20.9573 -20.3099,-33.5 -21.1328,-33.5 z m 255.1269,50.1055 c 166.8086,-6.2904 83.4043,-3.1452 0,0 z m 0.207,1.1443 c 166.6706,-7.0532 83.3353,-3.5266 0,0 z m -630.1133,-48.7168 c -0.1927,0.011 -0.3925,0.055 -0.6054,0.1231 -1.1,0.3516 -8.3,0.9184 -16,1.2597 -11.9051,0.5278 -14.7254,0.9748 -18.8477,2.9883 -6.6545,3.2504 -8.864,7.0164 -8.3965,14.3086 0.5863,9.1453 3.1376,11.0383 22.1563,16.4395 8.9024,2.5282 12.6808,4.0942 14.3379,5.9453 1.2375,1.3823 2.25,2.9603 2.25,3.5059 0,1.8403 -5.2768,5.8982 -9.1953,7.0722 -5.0852,1.5236 -15.7198,-0.064 -22.9864,-3.4316 -6.4899,-3.0076 -14.8183,-10.2189 -14.8183,-12.8301 0,-2.4906 -2.6857,-2.4842 -3.4766,0.01 -0.8323,2.6224 -7.5072,8.5089 -12.7285,11.2246 -3.3296,1.7318 -6.4867,2.3302 -14.0449,2.6602 l -9.75,0.4258 0.084,-15.3672 c 0.1215,-22.1337 0.8112,-26.4905 4.75,-30.0098 1.7585,-1.5713 3.0778,-2.88 2.9316,-2.9082 -2.8752,-0.5557 -33.7656,-0.9809 -33.7656,-0.4649 0,0.4009 1.0933,1.5899 2.4316,2.6426 3.7097,2.918 4.9594,10.8231 4.1524,26.2617 -0.7514,14.372 -1.8228,17.9531 -6.5743,21.9512 -1.7938,1.5094 -3.0265,2.9794 -2.7382,3.2676 0.2882,0.2882 10.0908,0.7438 21.7832,1.0117 22.7231,0.5208 26.7543,1.2905 29.0312,5.5449 0.9493,1.7737 1.3629,1.9729 1.7246,0.834 0.9694,-3.0521 13.4773,-22.9961 14.4219,-22.9961 0.5388,0 1.9439,1.2181 3.123,2.7071 3.3871,4.2771 13.6104,18.6904 13.9239,19.6308 0.1561,0.4683 1.9897,-0.1556 4.0761,-1.3867 3.3529,-1.9782 4.7439,-2.1772 11.9688,-1.7129 20.9342,1.3454 31.0083,-4.4435 30.8887,-17.7519 -0.1085,-12.0698 -7.9848,-17.95 -28.9317,-21.5977 -4.9573,-0.8633 -6.7393,-1.6584 -7.9843,-3.5586 -1.4959,-2.283 -1.4686,-2.6252 0.4238,-5.1387 1.9554,-2.5973 2.3618,-2.6904 11.4179,-2.6347 8.8403,0.054 9.793,0.2726 16.3086,3.7324 3.8062,2.021 7.0777,3.518 7.2696,3.3262 0.1918,-0.1919 -1.3549,-3.7789 -3.4356,-7.9727 -2.8187,-5.6815 -3.8264,-7.1868 -5.1758,-7.1094 z m 214.3614,0.1563 c -0.5371,0 -1.1887,0.3264 -2.1993,0.8535 -1.9121,0.9974 -6.1708,1.4533 -13.7675,1.4727 -12.8841,0.033 -18.2039,1.8101 -21.4766,7.1757 -3.1315,5.1343 -3.4788,9.0007 -1.2519,13.9551 2.7919,6.2117 5.5334,8.2614 15.8457,11.8438 9.1429,3.1761 16.3828,7.8719 16.3828,10.6269 0,0.81 -1.1051,2.5778 -2.4551,3.9278 -3.1074,3.1074 -9.0735,3.2603 -19.8281,0.5097 -9.5324,-2.4379 -12.0247,-3.7337 -18.7286,-9.7343 -2.9623,-2.6517 -5.1613,-4.3704 -4.8867,-3.8204 0.2746,0.55 3.4001,6.9571 6.9473,14.2383 3.5472,7.2812 6.5278,13.244 6.623,13.25 0.095,0.01 1.5766,-1.3909 3.2911,-3.1054 3.406,-3.4061 2.2919,-3.3359 20.2109,-1.295 6.665,0.7592 14.6674,-0.889 18.3418,-3.7793 3.5114,-2.762 6.4871,-8.9903 6.4609,-13.5195 -0.055,-9.4214 -6.3233,-15.9121 -19.6523,-20.3477 -6.6274,-2.2054 -12.3242,-6.1235 -12.3242,-8.4746 0,-2.3564 4.2726,-4.4668 9.041,-4.4668 6.1298,0 13.4659,2.3046 18.914,5.9434 2.4509,1.6369 4.6616,2.772 4.9122,2.5215 0.4724,-0.4724 -3.5023,-8.2229 -7.5215,-14.666 -1.4043,-2.2511 -1.9838,-3.1184 -2.8789,-3.1094 z m -158.584,1.2363 c -13.1514,-0.092 -24.9977,5.5073 -28.9922,14.8262 -2.3452,5.4712 -2.5816,19.0401 -0.4375,25.1172 2.9289,8.3013 9.302,14.1064 18.3574,16.7226 7.01,2.0253 21.5947,1.2667 26.8047,-1.3945 9.2485,-4.7239 14.3296,-11.3899 16.3691,-21.4766 2.8631,-14.1592 -5.0162,-27.4881 -18.7578,-31.7324 -4.4315,-1.3687 -8.9599,-2.0318 -13.3437,-2.0625 z m 36.9863,1.2402 c -0.6539,0.055 0.1657,0.9038 2.8574,3.2559 5.8899,5.1467 6.6077,8.5325 5.7285,27.0059 -0.3945,8.2892 -1.0913,16.0682 -1.5488,17.2871 -0.4575,1.2189 -2.4185,3.2439 -4.3574,4.5 -1.9389,1.2561 -3.5301,2.6226 -3.5371,3.0351 -0.01,0.4125 5.7145,0.75 12.7148,0.75 l 12.7285,0 -3.6933,-3.0449 c -2.1162,-1.7443 -4.0322,-4.4129 -4.4883,-6.25 -1.2062,-4.858 -0.3645,-30.9027 0.9844,-30.4531 0.6063,0.2021 4.8622,6.4168 9.4551,13.8086 4.5929,7.3918 10.1536,16.2328 12.3574,19.6484 l 4.0058,6.211 8.211,0.3359 c 4.5162,0.185 11.5497,0.4271 15.6289,0.5391 l 7.416,0.205 -3.916,-3.3886 -3.916,-3.3867 0.027,-19.8633 c 0.03,-20.7276 0.4727,-23.2181 4.6465,-26.1797 1.0219,-0.7252 1.625,-1.6967 1.3398,-2.1582 -0.4391,-0.7105 -21.5137,-1.1678 -21.5137,-0.4668 0,0.1336 1.575,1.8172 3.5,3.7422 l 3.5,3.5 0,16.6015 c 0,12.9481 -0.2874,16.5996 -1.3008,16.5996 -0.7145,0 -1.8306,-1.4705 -2.4804,-3.2675 -0.6498,-1.7971 -3.1011,-6.2037 -5.4492,-9.793 -2.3482,-3.5893 -7.1689,-11.3458 -10.711,-17.2344 l -6.4394,-10.7051 -14.0606,-0.014 c -7.7329,-0.01 -15.1836,-0.2947 -16.5586,-0.6367 -0.5306,-0.132 -0.9129,-0.2018 -1.1308,-0.1836 z m -36.2988,5.7051 c 0.3378,-0.016 0.6764,-0.014 1.0137,0.01 4.4964,0.2713 8.8388,3.7761 10.2929,9.5508 3.0511,12.1168 -0.1021,29.0854 -5.9687,32.1192 -3.7994,1.9647 -6.7925,1.8207 -10.6114,-0.5079 -5.2813,-3.2202 -6.812,-7.2234 -6.705,-17.539 0.1135,-10.9483 1.5193,-16.3391 5.3222,-20.4102 1.9407,-2.0775 4.2914,-3.1036 6.6563,-3.2187 z m 503.0097,3.1328 c 5.2002,-0.1404 7.2116,5.9447 6.9122,18.4961 -0.079,3.3 -0.222,10.6325 -0.3184,16.295 -0.1613,9.4777 -0.3693,10.4904 -2.6289,12.75 -1.35,1.35 -3.0375,2.4531 -3.75,2.4511 -3.2732,-0.01 -7.8824,-4.3807 -12.291,-11.6543 -2.6147,-4.3137 -6.4975,-10.4632 -8.6289,-13.666 -2.1314,-3.2028 -3.875,-6.2024 -3.875,-6.666 0,-0.4636 2.8101,-3.3867 6.2461,-6.4961 8.3161,-7.5256 14.2893,-11.4006 18.3339,-11.5098 z m -117.08,2.4961 7.2793,0.064 c 8.4327,0.076 10.1047,1.1597 10.8964,7.0625 0.6717,5.0076 -1.7133,8.1328 -7.1757,9.3985 -5.7896,1.3414 -10.4837,1.185 -11.0801,-0.3692 -0.2836,-0.7389 -0.3801,-4.6764 -0.2168,-8.75 z m 52.3164,6.8321 c 1.338,0.071 2.187,1.0594 2.207,2.8867 0.014,1.2548 0.2252,5.4312 0.4688,9.2812 0.2435,3.85 0.1759,10.4691 -0.1504,14.709 -0.551,7.1595 -0.8483,7.9635 -4.1739,11.2891 -3.4493,3.4493 -3.5003,3.6024 -1.375,4.1582 2.5728,0.6728 2.659,1.1606 0.6739,3.7851 -2.1115,2.7916 -1.8163,4.4756 0.9707,5.5352 2.3609,0.8976 4.5625,3.7707 4.5625,5.957 0,0.5862 -0.9,1.9664 -2,3.0664 -1.3865,1.3865 -3.3038,1.9899 -6.25,1.9688 -8.7673,-0.063 -10.75,-3.8017 -10.75,-20.2774 0,-13.0489 -1.5426,-19.5601 -5.6485,-23.8457 l -2.7617,-2.8847 3.7246,-3.0703 c 2.0493,-1.6892 4.4028,-4.38 5.2305,-5.9805 1.2286,-2.376 2.1497,-2.9102 5.0195,-2.9102 2.0204,0 4.7427,-0.9077 6.4024,-2.1347 1.4725,-1.0887 2.8089,-1.5885 3.8496,-1.5332 z m -126.8633,2.6679 c 0.7837,0 6.0469,7.439 6.0469,8.5469 0,0.3252 1.4057,2.6359 3.125,5.1348 2.5043,3.6399 2.8523,4.7178 1.75,5.416 -0.7568,0.4793 -1.825,0.7854 -2.375,0.6797 -0.55,-0.1057 -5.1625,-0.342 -10.25,-0.5235 -5.35,-0.1908 -9.25,-0.755 -9.25,-1.3398 0,-1.4928 10.0403,-17.9141 10.9531,-17.9141 z m 153.1992,20 c 1.3744,0 6.7576,9.2303 7.4414,12.7598 0.3888,2.0063 0.1568,3.8339 -0.6035,4.75 -1.8852,2.2716 -3.4993,1.8127 -6.7852,-1.9297 -3.8834,-4.423 -5.1389,-10.8905 -2.6484,-13.6426 0.9644,-1.0656 2.132,-1.9375 2.5957,-1.9375 z"
       id="path6304"
       inkscape:connector-curvature="0"
       sodipodi:nodetypes="ssscscscsccccsscssscscsscccsccsscsscsssssscccssssssssssssssccccsscsscccsscccssccccsccsscssssscscccccccsscscscsccssscccccccccccssscccssscssscsssssssssssssscccssssssssscsccsccccccscsscccccccccccccccccccccssssscscccsssscccccccsssssssssscccscsssscsssssssssssssscscsssssssssscscssscsssscssssssssssssssscsccsssccccccccscsscssssccsssscsssssssssscscsssccssccsscsssssssssscccsssssssscssssscssssscsss" />
    <path
       inkscape:connector-curvature="0"
       id="path6365"
       d="m 4117.5,1701.5 12.5,-10.5 -0.5,-90.5 -19,-1 -24,10 9.5,-22.5 90.5,1 9,18 -23.5,-6 -21.5,0 -1,89.5 9.5,12 z"
       style="display:inline;opacity:1;fill:#41472b;fill-opacity:1;fill-rule:evenodd;stroke:none;stroke-width:1px;stroke-linecap:butt;stroke-linejoin:miter;stroke-opacity:1" />
    <path
       sodipodi:nodetypes="ccccccccccccccccccccccccccccccccccccccccccccccccccccccccccccccccccccccccccc"
       inkscape:connector-curvature="0"
       id="path6368"
       d="m 3942.5,1417.5 2,5 24.5,7 31.5,17 10.5,8.5 -16,-3 -4,0.5 1,4 20.5,11.5 19,11.5 11.5,21.5 22,25 30.5,24.5 5.5,36.5 7,24.5 10,6.5 8,-3 -4.5,-14.5 -3,-19.5 1.5,-18 76,64 28,29 19.5,25 6,16.5 0,28 2.5,4.5 8,-4 5,-6.5 11.5,0.5 7.5,19.5 2,17.5 -3,10.5 2,5 10,9.5 4.5,7 2,17 -3.5,8 -18,15 -22.5,15.5 -9.5,11.5 -3.5,16 1.5,7.5 9,-9 25.5,-22 33.5,-19 29,4 38,17 19,12 -7,-23.5 -50,-24.5 -14.5,-9 -5,-4 -3.5,-16.5 5.5,-14.5 4,-17 -2.5,-12.5 -7,-7 -6.5,-4.5 -4.3883,-31.1283 4.051,-10.6549 3.2281,-16.8443 L 4309.5,1639 l -21.5,-27.5 -41,-61.5 -18.5,-36 2,-32 -33,-18 -34.5,-1 -42,3 -38.5,-17 -21.5,-1.5 -19,0.5 -47.5,-17.5 -35,-11 z"
       style="display:inline;opacity:1;fill:#d6c5a8;fill-opacity:1;fill-rule:evenodd;stroke:#000000;stroke-width:1px;stroke-linecap:butt;stroke-linejoin:miter;stroke-opacity:1" />
    <ellipse
       ry="2.6250007"
       rx="2.625"
       cy="1458.875"
       cx="4044.375"
       id="path6375"
       style="display:inline;opacity:0.9;fill:#000000;fill-opacity:1;stroke:#000000;stroke-width:0.30000001;stroke-linejoin:miter;stroke-miterlimit:4;stroke-dasharray:none;stroke-opacity:1" />
    <path
       sodipodi:nodetypes="ccccccccccccccccccccccccccc"
       inkscape:connector-curvature="0"
       id="path6371"
       d="m 4005.6332,1434.6017 22.7541,15.1474 24.7488,6.7175 24.7487,5.3033 13.435,4.9498 26.163,16.9705 34.6482,29.6985 43.1335,32.8805 27.2236,27.5772 28.9914,31.4662 23.3345,33.5876 21.2133,42.4264 11.3137,38.1838 7.571,43.0299 -2.173,-39.8894 -2.9232,-22.2324 -15.2028,-44.1942 -17.6776,-38.1838 -31.4663,-39.9515 -38.1837,-39.9515 -42.4265,-37.1231 -33.5875,-29.345 -18.3848,-12.0208 -36.416,-12.7279 -26.8609,0.879 -16.8572,-3.2067 z"
       style="display:inline;opacity:1;fill:#80816c;fill-opacity:1;fill-rule:evenodd;stroke:none;stroke-width:1px;stroke-linecap:butt;stroke-linejoin:miter;stroke-opacity:1" />
    <path
       sodipodi:nodetypes="ccccccccccccccccccccccccccccccccccccccc"
       inkscape:connector-curvature="0"
       id="path6373"
       d="m 4121.0482,1464.985 11.1457,7.4904 13.7255,11.9918 15.0628,13.1601 29.5336,25.8368 13.4248,11.7467 6.1816,5.8948 8.7487,9.1538 13.4582,14.0813 13.14,13.7483 11.341,14.3992 11.388,14.459 8.7373,11.0933 10.7683,23.2597 8.0751,18.3132 4.5816,13.3184 5.9988,17.4384 2.7525,8.0015 7.4216,-19.52 -0.3535,-19.799 -3.182,-11.6672 -3.5355,-8.1318 -8.8389,-11.3137 -8.4852,-12.0208 -19.354,-27.2429 -14.5614,-21.8421 L 4247,1550 l -12.0356,-23.4206 -5.2307,-10.1786 -0.8503,-8.5357 0.4354,-6.9661 0.594,-9.077 1.7677,-7.4247 0,-6.0104 -20.1525,-10.6066 -25.1023,-5.3033 -29.6985,0.3536 -23.6881,1.7678 z"
       style="display:inline;opacity:1;fill:#95927b;fill-opacity:1;fill-rule:evenodd;stroke:none;stroke-width:1px;stroke-linecap:butt;stroke-linejoin:miter;stroke-opacity:1" />
    <path
       inkscape:connector-curvature="0"
       id="path6382"
       d="m 4119,2262.5 4,-6 4,10.5 7.5,4 6.5,0.5 5.5,-3.5 3,-4 2,-5.5 1,-7 2.5,-3 0.5,16.5 6.5,1.5 2.5,-9.5 2,-6.5 5,-4.5 0,14 1,6.5 6,1 3.5,-4.5 1,-1 8,2.5 5,-1.5 2,-2 5.5,3 6,-3 7,-6.5 -8.5,-3 1,-17.5 -13.5,1 -7,5 -2.5,2.5 -2,4.5 -2,2.5 -2.5,-2 -1,-7 -1.5,-4.5 2.5,-5 -3.5,-3.5 -2.5,1.5 -8,0.5 -3,-1 -1.5,1 -2,3.5 -2.5,4 4.5,4 -7,-0.5 -4.5,5.5 -5.5,-6 -9.5,0.5 -6,7 -5.5,3.5 -3.5,-3 0,-8.5 0.5,-2.5 13,-2 1.5,-6.5 1,-4.5 -4,-2 -2.5,1 -0.5,5.5 -14,-1 -11.5,1 -8,5 -12,-10.5 3,-10 5.5,3.5 5.5,0 0.5,-7 -1,-5.5 -6.5,-3.5 -9.5,-3.5 -13.5,6 -1,9.5 c 0,0 0.5,10 -0.5,12 -1,2 -0.5,7 -0.5,7 l -11.5,-5.5 c 0,0 -3.5,24.5 -3.5,27.5 0,3 1.5,20 1.5,20 l 7,-6.5 -3,30 -5,11.5 11.5,5.5 18.5,2.5 16,1 2,-6.5 c 0,0 -3.5,-18 -4,-20.5 -0.5,-2.5 -8,-23 -8,-23 l 10.5,4 1,-13 3.5,-7.5 7.5,-1.5 -1,11 -2.5,6.5 -5,4.5 12,3.5 12,-3 -5.5,-3.5 z"
       style="fill:#771a18;fill-opacity:1;fill-rule:evenodd;stroke:none;stroke-width:1px;stroke-linecap:butt;stroke-linejoin:miter;stroke-opacity:1" />
    <path
       inkscape:connector-curvature="0"
       id="path6384"
       d="m 3294.5,2223.5 -18.5,3 -33.5,-0.5 -63.5,0 3,5.5 7,-0.5 8.5,-2 8,1.5 9.5,-1 3.5,5.5 4.5,6.5 -2,-12 10,0.5 3.5,4.5 8,-5 c 0,0 5,0 6,2.5 1,2.5 5.5,10.5 5.5,10.5 l 1.5,-6 -2.5,-2.5 7,-2.5 12.5,1.5 -1.5,5.5 -4.5,3.5 0,10 5,1.5 5,-9.5 -0.5,-10.5 -3.5,-4 5.5,-1.5 8.5,7.5 c 0,0 2,4 3,6.5 1,2.5 4,10 4,10 l 7,-18.5 4,-3 10.5,0 0,4 17.5,-4.5 9.5,-0.5 8,5.5 4.5,9 2.5,12 -1,9 -9.5,10.5 -14,1.5 -9,-7 -6.5,-7 -2,-9 0,-4.5 -6,-1.5 0.5,13.5 2,6 2,3.5 -3.5,2.5 -8.5,1 -3,0 c 0,0 -1,-2.5 0,-5 1,-2.5 2,-6 2,-6 l 0,-7 -1.5,2 -5,9 -3.5,2 -2,-5 c 0,0 -0.5,-4.5 -2,-6.5 -1.5,-2 -2,-4.5 -2,-4.5 0,0 -1.5,1 -1.5,3 0,2 0,3.5 0,6 0,2.5 2.5,5.5 3.5,7.5 1,2 1.5,4 1.5,4 0,0 -4.5,0 -6.5,0 -2,0 -6,-0.5 -6,-0.5 l -3.5,-1.5 -2,-5 3,-4 -1,-6.5 -3.5,1 -1.5,4.5 c 0,0 1,0.5 1.5,3.5 0.5,3 -2,5.5 -2,5.5 l -5.5,-2 -7.375,0 -0.25,-5.625 2.125,-4.875 -2.375,-4.375 -3.75,0.875 -5.75,4.75 c 0,0 0.125,2 0.375,2.875 0.25,0.875 3.875,5.625 3.875,5.625 l 2.25,1.875 c 0,0 1.625,1.5 2.125,2.125 0.5,0.625 0.25,2.125 0.25,2.125 l -3.625,0.5 -2.75,-1.5 c 0,0 -1.875,-0.625 -2.375,-0.25 -0.5,0.375 -0.75,0.625 -1.25,0.375 -0.5,-0.25 -1.375,-0.375 -2,-1 -0.625,-0.625 -3.625,-3.375 -3.625,-3.375 0,0 -1.5,-1.375 -2.125,-0.875 -0.625,0.5 -1.5,0.25 -0.875,1.75 0.625,1.5 1.25,2.375 1.375,2.875 0.125,0.5 -0.25,0.875 -3.875,0.875 -3.625,0 -1.625,0.125 -4.375,0 -2.75,-0.125 -4.25,-0.875 -5.75,-1 -1.5,-0.125 -5.25,0.875 -4.5,-1 0.75,-1.875 1.625,-2.25 1.75,-3.625 0.125,-1.375 0.125,-4.25 0.125,-4.25 l -2.5,-2.75 c 0,0 0,-0.75 -4.375,-0.875 -4.375,-0.125 -7,-2 -7.375,-0.5 -0.375,1.5 -1.125,1.5 -0.5,3.5 0.625,2 -0.25,1.25 1,3 1.25,1.75 1.5,1.875 2.5,2.625 1,0.75 3,-0.375 0.75,1.625 -2.25,2 0.625,0.5 -2.625,2.375 -3.25,1.875 -10.75,0.75 -10.75,0.75 l -5.375,-1.25 c 0,0 -0.125,-2.5 0.625,-4.125 0.75,-1.625 -0.125,-1.5 2.25,-3.75 2.375,-2.25 2.375,-9.375 2.375,-9.375 0,0 0,0.125 -0.625,-4.125 -0.625,-4.25 -1,-11.375 -1,-11.375 l 0.25,-2.5 -2.375,-1 c 0,0 -3.5,-0.625 -4.25,0 -0.75,0.625 -2.875,-0.25 -3.5,2.375 -0.625,2.625 0.75,9.125 0.875,10.125 0.125,1 0.25,3.625 0.375,6.375 0.125,2.75 0.875,5.375 0.375,7.625 -0.5,2.25 -3.625,3.125 -3.875,7.25 -0.25,4.125 -0.75,6.125 -0.5,6.625 0.25,0.5 1.75,-0.75 7.375,0.125 5.625,0.875 18.875,-0.25 19.375,-0.125 0.5,0.125 5,-0.125 8.375,0.375 3.375,0.5 7.375,0.5 8.625,0.375 1.25,-0.125 3.375,-0.5 3.375,-0.5 l 14.25,0.375 9.25,0.125 c 0,0 6.625,-0.5 7.25,-0.5 0.625,0 20.25,0.5 20.25,0.5 0,0 13.75,-0.375 14.625,-0.375 0.875,0 4.75,1.25 6.625,1.25 1.875,0 18.5,-1 18.5,-1 l 9.25,1 c 0,0 18.375,-0.25 19.125,-0.25 0.75,0 12.125,1 12.125,1 0,0 6.75,3.75 0.625,4.125 -6.125,0.375 -4,0.375 -12,0.875 -8,0.5 -6.625,0 -14.375,-0.375 -7.75,-0.375 5,-1.625 -11.5,-0.5 -16.5,1.125 -40.25,-0.625 -43.25,0 -3,0.625 -8.25,0.25 -13.625,0 -5.375,-0.25 -9.5,-0.75 -13.625,-0.75 -4.125,0 -26,0.75 -26,0.75 l -49,-1.625 -4,-6 2.75,-14.75 c 0,0 2.25,-7.625 2.5,-8.625 0.25,-1 1.25,-8.125 -1.125,-11.375 -2.375,-3.25 -4.5,-9.25 -4.625,-9.875 -0.125,-0.625 1.5,-8.75 1.5,-8.75 0,0 17.625,-2.25 19,-2 1.375,0.25 17.125,1.25 25.25,1.375 8.125,0.125 13.25,0.25 14.25,0.25 1,0 11.25,-1.75 11.25,-1.75 l 1,-29.375 c 0,0 11,-5.375 12.125,-6.625 1.125,-1.25 2.125,-6.5 9.75,-6.625 7.625,-0.125 7,-1.125 13.375,-0.375 6.375,0.75 8.125,-0.75 12.875,1.375 4.75,2.125 5.25,0 7.625,8 2.375,8 2.5,13.625 2.75,14.75 0.25,1.125 1.25,4.5 0.875,7.375 -0.375,2.875 -0.5,5.125 -0.625,7.125 -0.125,2 -6.25,9.25 -6.25,9.25 z"
       style="fill:#90bffa;fill-opacity:1;fill-rule:evenodd;stroke:none;stroke-width:1px;stroke-linecap:butt;stroke-linejoin:miter;stroke-opacity:1" />
    <path
       inkscape:connector-curvature="0"
       id="path6386"
       d="m 2493.2585,2233.9305 -9.8995,0.3536 c 0,0 1.0607,6.364 1.7678,9.8995 0.7071,3.5355 5.6568,12.0208 6.0104,13.435 0.3535,1.4142 2.1213,7.4246 4.2426,10.6066 2.1214,3.182 -3.1819,1.4142 4.5962,4.9498 7.7782,3.5355 6.364,2.1213 9.546,4.5962 3.1819,2.4748 2.1213,2.1213 8.1317,5.3033 6.0104,3.1819 7.0711,5.3033 14.8492,7.4246 7.7782,2.1213 21.5668,4.2426 25.8094,4.2426 4.2427,0 3.182,-0.3535 15.2028,-2.1213 12.0208,-1.7678 10.2531,-0.7071 16.617,-3.182 6.364,-2.4749 5.3033,-1.0606 10.2531,-5.6568 4.9497,-4.5962 6.364,-6.7175 8.4853,-9.1924 2.1213,-2.4749 7.071,-5.6569 8.8388,-8.4853 1.7678,-2.8284 5.3033,-9.1924 6.0104,-10.9602 0.7071,-1.7677 1.0607,-3.5355 2.1213,-4.9497 1.0607,-1.4142 2.1214,-0.7071 2.1214,-3.8891 0,-3.182 0.3535,-8.8388 0.3535,-12.0208 0,-3.182 -0.3535,-6.7175 -1.4142,-9.8995 -1.0607,-3.182 -1.0607,-3.8891 -2.4749,-7.0711 -1.4142,-3.182 -2.4749,-7.4246 -4.5962,-10.253 -2.1213,-2.8284 -5.6568,-8.1317 -7.7781,-9.546 -2.1214,-1.4142 -4.2427,-4.5962 -7.0711,-6.0104 -2.8284,-1.4142 -6.364,-4.2426 -8.1317,-4.9497 -1.7678,-0.7071 -2.8285,-2.4749 -7.4247,-3.5356 -4.5962,-1.0606 -9.1924,-2.4748 -9.1924,-2.4748 0,0 -13.0814,-3.5356 -20.8596,-3.5356 -7.7782,0 -7.0711,-0.3535 -9.1924,0.3536 -2.1213,0.7071 -1.7678,-0.3536 -11.3137,1.4142 -9.5459,1.7678 -9.8995,1.4142 -12.3744,2.1213 -2.4748,0.7071 -4.9497,1.7678 -4.9497,1.7678 l -14.4957,7.7782 c 0,0 -4.5962,6.0104 -7.0711,8.1317 -2.4748,2.1213 -2.8284,4.2426 -3.182,5.6569 -0.3535,1.4142 0,0 -2.4748,3.5355 -2.4749,3.5355 -3.182,5.3033 -3.5356,6.7175 -0.3535,1.4142 -2.1213,5.3033 -2.8284,8.1317 -0.7071,2.8285 -0.7071,2.8285 -0.7071,2.8285 l 0,4.2426 7.7782,1.0607 2.8284,-11.3138 c 0,0 0.3536,0.3536 0.7071,-2.1213 0.3536,-2.4748 3.5355,-7.4246 4.9498,-8.8388 1.4142,-1.4142 0.3535,-1.0607 2.4748,-2.4749 2.1214,-1.4142 3.8891,-2.4749 3.8891,-2.4749 0,0 0,0 3.5356,-2.8284 3.5355,-2.8284 13.435,-8.8388 13.435,-8.8388 0,0 -0.7071,-0.3536 4.9497,-1.0607 5.6569,-0.7071 5.3033,0.3536 7.7782,-0.7071 2.4749,-1.0606 4.9498,-2.1213 7.4246,-2.8284 2.4749,-0.7071 4.2427,-1.0607 4.2427,-1.0607 0,0 2.4748,-0.7071 6.3639,-0.3535 3.8891,0.3535 7.0711,1.0606 7.0711,1.0606 0,0 -4.5962,-1.0606 3.5355,1.7678 8.1318,2.8284 13.7886,4.9498 13.7886,4.9498 0,0 8.4853,0.7071 10.9602,1.7677 2.4748,1.0607 9.5459,4.9498 9.5459,4.9498 0,0 1.0607,1.7677 4.5962,4.9497 3.5355,3.182 8.4853,9.546 8.4853,9.546 0,0 1.4142,5.3033 1.4142,6.7175 0,1.4142 2.8284,15.9099 2.8284,15.9099 0,0 -0.3535,6.0104 -0.7071,7.7781 -0.3535,1.7678 -1.7677,7.4247 -1.7677,7.4247 l -7.0711,7.7781 -5.3033,6.0104 c 0,0 -3.182,4.2427 -4.9498,5.3034 -1.7677,1.0606 -10.9601,7.7781 -10.9601,7.7781 0,0 -9.8995,0.7071 -11.6673,1.0607 -1.7677,0.3535 -27.5771,4.5962 -27.5771,4.5962 l -13.7886,-3.8891 -17.6777,-6.364 -8.8388,-8.1317 -9.1924,-10.9602 -4.5962,-8.1317 -2.4749,-11.6672 z"
       style="fill:#6a1f1e;fill-opacity:1;fill-rule:evenodd;stroke:none;stroke-width:1px;stroke-linecap:butt;stroke-linejoin:miter;stroke-opacity:1" />
    <path
       inkscape:connector-curvature="0"
       id="path6388"
       d="m 2500.9483,2238.2616 c 0,0 3.6239,5.6568 3.9775,6.0104 0.3535,0.3535 1.5026,2.5632 2.1213,3.182 0.6187,0.6187 3.8007,2.5632 4.1542,2.5632 0.3536,0 2.8285,-1.7678 3.182,-2.1213 0.3536,-0.3536 0.7071,-0.9723 1.1491,-1.7678 0.4419,-0.7955 0.9723,-1.8561 1.149,-2.2097 0.1768,-0.3535 1.1491,-1.8561 1.7678,-2.6516 0.6187,-0.7955 0.7071,-1.5026 1.0607,-1.8562 0.3535,-0.3535 1.2374,-2.1213 1.5026,-2.9168 0.2651,-0.7955 0.4419,-1.2374 0.4419,-1.2374 l 1.591,-0.7071 c 0,0 1.3258,-0.5304 1.7678,-0.7072 0.4419,-0.1767 0.7071,3.182 0.7955,3.7124 0.088,0.5303 0.4419,0.7955 0.6187,1.6793 0.1767,0.8839 0,1.6794 0.7071,2.3865 0.7071,0.7071 1.6794,1.2375 3.182,0.8839 1.5026,-0.3535 2.4748,-0.7955 3.0052,-0.7955 0.5303,0 1.6793,0.088 2.1213,0 0.4419,-0.088 0.6187,-0.2652 0.6187,-0.2652 l 0.9723,-3.0052 c 0,0 -1.3259,-0.2651 -2.4749,-0.2651 -1.1491,0 -1.591,0.2651 -2.0329,-0.088 -0.442,-0.3536 -1.4142,-1.1491 -1.7678,-1.591 -0.3536,-0.4419 -0.5303,-0.7955 -0.7071,-1.3258 -0.1768,-0.5304 -0.442,-2.4749 -0.442,-2.4749 l 1.5027,-1.503 4.331,-0.4419 1.7677,0.3535 c 0,0 0.1768,3.2704 0.1768,3.6239 0,0.3536 0.442,4.5078 0.442,4.5078 l 0.7071,2.033 1.3258,0.6187 1.5026,0.5303 3.2704,-0.6187 c 0,0 0.088,-0.3536 -0.088,-0.9723 -0.1768,-0.6187 -0.3536,-2.2981 -0.2652,-2.74 0.088,-0.442 0.5303,-4.0659 0.5303,-4.0659 l 0.088,-2.2097 0.6188,-0.9723 1.9445,-0.7071 c 0,0 -1.1491,0.442 -0.7955,0.1768 0.3536,-0.2652 1.2374,-2.4749 1.2374,-2.4749 l 1.7678,1.2375 c 0,0 -0.088,2.2097 -0.088,2.8284 0,0.6187 0,3.0936 -0.088,4.2426 -0.088,1.1491 -0.088,3.7124 0,4.0659 0.088,0.3536 1.4142,0.1768 1.4142,0.1768 l 1.8562,-1.3258 0.6187,-1.1491 0.8839,-0.7955 -0.2652,-2.2981 -0.2651,-2.2981 0.3535,-0.7071 0.7955,2.2981 2.2981,0.7955 c 0,0 0.1768,0.2652 0.5303,0.2652 0.3536,0 2.3865,-0.1768 2.3865,-0.1768 l 1.7678,-0.6187 1.7678,-1.6794 1.149,-0.3536 0.2652,6.5408 2.6516,0.7071 1.3259,-0.9723 0.7071,-3.4471 c 0,0 0.2651,-2.1213 0.6187,-2.2981 0.3535,-0.1768 2.0329,-0.6187 2.0329,-0.6187 0,0 -0.6187,4.5078 -0.6187,4.8613 0,0.3536 0.4419,2.6517 0.6187,3.0052 0.1768,0.3536 1.0607,1.5026 1.0607,1.5026 0,0 2.2097,-0.6187 2.2097,-0.9722 0,-0.3536 0,-1.5027 0.088,-1.8562 0.088,-0.3536 0.1767,-1.8562 0.7955,-2.2097 0.6187,-0.3536 1.9445,-0.442 2.8284,-0.7071 0.8839,-0.2652 2.2981,-0.6187 2.6516,-0.7955 0.3536,-0.1768 3.2704,-0.6187 3.2704,-0.6187 0,0 -0.2652,-0.1768 0.1768,-0.8839 0.4419,-0.7071 0.3535,-0.2652 0.7071,-1.1491 0.3535,-0.8838 0.5303,-1.149 0.5303,-1.149 0,0 1.8562,3.182 1.9446,3.7123 0.088,0.5303 0.2651,2.3865 0.2651,3.3588 0,0.9722 0.1768,3.1819 0.2652,4.4194 0.088,1.2374 1.149,1.591 1.149,1.591 0,0 0.7072,0 1.3259,0.088 0.6187,0.088 2.3865,-0.1768 2.2097,-0.7072 -0.1768,-0.5303 -0.6187,-1.6793 -0.6187,-2.4748 0,-0.7955 0.2651,-1.3259 0.2651,-2.5633 0,-1.2374 0.088,-3.0936 0.088,-3.5355 0,-0.442 -0.088,-2.6517 -0.088,-2.6517 l 1.2375,0.2652 0.5303,1.5026 c 0,0 0.6187,3.7123 0.7071,4.1542 0.088,0.442 0,2.8285 -0.2652,3.5356 -0.2651,0.7071 -0.8838,3.0936 -0.8838,3.0936 l 2.4748,0.088 c 0,0 1.2375,-3.0936 1.5026,-3.7124 0.2652,-0.6187 1.591,-4.0658 1.591,-4.0658 l 9.0156,1.7677 1.0607,9.8112 c 0,0 0.7955,0.7071 1.2374,0.7071 0.442,0 2.9168,-0.442 3.0052,-0.7955 0.088,-0.3536 0.5304,-2.033 0.6187,-3.0936 0.088,-1.0607 -0.5303,-3.5356 -1.149,-5.922 -0.6187,-2.3865 -0.8839,-5.6569 -1.1491,-6.7176 -0.2651,-1.0606 -1.3258,-5.48 -1.3258,-6.8059 0,-1.3258 0.442,-3.0936 -0.2651,-4.8613 -0.7071,-1.7678 -1.9446,-7.0711 -1.9446,-7.0711 0,0 -1.3258,-1.6794 -1.8561,-1.8561 -0.5304,-0.1768 -0.442,-0.8839 -2.3865,-0.7071 -1.9446,0.1767 -3.182,0.4419 -3.6239,1.6793 -0.442,1.2375 -1.1491,3.5356 -1.1491,4.2427 0,0.7071 0.2652,1.0606 -0.4419,3.8891 -0.7071,2.8284 -1.5026,5.48 -1.7678,6.0988 -0.2652,0.6187 0,0.4419 -0.7071,2.2097 -0.7071,1.7677 -1.8562,1.149 -1.8562,1.149 l -2.5632,-1.5026 c 0,0 0,-3.0936 0,-3.5355 0,-0.442 0,-2.7401 0,-2.7401 l -1.7678,-2.0329 -0.7071,0 c 0,0 -1.5026,0.3536 -1.5026,0.7955 0,0.4419 -0.2652,1.591 -0.2652,2.6516 0,1.0607 -0.088,4.1543 -0.088,4.1543 l -0.7071,0.6187 -1.591,-0.3535 0.1768,-1.7678 -1.6794,-2.2097 -1.8561,-1.9446 -1.591,-1.0606 -6.364,-0.2652 -1.8561,1.7678 -1.4142,3.0936 0.2651,2.5632 -1.3258,0.9723 -1.7678,-0.3535 -0.7955,-1.4143 0.3536,-2.3864 -0.2652,-1.1491 -2.0329,-1.3258 -1.591,1.0606 -1.3258,2.1214 -1.0607,1.6793 -1.3258,1.7678 -3.5355,0.442 -1.2375,-1.9446 -2.3865,-3.0936 -1.149,-1.9445 -1.591,0 -1.7678,1.7677 0.088,1.591 -1.0606,-1.4142 0.2651,-1.149 -0.7071,-3.0052 -1.5026,0.3535 -3.182,2.6517 c 0,0 0.5304,0.7955 0,1.4142 -0.5303,0.6187 -1.9445,1.7678 -1.9445,1.7678 0,0 -1.5026,-1.7678 -1.9445,-2.5633 -0.442,-0.7955 -1.8562,-2.9168 -1.8562,-2.9168 l -1.9445,-1.7678 c 0,0 -2.033,0.1768 -2.4749,0.6187 -0.442,0.442 -0.7071,-0.6187 -0.442,1.1491 0.2652,1.7677 0.3536,1.7677 0.6188,2.2981 0.2651,0.5303 0.7955,1.6794 1.0606,2.2981 0.2652,0.6187 1.0607,0.4419 0.088,1.0606 -0.9723,0.6187 0.2652,0.5304 -1.6794,0.8839 -1.9445,0.3536 -2.3865,0.6187 -2.4748,0.1768 -0.088,-0.442 -1.6794,-4.4194 -1.3259,-5.3033 0.3536,-0.8839 0.6187,-2.2097 0.442,-3.182 -0.1768,-0.9723 -1.5026,-1.4142 -1.5026,-1.4142 0,0 -1.591,-0.4419 -1.6794,0 -0.088,0.4419 -0.7955,1.4142 -0.8839,2.0329 -0.088,0.6187 0.3536,2.5633 0.1768,3.4472 -0.1768,0.8839 -0.5303,2.1213 -0.5303,2.1213 l -2.6517,-1.8562 c 0,0 -1.591,-2.74 -2.1213,-3.7123 -0.5303,-0.9722 -3.4472,-4.5078 -3.7123,-4.8613 -0.2652,-0.3536 -2.033,-2.3865 -2.5633,-2.8285 -0.5303,-0.4419 -1.6794,-1.4142 -1.6794,-1.4142 l -2.74,0.088 c 0,0 -5.3917,5.3033 -5.4801,5.6569 -0.088,0.3535 -2.6516,5.48 -2.6516,5.48 l -2.7401,5.0382 0.1768,4.0658 1.4142,4.2427 z"
       style="fill:#436081;fill-opacity:1;fill-rule:evenodd;stroke:none;stroke-width:1px;stroke-linecap:butt;stroke-linejoin:miter;stroke-opacity:1" />
    <path
       inkscape:connector-curvature="0"
       id="path6390"
       d="m 2026.568,2190.797 c 0,0 -8.1317,-8.1317 -9.5459,-8.8388 -1.4142,-0.7071 -10.9602,-6.0104 -12.7279,-5.6569 -1.7678,0.3536 -10.9602,1.4142 -14.1422,2.8285 -3.1819,1.4142 -9.5459,0 -10.9601,4.2426 -1.4142,4.2426 -4.9498,15.5564 -4.5962,19.799 0.3535,4.2426 -1.4142,3.5355 1.4142,10.9601 2.8284,7.4247 5.6569,14.8493 5.6569,14.8493 0,0 9.1923,5.6568 12.0208,6.7175 2.8284,1.0607 8.1317,1.4142 11.6672,1.4142 3.5356,0 4.5962,-0.3535 7.7782,-1.7677 3.182,-1.4143 5.3033,-3.5356 7.0711,-5.3033 1.7677,-1.7678 4.5962,-6.7176 4.5962,-6.7176 l 2.4748,-1.0606 14.8493,10.9601 4.2426,6.7175 8.4853,2.8285 10.2531,-3.8891 1.7677,-2.4749 c 0,0 -1.0606,-6.0104 -3.182,-7.7782 -2.1213,-1.7677 -4.9497,-4.9497 -6.3639,-6.0104 -1.4142,-1.0606 -4.9498,-4.2426 -6.364,-6.7175 -1.4142,-2.4749 -3.182,-5.6568 -3.182,-5.6568 l 15.5564,-0.7071 c 0,0 16.617,0.3535 22.981,0.7071 6.3639,0.3535 13.0814,-4.2427 13.0814,-4.2427 l 6.0104,4.5962 5.3033,0.3536 -10.6066,5.6568 -1.4142,6.7175 8.4853,0 6.7175,-6.0104 14.4957,-3.182 5.6569,-6.7175 -2.1214,-4.9497 c 0,0 -2.4748,-1.0607 -1.7677,-2.8284 0.7071,-1.7678 1.4142,-6.7176 1.4142,-6.7176 l -4.5962,-1.0606 -7.7782,0 -9.8995,-1.0607 2.1214,-7.7782 c 0,0 -4.5962,-3.5355 -6.0105,-1.7677 -1.4142,1.7677 -1.0606,7.4246 -2.4748,8.4853 -1.4142,1.0606 -8.8389,6.0104 -8.8389,6.0104 l -3.5355,2.1213 -5.3033,-5.6569 -6.364,0 9.8995,-3.889 c 0,0 -0.7071,-6.7176 0,-8.8389 0.7071,-2.1213 -2.1213,-11.6672 -2.1213,-11.6672 l -5.6568,-4.2427 -20.1526,-2.1213 -8.1317,6.364 -5.6569,2.8284 -4.2426,-7.7782 -5.3033,1.4142 c 0,0 2.1213,6.0104 2.4749,7.4246 0.3535,1.4143 3.1819,6.7176 3.1819,6.7176 0,0 -2.8284,1.7677 -4.2426,3.5355 -1.4142,1.7678 -10.253,11.3137 -10.253,11.3137 z"
       style="fill:#6f1718;fill-opacity:1;fill-rule:evenodd;stroke:none;stroke-width:1px;stroke-linecap:butt;stroke-linejoin:miter;stroke-opacity:1" />
    <path
       inkscape:connector-curvature="0"
       id="path6392"
       d="m 1477.8532,2244.8907 -8.4853,7.7782 -7.0711,2.1213 -9.8995,-6.364 -3.5355,6.364 2.1213,5.6568 c 0,0 5.6569,4.2427 8.4853,4.2427 2.8284,0 13.435,-1.4142 17.6777,-1.4142 4.2426,0 12.7279,-14.8493 12.7279,-14.8493 l 2.8284,-9.1924 6.364,-14.1421 4.2426,13.435 4.9498,14.1422 10.6066,6.3639 8.4852,0 7.0711,-4.9497 1.4142,-4.2427 -6.3639,-2.1213 -4.2427,0 -9.8995,-0.7071 -2.8284,-10.6066 12.0208,4.2427 45.2549,1.4142 -4.2427,-13.4351 2.8284,-4.2426 c 0,0 -7.7781,-4.9498 -11.3137,-4.2426 -3.5355,0.7071 -40.3051,2.1213 -40.3051,2.1213 l 10.6066,-15.5564 3.5356,-17.6776 -7.0711,-12.728 -12.0208,-5.6568 -15.5564,-2.1213 -15.5563,2.8284 -11.3137,6.3639 -12.0208,7.7782 c 0,0 -4.9498,4.9498 -4.9498,9.1924 0,4.2427 1.4142,18.3848 1.4142,18.3848 l 17.6777,8.4853 5.6569,2.8284 5.6568,-9.1924 -0.7071,8.4853 -9.1924,5.6568 -9.8995,-6.3639 -56.5685,2.1213 -4.9498,6.364 -0.7071,9.8995 12.0208,4.2426 16.9706,-2.8284 26.8701,0.7071 15.5563,-2.1213 3.5356,-6.364 10.6066,-2.1213 z"
       style="fill:#a62827;fill-opacity:1;fill-rule:evenodd;stroke:none;stroke-width:1px;stroke-linecap:butt;stroke-linejoin:miter;stroke-opacity:1" />
    <path
       style="fill:#4b3d26;fill-opacity:1;fill-rule:evenodd;stroke:none;stroke-width:1px;stroke-linecap:butt;stroke-linejoin:miter;stroke-opacity:1"
       d="m 595.10399,1360.0962 -39.44368,58.9071 -9.06677,448.2924 38.89087,0 z"
       id="path4346"
       inkscape:connector-curvature="0"
       sodipodi:nodetypes="ccccc" />
    <path
       style="fill:none;fill-rule:evenodd;stroke:#000000;stroke-width:9.30000267;stroke-linecap:butt;stroke-linejoin:miter;stroke-opacity:1;stroke-miterlimit:4;stroke-dasharray:none"
       d="m 3679.0765,2353.7852 0,45.2548 z"
       id="path4348"
       inkscape:connector-curvature="0" />
    <path
       inkscape:connector-curvature="0"
       id="path4350"
       d="m 3707.3608,2354.4923 0,45.2548 z"
       style="fill:none;fill-rule:evenodd;stroke:#000000;stroke-width:9.30000305;stroke-linecap:butt;stroke-linejoin:miter;stroke-miterlimit:4;stroke-dasharray:none;stroke-opacity:1" />
    <path
       style="fill:none;fill-rule:evenodd;stroke:#000000;stroke-width:9.30000305;stroke-linecap:butt;stroke-linejoin:miter;stroke-miterlimit:4;stroke-dasharray:none;stroke-opacity:1"
       d="m 1656.0441,2341.0573 0,45.2548 z"
       id="path4352"
       inkscape:connector-curvature="0" />
  </g>
</svg>
