<?xml version="1.0" encoding="UTF-8" standalone="no"?>
<!-- Created with Inkscape (http://www.inkscape.org/) -->

<svg
   xmlns:dc="http://purl.org/dc/elements/1.1/"
   xmlns:cc="http://creativecommons.org/ns#"
   xmlns:rdf="http://www.w3.org/1999/02/22-rdf-syntax-ns#"
   xmlns:svg="http://www.w3.org/2000/svg"
   xmlns="http://www.w3.org/2000/svg"
   xmlns:sodipodi="http://sodipodi.sourceforge.net/DTD/sodipodi-0.dtd"
   xmlns:inkscape="http://www.inkscape.org/namespaces/inkscape"
   id="svg5821"
   version="1.1"
   inkscape:version="0.91 r13725"
   width="549.83264"
   height="634.58258"
   viewBox="0 0 549.83264 634.58258"
   sodipodi:docname="fruitsign.svg">
  <metadata
     id="metadata5827">
    <rdf:RDF>
      <cc:Work
         rdf:about="">
        <dc:format>image/svg+xml</dc:format>
        <dc:type
           rdf:resource="http://purl.org/dc/dcmitype/StillImage" />
        <dc:title></dc:title>
      </cc:Work>
    </rdf:RDF>
  </metadata>
  <defs
     id="defs5825">
    <clipPath
       clipPathUnits="userSpaceOnUse"
       id="clipPath8649">
      <path
         style="opacity:0.45;fill:#378010;fill-opacity:1;fill-rule:evenodd;stroke:none;stroke-width:1px;stroke-linecap:butt;stroke-linejoin:miter;stroke-opacity:1"
         d="m 2149.215,1167.5059 0,7.3041 6.5458,-3.5922 0,-7.5436 z"
         id="path8651"
         inkscape:connector-curvature="0" />
    </clipPath>
  </defs>
  <sodipodi:namedview
     pagecolor="#ffffff"
     bordercolor="#666666"
     borderopacity="1"
     objecttolerance="10"
     gridtolerance="10"
     guidetolerance="10"
     inkscape:pageopacity="0"
     inkscape:pageshadow="2"
     inkscape:window-width="1448"
     inkscape:window-height="865"
     id="namedview5823"
     showgrid="false"
     inkscape:zoom="0.39147287"
     inkscape:cx="-151.7466"
     inkscape:cy="250.01942"
     inkscape:window-x="0"
     inkscape:window-y="0"
     inkscape:window-maximized="0"
     inkscape:current-layer="svg5821"
     fit-margin-top="0"
     fit-margin-left="0"
     fit-margin-right="0"
     fit-margin-bottom="0" />
  <rect
     y="12.735601"
     x="504.9324"
     height="543.68811"
     width="9.0313644"
     id="rect8921"
     style="opacity:1;fill:#999d9a;fill-opacity:1;stroke:#000000;stroke-width:3.20000005;stroke-linejoin:miter;stroke-miterlimit:4;stroke-dasharray:none;stroke-opacity:1" />
  <rect
     style="opacity:1;fill:#999d9a;fill-opacity:1;stroke:#000000;stroke-width:3.20000005;stroke-linejoin:miter;stroke-miterlimit:4;stroke-dasharray:none;stroke-opacity:1"
     id="rect8895"
     width="9.0313644"
     height="543.68811"
     x="30.932419"
     y="12.735601" />
  <g
     id="g8923"
     transform="translate(-767.44014,-1312.8883)">
    <g
       transform="translate(0,-458.3849)"
       id="g8915">
      <path
         sodipodi:nodetypes="ccccc"
         inkscape:connector-curvature="0"
         id="path8917"
         d="m 771.27847,1771.7732 545.49433,0 0,117.4078 -545.49432,0 z"
         style="opacity:1;fill:#ffffff;fill-opacity:1;fill-rule:evenodd;stroke:#000000;stroke-width:1px;stroke-linecap:butt;stroke-linejoin:miter;stroke-opacity:1" />
      <path
         inkscape:connector-curvature="0"
         id="path8919"
         d="m 770.03666,1771.7732 0,118.5367 546.96194,0 -3.1609,3.161 -546.39756,0 0,-119.6656 z"
         style="fill:#1e2b23;fill-opacity:1;fill-rule:evenodd;stroke:none;stroke-width:1px;stroke-linecap:butt;stroke-linejoin:miter;stroke-opacity:1" />
    </g>
    <g
       id="g8852">
      <g
         id="g8508"
         transform="translate(0.23774981,0)">
        <g
           transform="translate(0,-0.83363692)"
           id="g8451">
          <path
             style="fill:#000000;fill-opacity:1;fill-rule:evenodd;stroke:none;stroke-width:1px;stroke-linecap:butt;stroke-linejoin:miter;stroke-opacity:1"
             d="m 893.60587,1378.7029 -3.00245,2.2316 -0.97373,1.7041 -0.3247,2.0287 0.97391,1.5419 2.02864,0.568 1.29842,0.1623 3.97637,-0.568 7.62794,-2.4345 4.86901,-2.9213 6.41078,-3.4895 5.84265,-2.6779 3.73293,-2.7591 1.86647,-3.1648 0.81138,-3.0836 0.32461,-1.7042 -4.86892,1.5418 -4.54441,1.3796 -6.00491,2.3534 -5.76165,2.272 -4.86892,2.3535 -5.68048,2.8401 -3.81402,1.7853 z"
             id="path5881"
             inkscape:connector-curvature="0"
             sodipodi:nodetypes="cccccccccccccccccccccccc" />
          <g
             id="g6704"
             transform="matrix(1.0137489,0,0,1.0137489,-23.521369,-19.391167)">
            <path
               inkscape:connector-curvature="0"
               style="fill:#000000"
               d="m 926.47113,1404.0557 c -2.3539,-2.3539 -2.5,-4.1667 -2.5,-31.0111 0,-22.8474 0.3573,-28.9931 1.7986,-30.9375 1.6061,-2.1667 2.0041,-2.2243 3.7186,-0.5381 1.5524,1.5267 2.0803,7.05 2.7566,28.8438 0.8235,26.5384 0.2707,36.1429 -2.0804,36.1429 -0.6564,0 -2.3184,-1.125 -3.6934,-2.5 z"
               id="path6181" />
            <path
               inkscape:connector-curvature="0"
               id="path6183"
               d="m 904.11963,1407.8873 c -2.3539,-2.3539 -2.5,-4.1667 -2.5,-31.0111 0,-22.8474 0.3573,-28.9931 1.7986,-30.9375 1.6061,-2.1667 2.0041,-2.2243 3.7186,-0.5381 1.5524,1.5267 2.0803,7.05 2.7566,28.8438 0.8235,26.5384 0.2707,36.1429 -2.0804,36.1429 -0.6564,0 -2.3184,-1.125 -3.6934,-2.5 z"
               style="fill:#000000" />
          </g>
          <g
             transform="matrix(1.0137489,0,0,1.0137489,-23.521369,-19.391167)"
             id="g6714">
            <path
               id="path6716"
               d="m 926.47113,1404.0557 c -2.3539,-2.3539 -2.5,-4.1667 -2.5,-31.0111 0,-22.8474 0.3573,-28.9931 1.7986,-30.9375 1.6061,-2.1667 2.0041,-2.2243 3.7186,-0.5381 1.5524,1.5267 2.0803,7.05 2.7566,28.8438 0.8235,26.5384 0.2707,36.1429 -2.0804,36.1429 -0.6564,0 -2.3184,-1.125 -3.6934,-2.5 z"
               style="fill:#000000"
               inkscape:connector-curvature="0" />
            <path
               style="fill:#000000"
               d="m 904.11963,1407.8873 c -2.3539,-2.3539 -2.5,-4.1667 -2.5,-31.0111 0,-22.8474 0.3573,-28.9931 1.7986,-30.9375 1.6061,-2.1667 2.0041,-2.2243 3.7186,-0.5381 1.5524,1.5267 2.0803,7.05 2.7566,28.8438 0.8235,26.5384 0.2707,36.1429 -2.0804,36.1429 -0.6564,0 -2.3184,-1.125 -3.6934,-2.5 z"
               id="path6718"
               inkscape:connector-curvature="0" />
          </g>
        </g>
        <path
           inkscape:connector-curvature="0"
           style="fill:#000000"
           d="m 955.75867,1341.0275 c -3.32778,-0.024 -5.98042,2.4079 -9.04914,7.7811 -5.18978,9.0869 -7.84814,21.5497 -7.84814,36.7858 0,12.5428 0.004,12.5583 4.42193,16.9764 10.82634,10.8264 23.72276,1.5435 27.41762,-19.7341 3.12813,-18.0132 -1.24282,-35.8327 -9.88431,-40.3013 -1.89466,-0.9798 -3.54545,-1.497 -5.05796,-1.5079 z m 1.30661,7.9416 c 0.97729,-0.1619 1.9703,0.9161 3.1275,3.154 5.3678,10.3801 5.12964,30.7866 -0.48777,41.7928 -1.29765,2.5425 -3.5775,5.7257 -5.06607,7.0719 -2.66429,2.4096 -2.72516,2.3994 -3.85905,-0.6503 -3.66031,-9.8446 -2.62652,-30.0016 2.27808,-44.4306 1.52031,-4.4729 2.75085,-6.7295 4.00731,-6.9378 z"
           id="path6696" />
        <path
           inkscape:connector-curvature="0"
           style="fill:#000000"
           d="m 1025.518,1404.5237 c -1.9537,-2.8827 -2.4048,-6.4158 -2.9193,-22.8677 l -0.6085,-19.4581 -6.534,19.4581 c -3.5938,10.7021 -7.1923,20.162 -7.9968,21.0222 -1.1834,1.2652 -2.0551,1.0978 -4.5652,-0.8766 -2.9526,-2.3225 -5.90471,-11.0209 -10.55912,-31.1132 -0.86342,-3.7273 -1.15726,-0.3756 -1.25355,14.3002 -0.0711,10.877 -0.61397,19.1683 -1.25452,19.1683 -0.62079,0 -2.27362,-1.4556 -3.67302,-3.2347 -2.43777,-3.0991 -2.53076,-4.4117 -2.21812,-31.3387 l 0.32616,-28.104 3.42046,-0.3923 c 1.88125,-0.2156 4.15487,0.2173 5.05246,0.9623 1.71241,1.4212 4.75034,12.0168 9.20415,32.1026 1.4614,6.5907 3.0798,11.5197 3.5963,10.9533 0.5166,-0.5663 3.7557,-9.7923 7.198,-20.5022 3.4424,-10.7099 6.6608,-20.1069 7.1521,-20.8822 0.4913,-0.7753 2.9212,-1.79 5.3998,-2.255 4.059,-0.7615 4.5786,-0.5581 5.2329,2.0488 0.3995,1.5919 0.561,16.135 0.3588,32.3182 -0.3912,31.3173 -1.0798,35.0043 -5.359,28.6907 z"
           id="path6698" />
        <path
           inkscape:connector-curvature="0"
           style="fill:#000000"
           d="m 1049.279,1404.5327 c -1.5214,-2.0648 -3.0656,-5.5997 -3.4317,-7.8554 -0.4659,-2.8709 -1.2953,-4.1013 -2.7647,-4.1013 -3.6292,0 -4.0147,-3.8568 -0.6317,-6.3211 2.9415,-2.1425 3.0426,-2.6484 3.0426,-15.2204 0,-10.6263 -0.3191,-13.0042 -1.745,-13.0042 -0.9597,0 -2.2984,-1.0342 -2.9749,-2.2983 -0.9947,-1.8586 -0.6796,-2.7316 1.646,-4.5609 1.582,-1.2443 3.0547,-3.8237 3.2728,-5.7322 0.4874,-4.2635 3.5204,-5.1084 6.5738,-1.8311 2.224,2.3873 2.2265,2.3872 12.2572,-0.5291 11.0116,-3.2013 14.3245,-3.5793 14.3245,-1.6339 0,3.0002 -7.0773,8.0264 -14.9053,10.5856 -4.578,1.4965 -8.7429,3.1008 -9.2552,3.5648 -0.5124,0.464 -0.5655,6.0525 -0.1179,12.4188 0.7011,9.9741 1.077,11.4634 2.7184,10.7668 6.5538,-2.7817 19.7018,-7.5196 20.0107,-7.2109 0.2028,0.2029 -0.231,2.0893 -0.9641,4.1921 -1.1053,3.1707 -3.0948,4.7083 -11.6557,9.0079 -10.3047,5.1751 -10.323,5.1926 -10.287,9.7712 0.02,2.5226 0.572,4.4605 1.2271,4.3063 0.6552,-0.1542 5.6987,-1.9127 11.2077,-3.9078 5.5092,-1.9951 10.466,-3.477 11.0152,-3.2933 0.5493,0.1836 0.062,2.2016 -1.0823,4.4842 -2.3859,4.7584 -12.3917,10.5153 -20.0478,11.5348 -4.1866,0.5575 -4.9509,0.2353 -7.4327,-3.1326 z"
           id="path6702" />
      </g>
      <g
         style="stroke:#000000;stroke-width:4.34882069;stroke-miterlimit:4;stroke-dasharray:none;stroke-opacity:1"
         transform="matrix(0.88770304,0,0,1.0012833,-716.56966,191.13203)"
         id="g8700">
        <path
           inkscape:connector-curvature="0"
           id="path8583"
           d="m 2162.8246,1150.9799 7.7896,-0.1129 4.7414,-1.5805 4.4028,-1.5805 4.5157,-0.6774 5.5317,-0.2257 4.6286,0.4515 4.177,1.129 4.2899,2.3707 6.4348,3.4996 4.0642,4.5157 3.6125,5.4188 c 0,0 2.4836,5.7575 2.4836,6.322 0,0.5645 1.1289,6.6606 1.1289,6.6606 l 1.0161,5.0802 -0.2258,7.2251 -1.8063,4.8543 -2.032,4.6286 -0.6774,3.6125 -0.1129,2.5966 -0.5644,1.6933 -3.6126,2.145 -6.2091,3.0481 -4.177,0.3386 -8.6926,2.2579 -5.9833,0.7902 -5.5317,-1.016 -3.3868,0.9031 -4.177,1.5805 -5.8704,0.5645 -6.0962,0 -4.7414,-0.7903 -5.7575,-2.8223 -4.2899,-4.2899 -3.9512,-5.193 -2.5966,-3.9512 -2.4836,-3.7255 -3.0481,-4.5156 c 0,0 -2.032,-2.7094 -2.3707,-3.161 -0.3387,-0.4516 -3.9512,-5.193 -3.9512,-5.193 l -2.2579,-4.177 -0.9031,-5.306 2.1449,-6.6606 3.6126,-6.322 4.5157,-5.3059 5.193,-3.161 6.7735,-1.5805 5.9833,-0.2257 6.8864,0.2257 z"
           style="opacity:1;fill:#7a2225;fill-opacity:1;fill-rule:evenodd;stroke:#000000;stroke-width:4.34882069;stroke-linecap:butt;stroke-linejoin:miter;stroke-miterlimit:4;stroke-dasharray:none;stroke-opacity:1" />
        <path
           inkscape:connector-curvature="0"
           id="path8653"
           d="m 2171.1275,1150.1436 6.0668,-3.5124 2.2352,-2.7141 4.6299,-1.2773 8.9406,-0.7982 4.4703,-0.7983 5.4282,-1.7562 4.7896,-1.5965 1.1176,-1.2772 -4.63,-2.5545 -4.3106,-0.6386 -7.1844,0 -4.4703,0.9579 -6.3861,0.9579 -3.1931,2.2352 -2.8738,3.1931 -2.5544,2.5544 -0.6386,1.4369 -1.1176,-2.3948 -2.8738,-2.8738 -3.193,-2.2351 -2.5545,-1.4369 -1.7562,-0.1597 4.151,4.9493 1.9158,3.5124 0.479,3.193 -3.672,-4.6299 -2.5545,-1.4369 -6.7054,-2.2351 -4.4703,-0.3193 -4.4703,-0.1597 -4.151,1.2772 -1.9159,2.0755 -1.1175,1.4369 7.5037,1.1176 4.3106,0.9579 4.4703,1.7562 3.5124,1.5965 3.1931,1.2773 1.5965,0.9579 4.3107,0 z"
           style="fill:#3d5431;fill-opacity:1;fill-rule:evenodd;stroke:#000000;stroke-width:4.34882069;stroke-linecap:butt;stroke-linejoin:miter;stroke-miterlimit:4;stroke-dasharray:none;stroke-opacity:1" />
      </g>
    </g>
  </g>
  <g
     id="g8944"
     transform="translate(-767.44014,-1294.9905)">
    <g
       id="g8909"
       transform="translate(0,-305.48783)">
      <path
         style="opacity:1;fill:#ffffff;fill-opacity:1;fill-rule:evenodd;stroke:#000000;stroke-width:1px;stroke-linecap:butt;stroke-linejoin:miter;stroke-opacity:1"
         d="m 771.27847,1771.7732 545.49433,0 0,117.4078 -545.49432,0 z"
         id="path8911"
         inkscape:connector-curvature="0"
         sodipodi:nodetypes="ccccc" />
      <path
         style="fill:#1e2b23;fill-opacity:1;fill-rule:evenodd;stroke:none;stroke-width:1px;stroke-linecap:butt;stroke-linejoin:miter;stroke-opacity:1"
         d="m 770.03666,1771.7732 0,118.5367 546.96194,0 -3.1609,3.161 -546.39756,0 0,-119.6656 z"
         id="path8913"
         inkscape:connector-curvature="0" />
    </g>
    <g
       transform="translate(0,33.063721)"
       id="g8838">
      <g
         id="g8499"
         transform="translate(0.237775,8.1025391)">
        <g
           id="g8494">
          <path
             id="path8324"
             d="m 961.55209,1457.5365 c -2.4088,0.041 -7.2223,1.9539 -7.8183,3.4355 -2.5411,6.3168 -11.2062,32.0095 -13.2266,39.2188 -2.9058,10.3687 -2.9884,15.6873 -0.291,18.6679 2.7658,3.0562 4.1703,2.881 4.2383,-0.5273 0.031,-1.5469 0.7458,-4.4298 1.5898,-6.4062 1.31,-3.0673 2.811,-3.9188 10.2559,-5.8184 4.7968,-1.224 9.0541,-1.8566 9.4609,-1.4063 0.4068,0.4503 1.4304,4.043 2.2734,7.9844 0.843,3.9414 2.061,7.4932 2.7071,7.8926 2.0882,1.2905 4.9062,-2.8864 4.9062,-7.2734 0,-9.2046 -10.1053,-52.6815 -12.8926,-55.4688 -0.2182,-0.2182 -0.6472,-0.3083 -1.2031,-0.2988 z m -3.0898,15.4375 c 0.4816,0.1294 1.682,4.009 2.7754,9.039 1.1663,5.3654 2.3759,10.8809 2.6894,12.2559 0.48,2.1049 -0.5182,2.8185 -6.3203,4.5137 -3.79,1.1073 -7.1115,1.7928 -7.3809,1.5234 -0.581,-0.581 7.0731,-26.2312 8.1485,-27.3066 0.0255,-0.025 0.0558,-0.034 0.0879,-0.025 z"
             style="fill:#000000"
             inkscape:connector-curvature="0" />
          <path
             id="path8326"
             d="m 906.12702,1520.5784 c -4.49652,-5.3438 -6.21825,-11.8351 -6.22744,-23.478 -0.0107,-12.4718 2.10493,-23.3582 6.23,-32.0703 3.89053,-8.2172 5.25587,-9.589 10.60807,-10.6595 5.46905,-1.0938 8.15722,2.3723 10.49113,13.5273 1.51988,7.2641 1.58278,9.8302 0.30524,12.4472 -2.94663,6.0363 -4.45145,4.5379 -6.64994,-6.6215 -1.17673,-5.9728 -2.4907,-11.2109 -2.92004,-11.6403 -1.86217,-1.8622 -4.90609,3.9536 -7.55795,14.4401 -2.32388,9.1894 -2.70259,13.487 -2.02718,23.0017 1.41008,19.8667 6.58639,26.987 10.74531,14.7812 1.17043,-3.4349 2.128,-6.4386 2.128,-6.675 1.92012,-5.9925 0.13087,-7.49 3.20669,-10.0103 6.77505,-4.0207 4.58971,2.7199 2.41936,10.8919 -0.45619,1.8806 -1.72302,6.0646 -3.34479,9.3688 -2.70729,5.5155 -3.39893,6.0404 -8.44654,6.4094 -4.74803,0.3471 -5.96983,-0.1592 -8.95992,-3.7127 z"
             style="fill:#000000"
             inkscape:connector-curvature="0"
             sodipodi:nodetypes="sccssssssssccccss" />
          <path
             id="path8328"
             d="m 990.58925,1524.341 c -1.5964,-2.1666 -1.07195,-11.069 -1.45605,-13.436 -0.4889,-3.0125 -1.3592,-4.3036 -2.9011,-4.3036 -3.8082,0 -4.2127,-4.047 -0.6629,-6.6329 3.0866,-2.2483 3.1927,-2.7792 3.1927,-15.9714 0,-11.1505 -0.3348,-13.6457 -1.831,-13.6457 -1.0071,0 -2.4119,-1.0853 -3.1218,-2.4118 -1.0437,-1.9502 -0.7131,-2.8663 1.7273,-4.7859 1.66,-1.3057 3.2054,-4.0124 3.4343,-6.015 0.5114,-4.4739 3.6941,-5.3604 6.898,-1.9214 2.3338,2.505 2.3365,2.5049 12.862,-0.5552 11.5549,-3.3593 15.0312,-3.7559 15.0312,-1.7146 0,3.1483 -7.4264,8.4225 -15.6406,11.1079 -4.8039,1.5704 -9.1743,3.2538 -9.7119,3.7407 -0.5376,0.4869 -0.5933,6.3511 -0.1237,13.0315 0.7357,10.4662 1.1302,12.029 2.8525,11.298 6.8772,-2.919 20.6739,-7.8906 20.998,-7.5666 0.2128,0.2129 -0.2424,2.1923 -1.0116,4.3989 -1.1599,3.3271 -3.2476,4.9406 -12.2309,9.4522 -10.813,5.4306 -10.8322,5.4489 -10.7945,10.2533 0.021,2.6471 -0.7545,5.0193 -0.067,4.8575 l -0.20801,9.253 c -1.45801,5.2136 -4.63074,5.1012 -7.23494,1.5671 z"
             style="fill:#000000"
             inkscape:connector-curvature="0"
             sodipodi:nodetypes="ccscssscsssscsscccscccc" />
        </g>
        <g
           transform="translate(0,-10)"
           id="g8437">
          <path
             id="path8351"
             d="m 1037.2256,1528.4695 c -1.5964,-2.1666 -3.2169,-5.876 -3.601,-8.243 -0.4889,-3.0125 -1.3592,-4.3036 -2.9011,-4.3036 -3.8082,0 -4.2127,-4.047 -0.6629,-6.6329 3.0866,-2.2483 3.1927,-2.7792 3.1927,-15.9714 0,-11.1505 -0.3348,-13.6457 -1.831,-13.6457 -1.0071,0 -2.4119,-1.0853 -3.1218,-2.4118 -1.0437,-1.9502 -0.7131,-2.8663 1.7273,-4.7859 1.66,-1.3057 3.2054,-4.0124 3.4343,-6.015 0.5114,-4.4739 3.6941,-5.3604 6.898,-1.9214 2.3338,2.505 2.3365,2.5049 12.862,-0.5552 11.5549,-3.3593 15.0312,-3.7559 15.0312,-1.7146 0,3.1483 -7.4264,8.4225 -15.6406,11.1079 -4.8039,1.5704 -9.1743,3.2538 -9.7119,3.7407 -0.5376,0.4869 -0.5933,6.3511 -0.1237,13.0315 0.7357,10.4662 1.1302,12.029 2.8525,11.298 6.8772,-2.919 20.6739,-7.8906 20.998,-7.5666 0.2128,0.2129 -0.2424,2.1923 -1.0116,4.3989 -1.1599,3.3271 -3.2476,4.9406 -12.2309,9.4522 -10.813,5.4306 -10.8322,5.4489 -10.7945,10.2533 0.021,2.6471 0.6002,4.6806 1.2877,4.5188 0.6875,-0.1618 5.9798,-2.0071 11.7607,-4.1006 5.7809,-2.0935 10.9823,-3.6486 11.5586,-3.4558 0.5764,0.1928 0.065,2.3103 -1.1357,4.7055 -2.5036,4.9931 -13.0031,11.0341 -21.0369,12.1039 -4.3932,0.585 -5.1952,0.2469 -7.7994,-3.2872 z"
             style="fill:#000000"
             inkscape:connector-curvature="0" />
          <path
             id="path8353"
             d="m 1048.9606,1456.5723 c 0.2532,-0.9763 0.738,-1.3009 8.2954,-5.5538 6.4322,-3.6196 8.2245,-4.5017 9.0228,-4.4403 0.8894,0.069 0.9748,0.1613 0.7986,0.8678 -0.1597,0.6398 -0.6649,3.8853 -6.6828,7.5113 -7.3279,4.4154 -11.0859,3.5603 -11.4951,2.9577 -0.1142,-0.1682 -0.086,-0.7725 0.061,-1.3427 z"
             style="fill:#000000"
             inkscape:connector-curvature="0"
             inkscape:transform-center-x="-35.315553"
             inkscape:transform-center-y="4.0086984"
             sodipodi:nodetypes="ccccsccc" />
        </g>
      </g>
      <g
         id="g8743"
         transform="translate(-177.04059,-280.9901)">
        <path
           style="fill:#c0520d;fill-opacity:1;fill-rule:evenodd;stroke:#000000;stroke-width:3.29999995;stroke-linecap:butt;stroke-linejoin:miter;stroke-miterlimit:4;stroke-dasharray:none;stroke-opacity:1"
           d="m 1352.0852,1755.3014 3.9512,-5.9833 5.4188,-4.0641 3.9512,-3.2738 4.9673,-2.0321 6.5477,-1.3547 6.4349,-1.1289 7.6766,-0.9032 6.4349,0.6774 4.2899,1.9192 3.9512,3.8383 3.9512,3.161 3.6126,0 5.9833,1.8062 2.1449,3.4997 3.3868,5.7575 2.5965,6.3219 1.5805,5.0802 -0.2258,6.8864 -0.2258,7.338 -1.2418,5.0801 -2.7094,6.322 -4.2899,5.0801 -6.8864,5.5317 -6.8864,3.6126 -7.338,1.6934 -10.2732,0 -7.4509,-0.3387 -6.7735,-1.1289 -3.161,-2.0321 -1.8063,-4.2899 -4.0641,-1.3547 -4.177,-0.4516 -2.2578,-0.1129 -4.5157,-6.8864 -3.161,-7.1122 -2.032,-6.6606 -1.0161,-8.0153 0.3387,-5.7575 1.2418,-6.7736 z"
           id="path8704"
           inkscape:connector-curvature="0" />
        <path
           style="fill:#417b23;fill-opacity:1;fill-rule:evenodd;stroke:#000000;stroke-width:4.69999981;stroke-linecap:butt;stroke-linejoin:miter;stroke-miterlimit:4;stroke-dasharray:none;stroke-opacity:1"
           d="m 1403.2253,1738.7063 0.1129,-4.0641 -2.7094,-3.0481 -1.2418,-1.3547 7.1122,0.9031 4.2899,1.2418 1.6933,2.0321 2.3708,1.5805 2.5965,-0.7903 6.209,-3.3867 2.8223,-1.1289 1.129,0.7902 0,1.3547 c 0,0 -0.5645,1.3547 -1.0161,1.8063 -0.4515,0.4515 -3.4996,1.8063 -3.4996,1.8063 l -2.8223,2.4836 -1.6934,1.4676 1.016,1.6934 2.0321,0.4515 3.4996,0.9032 2.145,1.1289 2.5965,2.032 1.9192,2.3708 -3.4997,-1.8063 -3.4996,0.1129 -2.3708,0.4516 -0.9031,0.7902 -3.4997,-1.1289 -3.3867,-1.016 -3.6126,-0.2258 -3.3867,-1.3547 -2.4837,-2.8223 z"
           id="path8706"
           inkscape:connector-curvature="0" />
        <path
           style="fill:#417b23;fill-opacity:1;fill-rule:evenodd;stroke:#000000;stroke-width:2.29999995;stroke-linecap:butt;stroke-linejoin:miter;stroke-miterlimit:4;stroke-dasharray:none;stroke-opacity:1"
           d="m 1359.0845,1800.5711 1.6934,3.4997 1.9191,2.9352 4.6286,0.6773 4.0641,-0.1129 -1.3547,-4.9672 -3.161,-1.8063 -3.3867,-0.1129 z"
           id="path8708"
           inkscape:connector-curvature="0" />
      </g>
    </g>
  </g>
  <g
     id="g8962"
     transform="translate(-767.44014,-1275.0924)">
    <g
       transform="translate(0,-154.59084)"
       id="g8903">
      <path
         sodipodi:nodetypes="ccccc"
         inkscape:connector-curvature="0"
         id="path8905"
         d="m 771.27847,1771.7732 545.49433,0 0,117.4078 -545.49432,0 z"
         style="opacity:1;fill:#ffffff;fill-opacity:1;fill-rule:evenodd;stroke:#000000;stroke-width:1px;stroke-linecap:butt;stroke-linejoin:miter;stroke-opacity:1" />
      <path
         inkscape:connector-curvature="0"
         id="path8907"
         d="m 770.03666,1771.7732 0,118.5367 546.96194,0 -3.1609,3.161 -546.39756,0 0,-119.6656 z"
         style="fill:#1e2b23;fill-opacity:1;fill-rule:evenodd;stroke:none;stroke-width:1px;stroke-linecap:butt;stroke-linejoin:miter;stroke-opacity:1" />
    </g>
    <g
       transform="translate(0,72.450684)"
       id="g8807">
      <g
         id="g8473"
         transform="translate(0.23777481,-1.4624023)">
        <g
           transform="translate(0,-0.35891469)"
           id="g8428">
          <path
             sodipodi:nodetypes="cccccccccccccccccccccccc"
             inkscape:connector-curvature="0"
             id="path6720"
             d="m 850.83302,1611.1895 -3.00245,2.2316 -0.97373,1.7041 -0.3247,2.0288 0.97391,1.5418 2.02863,0.568 1.29843,0.1623 3.97636,-0.568 7.62795,-2.4345 4.86901,-2.9213 6.41078,-3.4895 5.84265,-2.6779 3.73293,-2.7591 1.86646,-3.1648 0.81139,-3.0836 0.3246,-1.7042 -4.86892,1.5418 -4.5444,1.3796 -6.00491,2.3534 -5.76166,2.272 -4.86892,2.3535 -5.68048,2.8402 -3.81401,1.7853 z"
             style="fill:#000000;fill-opacity:1;fill-rule:evenodd;stroke:none;stroke-width:1px;stroke-linecap:butt;stroke-linejoin:miter;stroke-opacity:1" />
          <g
             transform="matrix(1.0137489,0,0,1.0137489,-66.294224,213.09542)"
             id="g6722">
            <path
               id="path6724"
               d="m 926.47113,1404.0557 c -2.3539,-2.3539 -2.5,-4.1667 -2.5,-31.0111 0,-22.8474 0.3573,-28.9931 1.7986,-30.9375 1.6061,-2.1667 2.0041,-2.2243 3.7186,-0.5381 1.5524,1.5267 2.0803,7.05 2.7566,28.8438 0.8235,26.5384 0.2707,36.1429 -2.0804,36.1429 -0.6564,0 -2.3184,-1.125 -3.6934,-2.5 z"
               style="fill:#000000"
               inkscape:connector-curvature="0" />
            <path
               style="fill:#000000"
               d="m 904.11963,1407.8873 c -2.3539,-2.3539 -2.5,-4.1667 -2.5,-31.0111 0,-22.8474 0.3573,-28.9931 1.7986,-30.9375 1.6061,-2.1667 2.0041,-2.2243 3.7186,-0.5381 1.5524,1.5267 2.0803,7.05 2.7566,28.8438 0.8235,26.5384 0.2707,36.1429 -2.0804,36.1429 -0.6564,0 -2.3184,-1.125 -3.6934,-2.5 z"
               id="path6726"
               inkscape:connector-curvature="0" />
          </g>
          <g
             id="g6728"
             transform="matrix(1.0137489,0,0,1.0137489,-66.294224,213.09542)">
            <path
               inkscape:connector-curvature="0"
               style="fill:#000000"
               d="m 926.47113,1404.0557 c -2.3539,-2.3539 -2.5,-4.1667 -2.5,-31.0111 0,-22.8474 0.3573,-28.9931 1.7986,-30.9375 1.6061,-2.1667 2.0041,-2.2243 3.7186,-0.5381 1.5524,1.5267 2.0803,7.05 2.7566,28.8438 0.8235,26.5384 0.2707,36.1429 -2.0804,36.1429 -0.6564,0 -2.3184,-1.125 -3.6934,-2.5 z"
               id="path6730" />
            <path
               inkscape:connector-curvature="0"
               id="path6732"
               d="m 904.11963,1407.8873 c -2.3539,-2.3539 -2.5,-4.1667 -2.5,-31.0111 0,-22.8474 0.3573,-28.9931 1.7986,-30.9375 1.6061,-2.1667 2.0041,-2.2243 3.7186,-0.5381 1.5524,1.5267 2.0803,7.05 2.7566,28.8438 0.8235,26.5384 0.2707,36.1429 -2.0804,36.1429 -0.6564,0 -2.3184,-1.125 -3.6934,-2.5 z"
               style="fill:#000000" />
          </g>
        </g>
        <path
           inkscape:connector-curvature="0"
           style="fill:#000000"
           d="m 903.80821,1637.618 c -2.3539,-2.3539 -2.5,-4.1667 -2.5,-31.0111 0,-22.8474 0.3573,-28.9931 1.7986,-30.9375 1.6061,-2.1667 2.0041,-2.2243 3.7186,-0.5381 1.5524,1.5267 2.0803,7.05 2.7566,28.8438 0.8235,26.5384 0.2707,36.1429 -2.0804,36.1429 -0.6564,0 -2.3184,-1.125 -3.6934,-2.5 z"
           id="path6734" />
        <path
           inkscape:connector-curvature="0"
           style="fill:#000000"
           d="m 932.69865,1640.0516 c -3.4245,-0.8579 -5.2369,-2.4881 -5.9968,-5.3941 -0.5817,-2.2244 -0.1767,-2.3805 4.3139,-1.6624 6.6534,1.0639 11.0579,-1.3068 11.0579,-5.9519 0,-2.717 -1.2335,-4.3274 -5.6331,-7.3544 -3.2143,-2.2115 -6.7676,-6.0995 -8.2754,-9.0551 -5.0764,-9.9506 -1.3871,-27.1281 7.5668,-35.2313 3.9988,-3.6189 8.6008,-1.4773 12.3089,5.7282 4.5824,8.9045 4.9638,14.842 1.232,19.1805 l -3.0694,3.5684 -0.8743,-6.5907 c -1.0767,-8.1164 -4.3515,-16.6041 -6.1723,-15.9972 -1.9807,0.6603 -5.7209,12.0128 -5.7812,17.5474 -0.069,6.2968 1.4851,9.0012 9.4956,16.5283 6.1877,5.8142 6.7024,6.7322 6.7024,11.9536 0,4.5542 -0.6695,6.2842 -3.4375,8.8828 -3.5629,3.3448 -9.1077,4.9326 -13.4375,3.8479 z"
           id="path6736" />
        <g
           transform="translate(8.868774,3.1208273)"
           id="g8424">
          <path
             sodipodi:nodetypes="cccccccccccccccccccccccc"
             inkscape:connector-curvature="0"
             id="path6772"
             d="m 955.59684,1582.2892 -3.00245,2.2316 -0.97373,1.7041 -0.3247,2.0287 0.97391,1.5419 2.02863,0.568 1.29843,0.1623 3.97637,-0.5681 7.62794,-2.4345 4.86901,-2.9212 6.41078,-3.4895 5.84268,-2.6779 3.73294,-2.7591 1.86646,-3.1648 0.81138,-3.0836 0.32461,-1.7042 -4.86892,1.5418 -4.5444,1.3796 -6.00495,2.3533 -5.76165,2.2721 -4.86892,2.3534 -5.68049,2.8402 -3.81401,1.7853 z"
             style="fill:#000000;fill-opacity:1;fill-rule:evenodd;stroke:none;stroke-width:1px;stroke-linecap:butt;stroke-linejoin:miter;stroke-opacity:1" />
          <path
             id="path6738"
             d="m 967.83799,1637.6004 c -2.3539,-2.3539 -2.5,-4.1667 -2.5,-31.0111 0,-22.8474 0.3573,-28.9931 1.7986,-30.9375 1.6061,-2.1667 2.0041,-2.2243 3.7186,-0.5381 1.5524,1.5267 2.0803,7.05 2.7566,28.8438 0.8235,26.5384 0.2707,36.1429 -2.0804,36.1429 -0.6564,0 -2.3184,-1.125 -3.6934,-2.5 z"
             style="fill:#000000"
             inkscape:connector-curvature="0" />
        </g>
        <path
           id="path6774"
           d="m 1019.7297,1573.9888 c -3.3278,-0.024 -5.9805,2.4079 -9.0492,7.7811 -5.1898,9.0869 -7.8481,21.5497 -7.8481,36.7858 0,12.5428 0,12.5583 4.4219,16.9764 10.8263,10.8264 23.7228,1.5435 27.4176,-19.7341 3.1282,-18.0132 -1.2428,-35.8327 -9.8843,-40.3013 -1.8946,-0.9798 -3.5454,-1.497 -5.0579,-1.5079 z m 1.3066,7.9416 c 0.9773,-0.1619 1.9703,0.9161 3.1275,3.154 5.3678,10.3801 5.1296,30.7866 -0.4878,41.7928 -1.2977,2.5425 -3.5775,5.7257 -5.0661,7.0719 -2.6643,2.4096 -2.7251,2.3994 -3.859,-0.6503 -3.6603,-9.8446 -2.6265,-30.0016 2.2781,-44.4306 1.5203,-4.4729 2.7508,-6.7295 4.0073,-6.9378 z"
           style="fill:#000000"
           inkscape:connector-curvature="0" />
        <path
           inkscape:connector-curvature="0"
           style="fill:#000000"
           d="m 1066.9259,1574.6458 c -1.4254,0 -3.4703,0.5466 -7.4043,1.4726 -3.8771,0.9126 -8.799,1.4017 -10.9375,1.0879 -2.9149,-0.4278 -3.8867,-0.088 -3.8867,1.3555 0,1.059 -9e-4,-0.4782 -0.7871,3.9511 l 0.4434,7.7852 c 0,0 0.1633,1.9241 0.9629,20.0508 0.9108,20.6491 1.8606,26.2371 4.7714,28.0879 3.4377,2.1859 4.491,0.8585 4.8594,-6.1231 l 0.375,-7.1035 4.375,5.7696 c 4.6628,6.1501 8.2388,8.4394 13.1836,8.4394 3.4607,0 3.9483,-1.4618 1.2383,-3.7109 -1.0051,-0.8342 -4.6989,-5.9929 -8.209,-11.4649 l -6.3828,-9.9492 7.459,-7.9727 c 11.379,-12.1642 13.1066,-21.9407 5.0722,-28.7011 -2.4896,-2.0949 -3.3,-2.9796 -5.1328,-2.9746 z m -2.4023,8.7773 0,0 c 3.3098,-0.066 4.0193,1.4612 3.2442,5.0567 -0.4818,2.235 -2.1961,6.3322 -3.8086,9.1035 -1.6124,2.7713 -4.6373,6.6739 -6.7227,8.6718 l -3.7929,3.6329 -0.01,-3.6719 c 0,-2.0192 -0.3612,-7.395 -0.791,-11.9453 l -0.7813,-8.2735 6.4297,-1.541 c 2.6836,-0.6438 4.7261,-1.0034 6.2305,-1.0332 z"
           id="path6799" />
        <g
           id="g8419">
          <path
             id="path6801"
             d="m 1098.6924,1638.4523 c -2.6939,-1.3771 -2.8324,-2.4234 -2.3689,-17.8984 0.3943,-13.171 0.9154,-16.7107 2.6235,-17.8194 1.9031,-1.2352 2.3665,-1.2649 4.3291,-0.2783 1.777,0.8933 2.2949,4.082 2.7044,16.6514 0.4987,15.3057 -0.3092,20.8377 -3.0406,20.8176 -0.7626,-0.01 -2.6739,-0.6684 -4.2475,-1.4729 z"
             style="fill:#000000"
             inkscape:connector-curvature="0" />
          <path
             style="fill:#000000;fill-opacity:1;fill-rule:evenodd;stroke:none;stroke-width:1px;stroke-linecap:butt;stroke-linejoin:miter;stroke-opacity:1"
             d="m 1089.1278,1578.2868 -2.2901,-2.4802 -1.6223,-0.7104 -1.8516,-0.097 -1.2902,1.0215 -0.3153,1.8749 -0.021,1.1805 0.8906,3.5137 2.9153,6.6112 3.0877,4.089 3.7453,5.4181 2.9627,4.9862 2.8334,3.0851 3.0186,1.3717 2.8447,0.4324 1.5602,0.1282 -1.8498,-4.2212 -1.6734,-3.9457 -2.6869,-5.1627 -2.5908,-4.9522 -2.5782,-4.1435 -3.0926,-4.8249 -1.9676,-3.2514 z"
             id="path6803"
             inkscape:connector-curvature="0"
             sodipodi:nodetypes="cccccccccccccccccccccccc"
             inkscape:transform-center-x="-4.4082268"
             inkscape:transform-center-y="-3.2619196" />
          <path
             inkscape:transform-center-y="2.5413804"
             inkscape:transform-center-x="-4.9437268"
             sodipodi:nodetypes="cccccccccccccccccccccccc"
             inkscape:connector-curvature="0"
             id="path6824"
             d="m 1120.6498,1581.3661 0.9709,-3.2331 -0.2136,-1.7582 -0.8582,-1.6436 -1.5356,-0.5915 -1.7747,0.6821 -1.0273,0.5821 -2.5726,2.5536 -4.2099,5.8722 -1.9506,4.738 -2.7607,5.9802 -2.7867,5.0867 -1.2156,4.0085 0.354,3.2966 1.0742,2.6694 0.6831,1.4085 2.6939,-3.7393 2.5465,-3.4474 3.0791,-4.9389 2.9465,-4.7491 2.2566,-4.3271 2.5818,-5.1166 1.7991,-3.3475 z"
             style="fill:#000000;fill-opacity:1;fill-rule:evenodd;stroke:none;stroke-width:1px;stroke-linecap:butt;stroke-linejoin:miter;stroke-opacity:1" />
        </g>
      </g>
      <g
         id="g8764"
         transform="matrix(1.3243632,0,0,1.3243632,-1842.1129,-328.18169)">
        <path
           sodipodi:nodetypes="ccccccccccccccccccccccccc"
           inkscape:connector-curvature="0"
           id="path8748"
           d="m 2279.158,1436.1759 1.9393,3.3083 2.3149,2.0755 2.0755,1.2772 3.6721,1.4369 3.9115,0.7983 7.2642,0.7982 7.1046,-0.08 5.987,-0.3991 6.5458,-1.1176 5.8273,-1.5167 4.151,-2.0755 2.9536,-2.8738 1.2772,-2.3149 -0.7982,-0.3992 -3.8317,0.6386 -6.0668,-0.08 -7.9029,-0.3193 -7.344,-1.2772 -7.9827,-0.479 -12.2933,-0.7983 -5.987,-0.08 -2.1554,1.3571 -0.6386,1.1974 z"
           style="fill:#ffd900;fill-opacity:1;fill-rule:evenodd;stroke:#000000;stroke-width:3.4000001;stroke-linecap:butt;stroke-linejoin:miter;stroke-miterlimit:4;stroke-dasharray:none;stroke-opacity:1" />
        <path
           inkscape:connector-curvature="0"
           id="path8750"
           d="m 2334.182,1436.6903 -0.3193,4.7097 -3.0334,3.9914 -2.315,4.0711 -3.1132,3.5922 -4.3106,2.794 -4.151,1.9956 -3.9115,1.9159 -3.8317,1.836 -7.6634,2.0755 -6.7054,1.836 -5.2686,1.1974 -3.5922,-0.479 -1.1176,-0.7184 -0.4789,-2.5545 1.1175,-2.7141 4.2309,-3.5123 3.193,-2.3948 3.3527,-1.8361 6.0669,-2.7141 5.1089,-2.3149 3.9115,-1.2773 8.8608,-1.5167 7.1045,-1.836 4.9493,-3.7518 z"
           style="fill:#ffd900;fill-opacity:1;fill-rule:evenodd;stroke:#000000;stroke-width:3.4000001;stroke-linecap:butt;stroke-linejoin:miter;stroke-miterlimit:4;stroke-dasharray:none;stroke-opacity:1" />
        <path
           inkscape:connector-curvature="0"
           id="path8752"
           d="m 2290.1975,1456.3276 -4.151,-2.3149 -3.3527,-1.5966 -1.9158,-2.1553 0.2394,-2.6343 1.2773,-0.7983 2.3948,0 2.7141,-0.5587 2.1553,-1.2773 2.0755,-0.08 8.4616,0.8781 7.4239,0 4.5501,-0.3991 -6.9449,3.3527 -5.9072,2.4746 -5.2685,2.794 z"
           style="fill:#c5a90b;fill-opacity:1;fill-rule:evenodd;stroke:#000000;stroke-width:3.4000001;stroke-linecap:butt;stroke-linejoin:miter;stroke-miterlimit:4;stroke-dasharray:none;stroke-opacity:1" />
        <path
           inkscape:connector-curvature="0"
           id="path8754"
           d="m 2333.1443,1442.5974 c 0,0 1.1974,0.7185 1.0377,1.1974 -0.1596,0.479 0.08,5.4283 0.08,5.4283 l -0.8781,4.4702 -2.5545,3.9116 -0.9579,2.8737 -1.5965,3.5922 -0.7185,2.794 -3.7518,4.6299 -3.4326,3.7519 -3.193,3.5123 -3.9116,3.6721 -3.3527,2.6343 -3.672,1.5965 -2.7939,0.5588 -3.4326,0 -0.9579,-1.1176 0.3193,-2.2351 0.1596,-2.8738 1.6764,-4.0712 4.63,-4.5501 3.1132,-3.4325 4.7098,-3.1931 3.8317,-2.2352 3.2729,-4.3904 2.4746,-3.6721 2.315,-2.5544 2.5544,-2.794 1.9957,-3.8316 z"
           style="fill:#ffd900;fill-opacity:1;fill-rule:evenodd;stroke:#000000;stroke-width:3.4000001;stroke-linecap:butt;stroke-linejoin:miter;stroke-miterlimit:4;stroke-dasharray:none;stroke-opacity:1" />
        <path
           inkscape:connector-curvature="0"
           id="path8756"
           d="m 2300.575,1477.6414 -3.2729,0.2394 -3.5523,-0.3193 -2.6343,-0.7184 -1.0776,-0.918 -0.2794,-2.2751 0.918,-1.8759 2.4347,-1.2772 3.672,-1.9957 2.5944,-1.6764 2.4347,-1.3969 c 0,0 2.5145,-0.9979 2.7141,-1.1176 0.1996,-0.1197 3.9514,-1.8759 3.9514,-1.8759 l 0.5189,-0.7185 12.7324,-6.3462 1.9158,-0.9579 -3.5523,5.6677 -1.8759,2.6742 -3.5922,2.5145 -3.7119,2.1553 -2.5944,2.0755 -1.4369,1.6764 -1.9158,2.315 -2.2352,2.0755 z"
           style="fill:#c5a90b;fill-opacity:1;fill-rule:evenodd;stroke:#000000;stroke-width:3.4000001;stroke-linecap:butt;stroke-linejoin:miter;stroke-miterlimit:4;stroke-dasharray:none;stroke-opacity:1" />
        <path
           inkscape:connector-curvature="0"
           id="path8758"
           d="m 2330.1109,1435.7722 1.4768,3.4725 2.3549,-3.4725 -0.5987,-0.8381 z"
           style="fill:#000000;fill-opacity:1;fill-rule:evenodd;stroke:#000000;stroke-width:3.4000001;stroke-linecap:butt;stroke-linejoin:miter;stroke-miterlimit:4;stroke-dasharray:none;stroke-opacity:1" />
        <path
           inkscape:connector-curvature="0"
           id="path8760"
           d="m 2331.3083,1439.7636 2.275,2.0755 0.5189,-4.5501 z"
           style="fill:#000000;fill-opacity:1;fill-rule:evenodd;stroke:#000000;stroke-width:3.4000001;stroke-linecap:butt;stroke-linejoin:miter;stroke-miterlimit:4;stroke-dasharray:none;stroke-opacity:1" />
        <path
           inkscape:connector-curvature="0"
           id="path8762"
           d="m 2334.3417,1441.1606 -0.04,3.8715 -2.4746,-0.9579 z"
           style="fill:#000000;fill-opacity:1;fill-rule:evenodd;stroke:#000000;stroke-width:3.4000001;stroke-linecap:butt;stroke-linejoin:miter;stroke-miterlimit:4;stroke-dasharray:none;stroke-opacity:1" />
      </g>
    </g>
  </g>
  <g
     id="g8997"
     transform="translate(-767.44014,-1312.8883)">
    <g
       transform="translate(0,54)"
       id="g8899">
      <path
         style="opacity:1;fill:#ffffff;fill-opacity:1;fill-rule:evenodd;stroke:#000000;stroke-width:1px;stroke-linecap:butt;stroke-linejoin:miter;stroke-opacity:1"
         d="m 771.27847,1771.7732 545.49433,0 0,117.4078 -545.49432,0 z"
         id="path8869"
         inkscape:connector-curvature="0"
         sodipodi:nodetypes="ccccc" />
      <path
         style="fill:#1e2b23;fill-opacity:1;fill-rule:evenodd;stroke:none;stroke-width:1px;stroke-linecap:butt;stroke-linejoin:miter;stroke-opacity:1"
         d="m 770.03666,1771.7732 0,118.5367 546.96194,0 -3.1609,3.161 -546.39756,0 0,-119.6656 z"
         id="path8871"
         inkscape:connector-curvature="0" />
    </g>
    <g
       transform="translate(0,166)"
       id="g8788">
      <g
         id="g8460">
        <path
           id="path8377"
           d="m 842.90747,1752.6167 c -4.49652,-5.3438 -6.21825,-11.8351 -6.22744,-23.478 -0.0107,-12.4718 2.10493,-23.3582 6.23,-32.0703 3.89053,-8.2172 5.25587,-9.589 10.60807,-10.6595 5.46905,-1.0938 8.15722,2.3723 10.49113,13.5273 1.51988,7.2641 1.58278,9.8302 0.30524,12.4472 -2.94663,6.0363 -4.45145,4.5379 -6.64994,-6.6215 -1.17673,-5.9728 -2.4907,-11.2109 -2.92004,-11.6403 -1.86217,-1.8622 -4.90609,3.9536 -7.55795,14.4401 -2.32388,9.1894 -2.70259,13.487 -2.02718,23.0017 1.41008,19.8667 6.58639,26.987 10.74531,14.7812 1.17043,-3.4349 2.128,-6.4386 2.128,-6.675 1.92012,-5.9925 0.13087,-7.49 3.20669,-10.0103 6.77505,-4.0207 4.58971,2.7199 2.41936,10.8919 -0.45619,1.8806 -1.72302,6.0646 -3.34479,9.3688 -2.70729,5.5155 -3.39893,6.0404 -8.44654,6.4094 -4.74803,0.3471 -5.96983,-0.1592 -8.95992,-3.7127 z"
           style="fill:#000000"
           inkscape:connector-curvature="0"
           sodipodi:nodetypes="sccssssssssccccss" />
        <path
           inkscape:connector-curvature="0"
           style="fill:#000000"
           d="m 895.18532,1688.2757 c -3.3278,-0.024 -5.9805,2.4079 -9.0492,7.7811 -5.1898,9.0869 -7.84809,21.5497 -7.84809,36.7858 0,12.5428 0,12.5583 4.42189,16.9764 10.8263,10.8264 23.7228,1.5435 27.4176,-19.7341 3.1282,-18.0132 -1.2428,-35.8327 -9.8843,-40.3013 -1.8946,-0.9798 -3.5454,-1.497 -5.0579,-1.5079 z m 1.3066,7.9416 c 0.9773,-0.1619 1.9703,0.9161 3.1275,3.154 5.3678,10.3801 5.1296,30.7866 -0.4878,41.7928 -1.2977,2.5425 -3.5775,5.7257 -5.0661,7.0719 -2.6643,2.4096 -2.7251,2.3994 -3.859,-0.6503 -3.6603,-9.8446 -2.6265,-30.0016 2.2781,-44.4306 1.5203,-4.4729 2.7508,-6.7295 4.0073,-6.9378 z"
           id="path8395" />
        <path
           inkscape:connector-curvature="0"
           style="fill:#000000"
           d="m 923.89438,1754.3019 c -2.7543,-2.9318 -2.7692,-3.1731 -1.8977,-30.6908 0.8262,-26.0901 1.0316,-27.8431 3.4612,-29.5448 2.291,-1.6047 2.8174,-1.5619 4.6595,0.3783 2.275,2.3961 6.6621,15.2905 11.8019,34.6874 1.8218,6.875 3.735,12.9501 4.2517,13.5003 0.5167,0.5502 0.7196,-4.5123 0.4508,-11.25 -0.2687,-6.7377 -0.044,-19.8441 0.4997,-29.1253 0.9202,-15.7123 1.1606,-16.875 3.4883,-16.875 2.2686,0 2.5738,1.0992 3.2976,11.875 0.4387,6.5312 0.8605,22.7633 0.9375,36.0712 0.1307,22.6014 0,24.1337 -2.0476,23.247 -1.2031,-0.522 -4.0452,-1.2097 -6.3158,-1.5282 -5.5021,-0.7716 -6.8143,-3.1 -12.1044,-21.4797 -2.4639,-8.5605 -4.7414,-15.8261 -5.0611,-16.1458 -0.3197,-0.3197 -0.5812,8.5126 -0.5812,19.6271 0,11.1146 -0.4644,20.2084 -1.0321,20.2084 -0.5677,0 -2.2814,-1.3298 -3.8083,-2.9551 z"
           id="path8397" />
        <g
           transform="translate(-5.7796021,-3.6125)"
           id="g8415">
          <path
             style="fill:#000000;fill-opacity:1;fill-rule:evenodd;stroke:none;stroke-width:1px;stroke-linecap:butt;stroke-linejoin:miter;stroke-opacity:1"
             d="m 971.85329,1703.3095 -3.00245,2.2316 -0.97373,1.7041 -0.3247,2.0287 0.97391,1.5419 2.02863,0.568 1.29843,0.1623 3.97637,-0.5681 7.62794,-2.4345 4.86901,-2.9212 6.41078,-3.4895 5.84272,-2.6779 3.7329,-2.7591 1.8665,-3.1648 0.8113,-3.0836 0.3247,-1.7042 -4.869,1.5418 -4.54437,1.3796 -6.00495,2.3533 -5.76165,2.2721 -4.86892,2.3534 -5.68049,2.8402 -3.81401,1.7853 z"
             id="path8399"
             inkscape:connector-curvature="0"
             sodipodi:nodetypes="cccccccccccccccccccccccc" />
          <path
             inkscape:connector-curvature="0"
             style="fill:#000000"
             d="m 984.09444,1758.6207 c -2.3539,-2.3539 -2.5,-4.1667 -2.5,-31.0111 0,-22.8474 0.3573,-28.9931 1.7986,-30.9375 1.6061,-2.1667 2.0041,-2.2243 3.7186,-0.5381 1.5524,1.5267 2.0803,7.05 2.7566,28.8438 0.8235,26.5384 0.2707,36.1429 -2.0804,36.1429 -0.6564,0 -2.3184,-1.125 -3.6934,-2.5 z"
             id="path8401" />
        </g>
        <path
           id="path8403"
           d="m 1029.7244,1689.5748 c -2.4088,0.041 -7.2223,1.9539 -7.8183,3.4355 -2.5411,6.3168 -11.2062,32.0095 -13.2266,39.2188 -2.9058,10.3687 -2.9884,15.6873 -0.291,18.6679 2.7658,3.0562 4.1703,2.881 4.2383,-0.5273 0.031,-1.5469 0.7458,-4.4298 1.5898,-6.4062 1.31,-3.0673 2.811,-3.9188 10.2559,-5.8184 4.7968,-1.224 9.0541,-1.8566 9.4609,-1.4063 0.4068,0.4503 1.4304,4.043 2.2734,7.9844 0.843,3.9414 2.061,7.4932 2.7071,7.8926 2.0882,1.2905 4.9062,-2.8864 4.9062,-7.2734 0,-9.2046 -10.1053,-52.6815 -12.8926,-55.4688 -0.2182,-0.2182 -0.6472,-0.3083 -1.2031,-0.2988 z m -3.0898,15.4375 c 0.4816,0.1294 1.682,4.009 2.7754,9.039 1.1663,5.3654 2.3759,10.8809 2.6894,12.2559 0.48,2.1049 -0.5182,2.8185 -6.3203,4.5137 -3.79,1.1073 -7.1115,1.7928 -7.3809,1.5234 -0.581,-0.581 7.0731,-26.2312 8.1485,-27.3066 0.025,-0.025 0.056,-0.034 0.088,-0.025 z"
           style="fill:#000000"
           inkscape:connector-curvature="0" />
        <path
           sodipodi:nodetypes="sccssssssssccccss"
           inkscape:connector-curvature="0"
           style="fill:#000000"
           d="m 1060.2613,1752.6167 c -4.4966,-5.3438 -6.2183,-11.8351 -6.2275,-23.478 -0.011,-12.4718 2.105,-23.3582 6.23,-32.0703 3.8906,-8.2172 5.2559,-9.589 10.6081,-10.6595 5.469,-1.0938 8.1572,2.3723 10.4911,13.5273 1.5199,7.2641 1.5828,9.8302 0.3053,12.4472 -2.9467,6.0363 -4.4515,4.5379 -6.65,-6.6215 -1.1767,-5.9728 -2.4907,-11.2109 -2.92,-11.6403 -1.8622,-1.8622 -4.9061,3.9536 -7.558,14.4401 -2.3238,9.1894 -2.7026,13.487 -2.0271,23.0017 1.41,19.8667 6.5863,26.987 10.7453,14.7812 1.1704,-3.4349 2.128,-6.4386 2.128,-6.675 1.9201,-5.9925 0.1308,-7.49 3.2067,-10.0103 6.775,-4.0207 4.5897,2.7199 2.4193,10.8919 -0.4562,1.8806 -1.723,6.0646 -3.3448,9.3688 -2.7073,5.5155 -3.3989,6.0404 -8.4465,6.4094 -4.748,0.3471 -5.9698,-0.1592 -8.9599,-3.7127 z"
           id="path8405" />
        <g
           id="g8411">
          <path
             sodipodi:nodetypes="cccccccccccccccccccccccc"
             inkscape:connector-curvature="0"
             id="path8407"
             d="m 1096.4861,1699.697 -3.0025,2.2316 -0.9737,1.7041 -0.3247,2.0287 0.9739,1.5419 2.0286,0.568 1.2985,0.1623 3.9763,-0.5681 7.628,-2.4345 4.869,-2.9212 6.4108,-3.4895 5.8427,-2.6779 3.7329,-2.7591 1.8665,-3.1648 0.8113,-3.0836 0.3247,-1.7042 -4.869,1.5418 -4.5444,1.3796 -6.0049,2.3533 -5.7617,2.2721 -4.8689,2.3534 -5.6805,2.8402 -3.814,1.7853 z"
             style="fill:#000000;fill-opacity:1;fill-rule:evenodd;stroke:none;stroke-width:1px;stroke-linecap:butt;stroke-linejoin:miter;stroke-opacity:1" />
          <path
             id="path8409"
             d="m 1108.7272,1755.0082 c -2.3539,-2.3539 -2.5,-4.1667 -2.5,-31.0111 0,-22.8474 0.3573,-28.9931 1.7986,-30.9375 1.6061,-2.1667 2.0041,-2.2243 3.7186,-0.5381 1.5524,1.5267 2.0803,7.05 2.7566,28.8438 0.8235,26.5384 0.2707,36.1429 -2.0804,36.1429 -0.6564,0 -2.3184,-1.125 -3.6934,-2.5 z"
             style="fill:#000000"
             inkscape:connector-curvature="0" />
        </g>
      </g>
      <g
         id="g8782"
         transform="translate(-1123.9604,-17.881188)">
        <path
           inkscape:connector-curvature="0"
           id="path8774"
           d="m 2348.6214,1728.6264 6.6607,-0.1129 5.3059,0.9031 4.5157,2.7094 3.0481,5.8704 1.3547,9.1442 -1.1289,9.483 -3.0481,7.5637 -4.5157,6.6607 -5.7575,3.4996 -4.9673,2.4837 -5.7574,1.5804 -8.3541,0.4516 -4.7414,-3.2739 -2.4837,-3.8383 -2.3707,-6.8864 -0.3387,-7.338 c 0,0 1.5805,-8.5798 1.8063,-9.37 0.2258,-0.7903 2.8223,-8.5798 2.8223,-8.5798 l 4.6286,-4.6286 6.8864,-4.6286 z"
           style="fill:#105129;fill-opacity:1;fill-rule:evenodd;stroke:#000000;stroke-width:4.30000019;stroke-linecap:butt;stroke-linejoin:miter;stroke-miterlimit:4;stroke-dasharray:none;stroke-opacity:1" />
        <path
           inkscape:connector-curvature="0"
           id="path8776"
           d="m 2348.1699,1728.965 0.7902,-4.8543 -2.4836,-5.9833 -2.4836,-4.7415 -6.0962,-3.9512 -6.5477,-1.8063 -5.1931,-0.6773 -7.5637,1.9191 -5.9833,4.1771 -3.6126,2.9351 -6.0961,1.129 -3.2739,2.8223 -1.5805,4.9672 -1.6934,4.5157 -0.9031,7.1122 0,6.6606 2.1449,3.3868 4.5157,1.9192 6.8864,1.2418 5.8704,0.4515 5.9833,-0.3386 5.193,-2.5966 2.7094,-1.3547 1.6934,-6.4348 5.7575,-5.3059 7.1122,-4.2899 z"
           style="fill:#105129;fill-opacity:1;fill-rule:evenodd;stroke:#000000;stroke-width:4.30000019;stroke-linecap:butt;stroke-linejoin:miter;stroke-miterlimit:4;stroke-dasharray:none;stroke-opacity:1" />
        <path
           inkscape:connector-curvature="0"
           id="path8778"
           d="m 2303.0131,1748.2696 -1.2419,4.9672 -3.1609,5.3059 -0.3387,5.7575 1.8063,5.6446 5.3059,3.7255 5.193,2.032 6.322,0.4516 5.6446,-2.8223 2.9352,-2.9352 1.1289,-4.7415 -0.3387,-5.7574 1.3547,-10.499 0.5645,-2.7094 -6.5478,3.0481 -8.0153,0.6773 -5.6446,-0.7902 z"
           style="fill:#143f25;fill-opacity:1;fill-rule:evenodd;stroke:#000000;stroke-width:4.30000019;stroke-linecap:butt;stroke-linejoin:miter;stroke-miterlimit:4;stroke-dasharray:none;stroke-opacity:1" />
        <path
           inkscape:connector-curvature="0"
           id="path8780"
           d="m 2361.5941,1729.7655 2.1553,-1.9957 4.8694,-0.3991 3.2729,-0.08 3.3527,0.2395 1.836,0.5588 1.5966,-0.7184 -0.2395,-2.3948 -1.5167,-2.2352 -1.5965,-1.357 -2.2352,-1.1974 -3.5124,-1.2773 c 0,0 -2.7141,-0.2395 -3.2729,-0.08 -0.5587,0.1597 -4.6299,0.3193 -4.6299,0.3193 l -3.9913,0.08 -2.2352,0.8781 0.7983,-4.6299 c 0,0 -0.6386,-4.4703 -0.6386,-5.0291 0,-0.5588 -1.2773,-6.466 -1.2773,-6.466 l -2.3149,-3.1132 -2.2352,-2.315 -3.1132,-0.08 -2.6343,-0.1597 -0.9579,2.7141 0.08,3.0335 1.9158,3.7518 1.7562,0.8781 2.7141,1.6764 1.9957,2.5544 0.2395,2.7141 -0.479,2.4747 -1.4369,1.357 -2.5544,0.3193 1.5965,4.151 -0.4789,4.8694 6.6256,-0.3991 4.151,0.7983 z"
           style="fill:#1e2b23;fill-opacity:1;fill-rule:evenodd;stroke:#000000;stroke-width:4.30000019;stroke-linecap:butt;stroke-linejoin:miter;stroke-miterlimit:4;stroke-dasharray:none;stroke-opacity:1" />
      </g>
    </g>
  </g>
</svg>
