<?xml version="1.0" encoding="UTF-8" standalone="no"?>
<!-- Created with Inkscape (http://www.inkscape.org/) -->

<svg
   xmlns:dc="http://purl.org/dc/elements/1.1/"
   xmlns:cc="http://creativecommons.org/ns#"
   xmlns:rdf="http://www.w3.org/1999/02/22-rdf-syntax-ns#"
   xmlns:svg="http://www.w3.org/2000/svg"
   xmlns="http://www.w3.org/2000/svg"
   xmlns:sodipodi="http://sodipodi.sourceforge.net/DTD/sodipodi-0.dtd"
   xmlns:inkscape="http://www.inkscape.org/namespaces/inkscape"
   width="459.83139mm"
   height="155.29654mm"
   viewBox="0 0 1629.3239 550.26334"
   id="svg2"
   version="1.1"
   inkscape:version="0.91 r13725"
   sodipodi:docname="marlinsstriped.svg">
  <defs
     id="defs4">
    <clipPath
       id="clipPath4994"
       clipPathUnits="userSpaceOnUse">
      <rect
         y="0.46884531"
         x="0.70870137"
         height="120.44411"
         width="971.34332"
         id="rect4996"
         style="opacity:0.9;fill:#000000;fill-opacity:1;stroke:#000000;stroke-width:1.87300003;stroke-linejoin:miter;stroke-miterlimit:4;stroke-dasharray:none;stroke-opacity:1" />
    </clipPath>
    <clipPath
       id="clipPath4994-9"
       clipPathUnits="userSpaceOnUse">
      <rect
         y="0.46884531"
         x="0.70870137"
         height="120.44411"
         width="971.34332"
         id="rect4996-0"
         style="opacity:0.9;fill:#000000;fill-opacity:1;stroke:#000000;stroke-width:1.87300003;stroke-linejoin:miter;stroke-miterlimit:4;stroke-dasharray:none;stroke-opacity:1" />
    </clipPath>
    <clipPath
       id="clipPath4994-5"
       clipPathUnits="userSpaceOnUse">
      <rect
         y="0.46884531"
         x="0.70870137"
         height="120.44411"
         width="971.34332"
         id="rect4996-5"
         style="opacity:0.9;fill:#000000;fill-opacity:1;stroke:#000000;stroke-width:1.87300003;stroke-linejoin:miter;stroke-miterlimit:4;stroke-dasharray:none;stroke-opacity:1" />
    </clipPath>
  </defs>
  <sodipodi:namedview
     id="base"
     pagecolor="#ffffff"
     bordercolor="#666666"
     borderopacity="1.0"
     inkscape:pageopacity="0.0"
     inkscape:pageshadow="2"
     inkscape:zoom="0.125"
     inkscape:cx="1037.1314"
     inkscape:cy="326.97223"
     inkscape:document-units="px"
     inkscape:current-layer="layer1"
     showgrid="false"
     fit-margin-top="0"
     fit-margin-left="0"
     fit-margin-right="0"
     fit-margin-bottom="0"
     showguides="true"
     inkscape:guide-bbox="true"
     inkscape:window-width="1440"
     inkscape:window-height="852"
     inkscape:window-x="0"
     inkscape:window-y="0"
     inkscape:window-maximized="1"
     inkscape:object-nodes="true" />
  <metadata
     id="metadata7">
    <rdf:RDF>
      <cc:Work
         rdf:about="">
        <dc:format>image/svg+xml</dc:format>
        <dc:type
           rdf:resource="http://purl.org/dc/dcmitype/StillImage" />
        <dc:title></dc:title>
      </cc:Work>
    </rdf:RDF>
  </metadata>
  <g
     inkscape:label="Layer 1"
     inkscape:groupmode="layer"
     id="layer1"
     transform="translate(-548.57619,148.13599)">
    <g
       id="g5409">
      <path
         inkscape:connector-curvature="0"
         id="path4220"
         d="m 595.99411,-144.15047 -10.53731,222.249927 48.82289,0.703313 5.26866,-141.719481 44.25672,134.334596 40.0418,0.703328 53.38907,-145.58777 -4.21493,152.972655 51.63285,0.351664 1.75622,-221.546612 -0.35124,-3.51661 -66.73634,0.35167 -53.03781,148.0493855 -43.55424,-147.6977255 -66.73634,-1.40664 z"
         style="opacity:1;fill:#156294;fill-opacity:1;fill-rule:evenodd;stroke:#156294;stroke-width:4;stroke-linecap:butt;stroke-linejoin:miter;stroke-miterlimit:4;stroke-dasharray:none;stroke-opacity:1" />
      <path
         transform="translate(-588.88428,-442.52684)"
         id="path5377"
         d="m 1620.5137,441.51367 -54.5371,-144.13867 -39.8653,0 -70.0273,166.64062 164.4297,-22.50195 z m -79.4004,-68.17383 22.9726,59.92774 -45.2031,0 22.2305,-59.92774 z"
         style="opacity:1;fill:#0e4061;fill-opacity:1;fill-rule:evenodd;stroke:#0e4061;stroke-width:4;stroke-linecap:butt;stroke-linejoin:miter;stroke-miterlimit:4;stroke-dasharray:none;stroke-opacity:1"
         inkscape:connector-curvature="0" />
      <path
         transform="translate(-588.88428,-442.52684)"
         id="path4226"
         d="m 1620.5137,441.51367 -164.4297,22.50195 -24.3789,58.01563 55.7695,0 13.8731,-43.25195 80.7871,-1.05469 15.2812,44.30664 53.5625,0 -30.4648,-80.51758 z"
         style="opacity:1;fill:#156294;fill-opacity:1;fill-rule:evenodd;stroke:#156294;stroke-width:4;stroke-linecap:butt;stroke-linejoin:miter;stroke-miterlimit:4;stroke-dasharray:none;stroke-opacity:1"
         inkscape:connector-curvature="0" />
      <path
         transform="translate(-588.88428,-442.52684)"
         id="path5380"
         d="m 1816.2949,414.71875 2.4024,-2.4043 7.0254,-11.60547 4.7421,-12.30664 2.459,-10.19922 0.1758,-12.48242 -1.0547,-12.31054 -4.3887,-13.71289 -8.6054,-16.17774 -11.0645,-10.90039 -13.6992,-9.14258 -5.8066,-3.66992 -6.4864,-2.43164 -108.5351,0 -0.4297,136.95117 143.2656,-19.60742 z M 1756,344.79688 l 7.377,0.70117 5.9726,1.75976 6.4961,4.04492 5.2676,5.27344 2.459,8.08789 0.3535,4.92383 -1.0547,9.14258 -3.1621,7.21094 -2.457,3.16211 -3.5137,2.11132 -5.2676,1.23243 -46.8926,0.34961 0,-47.47461 18.6172,0 15.8047,-0.52539 z"
         style="opacity:1;fill:#0e4061;fill-opacity:1;fill-rule:evenodd;stroke:#0e4061;stroke-width:4;stroke-linecap:butt;stroke-linejoin:miter;stroke-miterlimit:4;stroke-dasharray:none;stroke-opacity:1"
         inkscape:connector-curvature="0" />
      <path
         transform="translate(-588.88428,-442.52684)"
         id="path4231"
         d="m 1816.2949,414.71875 -143.2656,19.60742 -0.2754,87.70508 48.6484,0 0.1758,-88.79297 20.5489,1.75977 40.3945,87.0332 52.8594,0 -40.3907,-90.55078 12.6426,-8.08789 8.6621,-8.67383 z"
         style="opacity:1;fill:#156294;fill-opacity:1;fill-rule:evenodd;stroke:#156294;stroke-width:4;stroke-linecap:butt;stroke-linejoin:miter;stroke-miterlimit:4;stroke-dasharray:none;stroke-opacity:1"
         inkscape:connector-curvature="0" />
      <path
         transform="translate(-588.88428,-442.52684)"
         id="path5383"
         d="m 1916.9746,400.94141 -0.1035,-103.56641 -48.4727,0 -0.5195,110.28516 49.0957,-6.71875 z"
         style="opacity:1;fill:#0e4061;fill-opacity:1;fill-rule:evenodd;stroke:#0e4061;stroke-width:4;stroke-linecap:butt;stroke-linejoin:miter;stroke-miterlimit:4;stroke-dasharray:none;stroke-opacity:1"
         inkscape:connector-curvature="0" />
      <path
         transform="translate(-588.88428,-442.52684)"
         id="path4236"
         d="m 1916.9746,400.94141 -49.0957,6.71875 -0.5371,114.37304 133.3008,0 -1.4063,-45.89258 -82.1894,-1.23046 -0.072,-73.96875 z"
         style="opacity:1;fill:#156294;fill-opacity:1;fill-rule:evenodd;stroke:#156294;stroke-width:4;stroke-linecap:butt;stroke-linejoin:miter;stroke-miterlimit:4;stroke-dasharray:none;stroke-opacity:1"
         inkscape:connector-curvature="0" />
      <path
         transform="translate(-588.88428,-442.52684)"
         id="path5386"
         d="m 2074.0488,379.44336 0.1817,-82.06836 -47.6856,0 0,88.57031 47.5039,-6.50195 z"
         style="opacity:1;fill:#0e4061;fill-opacity:1;fill-rule:evenodd;stroke:#0e4061;stroke-width:4;stroke-linecap:butt;stroke-linejoin:miter;stroke-miterlimit:4;stroke-dasharray:none;stroke-opacity:1"
         inkscape:connector-curvature="0" />
      <path
         transform="translate(-588.88428,-442.52684)"
         id="path4238"
         d="m 2074.0488,379.44336 -47.5039,6.50195 0,136.08789 47.1895,0 0.3144,-142.58984 z"
         style="opacity:1;fill:#156294;fill-opacity:1;fill-rule:evenodd;stroke:#156294;stroke-width:4;stroke-linecap:butt;stroke-linejoin:miter;stroke-miterlimit:4;stroke-dasharray:none;stroke-opacity:1"
         inkscape:connector-curvature="0" />
      <path
         transform="translate(-588.88428,-442.52684)"
         id="path5369"
         d="m 1224.1152,495.76172 -48.9121,6.69336 -0.8613,18.17187 48.8223,0.70313 0.9511,-25.56836 z"
         style="opacity:1;fill:#156294;fill-opacity:1;fill-rule:evenodd;stroke:#156294;stroke-width:4;stroke-linecap:butt;stroke-linejoin:miter;stroke-miterlimit:4;stroke-dasharray:none;stroke-opacity:1"
         inkscape:connector-curvature="0" />
      <path
         transform="translate(-588.88428,-442.52684)"
         id="path5367"
         d="m 1324.7051,481.99609 -59.8438,8.18946 7.8282,23.75976 40.041,0.70313 11.9746,-32.65235 z"
         style="opacity:1;fill:#156294;fill-opacity:1;fill-rule:evenodd;stroke:#156294;stroke-width:4;stroke-linecap:butt;stroke-linejoin:miter;stroke-miterlimit:4;stroke-dasharray:none;stroke-opacity:1"
         inkscape:connector-curvature="0" />
      <path
         transform="translate(-588.88428,-442.52684)"
         id="path5365"
         d="m 1413.9551,469.78125 1.3398,-168.94336 -0.3515,-3.51562 -66.7364,0.35156 -53.0371,148.04883 -43.5547,-147.69727 -66.7363,-1.4082 0,1.75976 -9.6758,204.07813 48.9121,-6.69336 4.3184,-116.15234 36.4277,110.57617 59.8438,-8.18946 41.416,-112.93554 -2.9668,107.67383 50.8008,-6.95313 z"
         style="opacity:1;fill:#0e4061;fill-opacity:1;fill-rule:evenodd;stroke:#0e4061;stroke-width:4;stroke-linecap:butt;stroke-linejoin:miter;stroke-miterlimit:4;stroke-dasharray:none;stroke-opacity:1"
         inkscape:connector-curvature="0" />
      <path
         transform="translate(-588.88428,-442.52684)"
         id="path4249"
         d="m 1413.9551,469.78125 -50.8008,6.95313 -1.2481,45.29882 51.6329,0.35157 0.416,-52.60352 z"
         style="opacity:1;fill:#156294;fill-opacity:1;fill-rule:evenodd;stroke:#156294;stroke-width:4;stroke-linecap:butt;stroke-linejoin:miter;stroke-miterlimit:4;stroke-dasharray:none;stroke-opacity:1"
         inkscape:connector-curvature="0" />
      <path
         transform="translate(-588.88428,-442.52684)"
         id="path5393"
         d="m 2162.3828,367.35547 -47.4043,6.48828 0.6953,148.18945 46.0137,0 0.6953,-154.67773 z"
         style="opacity:1;fill:#156294;fill-opacity:1;fill-rule:evenodd;stroke:#156294;stroke-width:4;stroke-linecap:butt;stroke-linejoin:miter;stroke-miterlimit:4;stroke-dasharray:none;stroke-opacity:1"
         inkscape:connector-curvature="0" />
      <path
         transform="translate(-588.88428,-442.52684)"
         id="path4269"
         d="m 2318.0176,346.05664 -49.5645,6.7832 1.1192,100.19727 -55.6368,-92.73633 -50.5703,6.91992 89.9961,154.8125 66.5039,0 -1.8476,-175.97656 z"
         style="opacity:1;fill:#156294;fill-opacity:1;fill-rule:evenodd;stroke:#156294;stroke-width:4;stroke-linecap:butt;stroke-linejoin:miter;stroke-miterlimit:4;stroke-dasharray:none;stroke-opacity:1"
         inkscape:connector-curvature="0" />
      <path
         transform="translate(-588.88428,-442.52684)"
         id="path5389"
         d="m 2318.0176,346.05664 -0.5117,-48.68164 -49.6719,0 0.6191,55.46484 49.5645,-6.7832 z"
         style="opacity:1;fill:#0e4061;fill-opacity:1;fill-rule:evenodd;stroke:#0e4061;stroke-width:4;stroke-linecap:butt;stroke-linejoin:miter;stroke-miterlimit:4;stroke-dasharray:none;stroke-opacity:1"
         inkscape:connector-curvature="0" />
      <path
         transform="translate(-588.88428,-442.52684)"
         id="path5391"
         d="m 2213.9355,360.30078 -37.75,-62.92578 -61.5644,0 0.3574,76.46875 47.4043,-6.48828 0.01,-1.8125 0.9746,1.67773 50.5703,-6.91992 z"
         style="opacity:1;fill:#0e4061;fill-opacity:1;fill-rule:evenodd;stroke:#0e4061;stroke-width:4;stroke-linecap:butt;stroke-linejoin:miter;stroke-miterlimit:4;stroke-dasharray:none;stroke-opacity:1"
         inkscape:connector-curvature="0" />
      <path
         transform="translate(-588.88428,-442.52684)"
         id="path4271"
         d="m 2500.6074,321.06836 -143.6386,19.65625 -0.3418,0.55469 -1.9317,5.27539 -2.9844,9.66992 -2.4589,11.42969 0.3515,7.38476 1.668,8.87891 1.5801,5.62695 3.1621,8.17578 3.5996,5.45118 5.0058,5.80273 5.2676,5.36133 6.1465,4.04492 4.5664,2.63672 5.4453,2.90234 8.8692,3.60352 8.2539,2.72656 10.9765,3.51562 9.045,3.69336 8.6269,3.51758 6.0859,2.92188 5.1543,3.54297 3.7246,3.98047 2.4219,4.5371 1.4278,3.97852 0.4355,3.54297 0,3.97851 -0.5586,3.97852 -2.3594,4.53906 -2.7949,2.92188 -4.1601,3.10742 -3.7872,1.86523 -3.664,1.30664 -4.7188,0.6211 -6.2714,-0.125 -8.2579,-1.36719 -7.3281,-2.61133 -8.1328,-2.48633 -6.9551,-3.10742 -6.332,-4.10351 -4.7813,-4.47657 -4.2226,-3.48046 -6.0234,7.08593 -4.2227,5.22266 -3.7871,5.3457 -4.6563,6.2168 -4.9062,6.52734 -5.0918,6.83789 -3.9727,5.96875 0.7442,0.24805 7.3281,5.09766 8.5684,4.84961 11.3007,4.59179 16.7637,6.59766 14.0332,4.10352 11.4258,1.98828 13.9082,1.11914 9.6855,-0.6211 12.9161,-2.23828 12.791,-5.22265 13.039,-8.70313 6.8301,-6.0918 5.2149,-6.58984 6.0859,-9.32422 5.4629,-11.93555 2.1113,-9.32617 0.8692,-10.07031 0,-11.5625 -1.8614,-11.6875 -2.3593,-8.70313 -4.7207,-9.57226 -6.4571,-7.95898 -6.209,-5.34571 -11.0527,-6.96289 -8.6914,-4.10156 -10.9297,-4.10352 -16.3926,-6.46484 -14.9004,-5.4707 -10.0586,-5.09766 -5.3398,-8.82812 0,-9.69727 1.2402,-2.48633 6.086,-6.83789 6.8301,-4.10351 7.3261,-2.36329 7.6992,-0.86914 9.8106,1.24219 9.6875,2.86133 10.9277,4.84765 7.8242,5.71876 6.8301,-6.96094 9.1895,-12.06055 12.9687,-18.08203 z"
         style="opacity:1;fill:#156294;fill-opacity:1;fill-rule:evenodd;stroke:#156294;stroke-width:4;stroke-linecap:butt;stroke-linejoin:miter;stroke-miterlimit:4;stroke-dasharray:none;stroke-opacity:1"
         inkscape:connector-curvature="0" />
      <path
         transform="translate(-588.88428,-442.52684)"
         id="path5396"
         d="m 2500.6074,321.06836 0.3184,-0.44336 -13.9082,-11.43945 -8.8184,-4.22657 -7.4512,-2.36132 -9.8105,-2.48828 -16.1426,-2.73438 -7.2031,0 -9.1777,0.95703 -10.625,1.71485 -8.2989,2.0664 -8.4297,2.59375 -7.1132,2.8125 -6.7618,3.73633 -8.6054,6.10937 -9.6582,8.79297 -8.6055,9.14258 -3.3476,5.42383 143.6386,-19.65625 z"
         style="opacity:1;fill:#0e4061;fill-opacity:1;fill-rule:evenodd;stroke:#0e4061;stroke-width:4;stroke-linecap:butt;stroke-linejoin:miter;stroke-miterlimit:4;stroke-dasharray:none;stroke-opacity:1"
         inkscape:connector-curvature="0" />
      <path
         transform="translate(-588.88428,-442.52684)"
         id="path4273"
         d="m 2593.3984,308.36914 -50.8691,6.96094 -17.6563,76.93945 47.418,-0.35156 21.1074,-83.54883 z"
         style="opacity:1;fill:#156294;fill-opacity:1;fill-rule:evenodd;stroke:#156294;stroke-width:4;stroke-linecap:butt;stroke-linejoin:miter;stroke-miterlimit:4;stroke-dasharray:none;stroke-opacity:1"
         inkscape:connector-curvature="0" />
      <path
         transform="translate(-588.88428,-442.52684)"
         id="path5399"
         d="m 2593.3984,308.36914 2.7774,-10.99414 -49.5254,0 -4.1211,17.95508 50.8691,-6.96094 z"
         style="opacity:1;fill:#0e4061;fill-opacity:1;fill-rule:evenodd;stroke:#0e4061;stroke-width:4;stroke-linecap:butt;stroke-linejoin:miter;stroke-miterlimit:4;stroke-dasharray:none;stroke-opacity:1"
         inkscape:connector-curvature="0" />
      <path
         inkscape:connector-curvature="0"
         id="path4275"
         d="m 2060.5658,-52.027343 -8.1985,1.863022 -11.5479,4.601803 -7.9484,4.849302 -8.1958,6.464828 -10.0592,8.452953 -10.0594,9.948812 -9.437,9.6958775 -13.4115,14.6730058 -11.1758,12.8045387 -11.3007,14.297684 -8.8177,10.941517 -7.6987,11.686731 -6.707,10.443807 -6.085,10.808254 -8.3206,15.551483 -34.1494,-0.250219 0,11.314124 28.0644,0.62283 -8.0708,16.90862 -8.5679,15.29311 -9.4399,17.53145 -7.9458,16.41093 -4.8435,11.0639 -7.3265,10.44381 -9.6871,11.93694 -11.5506,12.92965 -9.065,9.69859 -9.3122,8.57807 -9.3149,6.34244 -9.19,3.97898 -5.96,0.74522 -5.8378,-1.61553 -4.5936,-2.73606 -1.4914,-3.97899 -0.7443,-7.21003 1.7386,-6.34244 2.98,-8.95066 4.0992,-8.58079 5.5879,-11.18902 8.5679,-16.53603 9.0948,-16.5061 10.5374,-17.22957 10.8878,-17.23228 9.8365,-15.82618 8.7797,-11.95597 -20.3711,-1.40612 -18.6163,0.35086 -1.054,6.33155 -1.4044,4.92274 -0.7036,0.96822 -2.9854,-5.71689 -1.3175,-3.69069 -4.2133,-4.39511 -6.7614,-2.464079 -5.5336,-0.614667 -6.4979,0.08703 -6.3213,0.881193 -8.0789,1.756954 -11.0644,3.429599 -7.9892,3.42959 -9.2226,3.86748 -8.8667,4.57188 -8.3424,4.92274 -5.0935,3.42959 -6.6744,4.92272 -5.4439,4.30808 -5.6531,4.72147 -5.2157,4.7242 -4.8408,5.46939 -5.0935,6.71505 -4.4877,7.29434 -5.1804,7.73495 -5.2673,7.56087 -3.5124,4.83571 -10.2739,11.07751 -7.1118,7.64791 -5.9736,6.41859 -7.6389,7.56088 -6.0578,6.41858 -4.9169,4.83299 -7.1145,6.59536 -6.9353,4.74596 -6.851,4.66163 -6.9353,3.78045 -7.0249,1.84399 -7.8154,1.05525 -8.1686,-0.26381 -6.1447,-2.11052 -6.7614,-4.65892 -4.4795,-5.71418 -2.5454,-6.15477 -1.1437,-8.61343 0.7905,-7.56087 1.8446,-9.23352 3.4255,-10.90073 4.1264,-11.51538 4.8299,-10.02226 3.776,-6.50561 6.2344,-8.79292 6.1474,-8.26259 7.3754,-8.35231 7.1118,-7.56089 5.884,-5.62715 8.519,-6.94621 9.1302,-5.53739 9.2225,-4.57189 8.1659,-1.93374 4.9169,0.87847 4.4795,3.25282 2.3688,5.71418 -0.527,5.54011 -2.195,5.97799 -4.9168,5.27358 -7.7285,6.59537 -8.8667,5.71417 -7.9051,5.09952 -6.0578,5.62444 -4.3899,6.15477 -0.4401,6.76944 1.4045,5.36332 3.0751,3.86747 4.8598,1.30548 7.2015,1.24292 7.7013,-1.24292 8.6928,-4.47669 5.9601,-7.21005 6.707,-10.4438 3.7244,-9.20088 2.4829,-12.18445 1.7385,-11.68673 -0.4971,-5.2219 -1.9858,-8.70317 -3.2299,-7.21003 -7.2015,-4.974417 -13.6613,-0.745201 -11.423,1.988128 -19.8713,6.21734 -14.4029,7.46024 -11.6756,7.21003 -8.94,7.21276 -10.1842,10.44381 -8.1957,8.95066 -5.7129,7.70775 -5.4629,8.70318 -6.2099,9.69859 -3.9743,10.94153 -3.4771,13.92508 -0.7443,11.68671 1.4913,9.44839 2.7301,10.94152 5.9628,10.19631 6.2072,6.71232 8.1984,5.22191 10.9258,3.48126 10.9286,1.99086 12.917,0 10.4314,-1.99086 11.6729,-4.22648 10.1815,-6.21732 9.687,-8.45296 10.4315,-9.4511 9.1899,-10.19359 14.1558,-15.168 0,16.65842 0.2499,7.71047 1.4886,6.71232 3.9743,8.95339 5.2157,5.71961 6.9543,5.2219 5.7128,2.23563 8.1957,1.74064 8.6929,0 13.9085,-2.48585 13.1642,-6.71232 7.9486,-6.21732 8.94,-7.95797 10.1842,-10.94152 1.2414,11.93695 2.7301,7.70774 5.2157,6.71505 5.9628,5.46939 5.2157,2.48585 8.1957,2.48856 10.1815,0.49771 12.4199,-2.23834 9.6871,-4.2292 10.9258,-7.21004 18.3799,-22.13053 -19.1242,27.59993 -7.9485,14.1753 -7.4487,12.18444 -6.4599,8.70317 -6.2072,9.6986 -6.4572,10.19358 -6.9542,11.18903 -8.538,10.86264 -7.2015,9.49462 -9.3068,11.25429 -9.8365,8.7902 -11.0643,8.2653 -10.5374,7.20731 -9.3068,4.57188 -10.7139,4.22104 -10.7112,2.63815 -8.4321,0.87848 -6.3213,0 -3.3359,-1.05526 -4.743,-3.86747 -3.5124,-2.989 -2.6351,-0.52762 -4.2133,2.28458 -2.108,3.34256 -0.8774,4.21832 1.9314,5.62714 3.5125,3.16578 6.4979,2.1078 10.1869,0.52763 12.8192,-1.93373 20.0207,-6.85647 25.4646,-11.07751 26.6952,-16.35381 29.3302,-25.8457 20.0207,-22.3318 20.5477,-26.02249 20.5477,-27.2518 13.6966,-21.45332 7.9051,-13.88972 7.5519,-16.87871 11.4121,-24.65446 11.6728,-22.62825 7.9458,-18.64927 8.4457,-17.90405 5.8378,-11.31413 3.7243,-6.96254 14.7778,0 14.2808,-0.24749 11.0534,-0.49772 11.0509,-0.62281 0.747,-10.816419 -25.8314,-0.372607 -4.4713,-0.49771 11.9227,-9.323271 7.8235,-5.977993 9.4373,-7.326985 6.9542,-6.339711 5.7128,-6.715048 8.0708,-8.330565 8.9427,-7.582636 6.3323,-6.715047 5.7128,-6.589931 6.3349,-7.210042 5.8351,-8.330566 6.4572,-9.8209798 5.5877,-9.2008826 6.2101,-11.3141246 3.8493,-8.330579 1.1191,-8.950663 -0.3721,-8.330565 -2.8578,-5.594512 -5.0908,-3.731485 -7.6985,-1.117813 z m 0.641,9.331433 2.4585,1.055256 1.2305,2.28459 -0.8773,9.320555 -4.2161,9.141046 -5.4438,10.375811 -5.971,9.84546047 -7.7284,11.42835153 -6.6718,8.969712 -9.8365,11.428352 -9.4833,10.196317 -8.7798,8.088505 -8.6059,9.84819 -10.0104,10.022239 -11.4147,10.196317 -14.7535,9.320555 0.3505,-4.395102 5.2701,-11.254289 8.9562,-16.000246 9.8338,-16.527868 8.432,-13.011243 7.3755,-11.077509 9.6599,-13.538864 8.7797,-12.4836218 8.079,-10.0222392 9.4832,-10.375811 9.8338,-7.384106 7.9051,-4.221038 6.1447,-1.22932 z m -259.7448,152.09338 4.5665,0.70442 2.8116,5.27356 0.7008,9.14378 -1.7548,10.54987 -5.2701,13.71295 -7.0249,14.06649 -8.0789,16.5306 -11.2382,16.1743 -8.4348,10.03313 -8.94,9.32327 -11.4257,9.94609 -9.065,7.46025 -7.9485,6.84015 -10.8036,5.96712 -5.3406,1.24291 -6.2073,-0.49771 -3.727,-1.86574 -4.9658,-7.08492 -0.1249,-9.57349 1.8635,-8.45568 3.4772,-10.56891 3.6754,-8.72221 4.9196,-10.54989 7.5492,-11.95597 5.6205,-8.967 9.4833,-10.19903 9.8365,-10.19631 11.5914,-11.60513 11.9418,-9.84819 11.9417,-8.0885 12.2923,-6.67969 8.0789,-2.11052 z"
         style="opacity:1;fill:#234887;fill-opacity:1;fill-rule:evenodd;stroke:#234887;stroke-width:4.5;stroke-linecap:butt;stroke-linejoin:miter;stroke-miterlimit:4;stroke-dasharray:none;stroke-opacity:1" />
      <path
         inkscape:connector-curvature="0"
         id="path4283"
         d="m 2076.1368,97.441488 -9.6599,0.701684 -13.6993,2.551128 -12.0288,3.9545 -8.8694,3.42959 -8.519,4.48485 -10.0104,5.27358 -8.4292,4.83571 -7.8155,5.45036 -7.2884,5.01248 -6.7613,4.74594 -7.1988,6.4186 -9.1329,8.96698 -5.884,6.50563 -3.9526,6.41859 -5.4439,11.0775 -2.4584,7.64792 -2.3715,8.08851 -1.8418,11.86895 -0.44,8.87995 1.2278,11.77921 2.0211,5.80393 4.8298,9.84546 6.8485,8.43935 8.8693,7.12029 8.9564,3.69341 11.5045,2.98899 15.9812,1.66992 11.7652,-2.81221 9.3963,-4.57188 10.1871,-7.03325 7.0248,-6.32885 6.1476,-5.71417 5.0906,-4.04426 6.938,-6.15477 4.917,-5.18655 5.2699,-5.80393 6.8484,-7.91173 6.0606,-6.94621 8.1385,-9.55717 4.5964,-6.58993 5.2157,-8.20547 1.1166,-3.85659 0,-3.48127 -0.8693,-1.11782 -1.1166,-0.37259 -2.4828,1.49041 -2.9828,2.98628 -4.5936,5.34429 -5.7128,6.96254 -6.085,7.71046 -8.6928,10.31871 -6.2101,6.83742 -6.8292,6.58993 -7.5736,6.83744 -7.1907,6.06231 -10.0103,8.0885 -8.9564,6.85647 -9.4833,4.74595 -9.8365,3.16578 -10.1869,0.17678 -8.0763,-1.93374 -9.1329,-6.85918 -3.3386,-6.85647 -1.7548,-9.49462 1.581,-11.25429 2.8089,-10.02225 2.8116,-7.38409 5.6177,-11.95599 5.7102,-0.96823 10.0973,-1.58289 8.6059,-1.8467 11.2381,-2.72518 12.9959,-3.16306 10.8905,-3.51663 8.9563,-2.55111 9.1329,-3.42688 11.3279,-4.48485 11.4148,-5.71418 7.6388,-6.6824 5.5308,-6.59266 4.83,-7.12028 2.4585,-7.82469 0.089,-6.94622 -1.581,-8.00149 -3.689,-7.20731 -3.776,-4.39511 -4.4768,-2.28729 -7.1146,-2.197555 -9.1301,-1.142287 z m -5.3895,10.296942 5.7128,0.74521 3.4771,4.97168 0.4971,6.96254 -4.9684,9.6986 -8.6929,10.19631 -8.443,8.20546 -11.1784,8.20545 -15.8943,8.20547 -14.1557,5.2219 -12.6672,3.48127 -10.1841,1.24292 2.4828,-6.71232 8.4457,-10.69402 9.9343,-12.18444 9.9343,-9.9461 9.1899,-8.20546 8.4456,-5.22191 10.6787,-6.71503 9.9343,-5.2219 7.4514,-2.23563 z"
         style="opacity:1;fill:#234887;fill-opacity:1;fill-rule:evenodd;stroke:#234887;stroke-width:4.5;stroke-linecap:butt;stroke-linejoin:miter;stroke-miterlimit:4;stroke-dasharray:none;stroke-opacity:1" />
      <path
         inkscape:connector-curvature="0"
         id="path4288"
         d="m 586.15928,-8.4092148 13.34727,11.6048103 13.69851,10.5498465 25.99204,23.561298 16.85971,17.583068 21.07463,24.616304 11.59105,13.71478 10.53731,10.901498 6.32239,12.30814 3.51244,15.12143 1.40497,14.06646 -0.70248,15.82476 -4.56617,20.04469 -4.56616,16.17641 -6.3224,18.63806 -7.02487,15.12144 -5.6199,17.23139 -6.67364,19.69303 -6.32238,15.82477 -6.3224,18.28638 -6.32239,11.95649 -10.18607,16.52807 -4.21493,6.68156 0,3.16496 4.21493,0.35165 3.86369,0.70333 9.83481,-4.5716 9.83484,-6.3299 7.37611,-9.14319 7.02488,-9.14319 9.13235,-13.36313 7.72737,-18.63806 13.6985,-26.37459 9.48358,-17.93472 8.78111,-18.28638 7.02487,-15.4731 7.72737,-14.41812 12.99602,-18.63805 10.88855,-8.0882 14.75224,-3.51662 13.69852,-1.05498 18.61592,1.40664 12.29354,3.16496 -4.56617,2.46162 -8.7811,2.10997 -4.56617,2.8133 8.42986,3.16494 8.42984,1.40664 7.02488,2.8133 6.32239,2.81329 9.13234,3.86827 8.42986,3.51661 7.37612,3.51663 11.94229,4.21992 7.37612,-1.05498 6.32238,-1.7583 5.26866,-4.57161 4.56617,-5.27491 15.45474,5.62658 12.64477,5.62658 12.64478,4.92325 14.401,5.97824 14.75224,2.10997 9.13234,2.10997 1.75622,5.97825 -2.45871,12.30814 -3.51244,13.36312 -3.16119,5.62659 -5.26866,15.47309 -7.37611,10.54984 -4.91743,8.79154 1.75622,2.46163 9.48359,-2.10997 8.42985,-2.10997 11.9423,-4.21994 14.75221,-12.30813 9.8349,-9.14321 8.4298,-8.0882 9.8348,-9.84652 7.3762,-7.73655 3.1611,-3.16494 20.021,2.46162 15.8059,2.46163 23.8846,1.05498 16.1572,0.70332 14.7523,-1.05497 18.6159,0 18.9672,-0.35167 30.5582,-1.7583 23.8845,-2.10997 23.8846,-1.75831 -12.996,6.3299 -14.401,5.97824 -15.1035,4.92327 -11.591,3.51661 -9.8348,1.40664 -2.4588,1.7583 0.3513,4.21994 2.4587,2.10997 3.5124,0 10.1861,-2.46163 19.3184,-4.92325 21.0654,-7.66002 14.6536,-6.21654 16.1439,-6.96254 -11.9216,12.18444 -8.4445,8.20584 -9.4379,6.96254 -21.608,13.92507 -11.1765,6.96254 -4.9673,2.98395 -2.2353,3.48127 0.9935,2.48661 4.4706,0.24868 9.1895,-4.22727 12.6667,-7.45986 10.9282,-5.96789 10.9281,-6.46521 9.9347,-7.21119 8.4445,-7.21122 8.9412,-8.4545 10.183,-11.43846 28.8106,0.74598 14.902,0.746 10.9282,-0.49732 c 0,0 10.183,-1.49198 11.6732,-1.49198 1.4902,0 14.902,-2.48663 14.902,-2.48663 l 9.2335,-1.46898 19.2306,-4.83534 18.4403,-3.51661 12.4692,-1.58248 15.9815,-1.58247 19.1428,-0.17583 15.4548,1.23081 7.903,0.17583 -2.81,-5.80241 -5.093,-4.57159 -7.903,-3.86828 -12.1179,-6.8574 -8.2543,-3.86827 -10.3616,-3.51662 -9.308,-3.16494 -11.0642,-2.63747 -9.308,-3.34078 -9.3079,-1.58247 -7.0249,-2.8133 9.1323,-5.27491 9.308,-3.69245 9.8348,-4.21993 8.9568,-2.98912 10.186,-3.51661 c 0,0 18.0891,-6.8574 19.6697,-7.73655 1.5806,-0.87916 20.3721,-6.15408 20.3721,-6.15408 l 13.3473,-1.93413 17.5622,-2.63745 17.3866,-2.63747 17.2109,-4.39577 c 0,0 27.0458,-5.97824 26.6945,-6.15406 -0.3512,-0.17583 14.0498,-2.98913 14.0498,-2.98913 l 20.1965,-4.57159 16.8559,-5.18396 15.3987,-3.9786 16.889,-3.232609 13.1634,-2.983935 5.7125,-5.221904 -0.2484,-8.58687 -16.8889,8.089536 -14.902,3.481269 -21.1112,4.475923 -34.7714,7.70852 -24.0916,4.72458 -23.3465,4.97325 -16.8889,1.98929 -26.8237,4.22726 -28.5622,0.99464 -29.3073,-1.74063 -21.6079,-2.73528 -21.3595,-8.70317 -14.1569,-6.46522 -13.6602,-10.195143 -19.1243,-10.824825 -12.4183,-13.295398 -7.111,-11.320906 -4.7418,-14.769771 -1.7562,-8.439877 -1.405,-11.956474 -3.3368,-14.2422893 -3.5125,-18.8138777 -2.6343,-10.198169 -4.2149,-10.90151 -5.4443,-9.143191 -6.3224,-6.681558 -5.4443,-2.285801 -0.8781,1.758305 0.3512,5.62658 0.1757,8.791528 -1.405,8.439877 -2.2831,9.143191 -3.8637,5.099084 -6.498,9.8465188 -7.5517,4.9232663 -4.5662,7.3848855 -5.093,6.5057264 -10.5374,9.494854 -14.4009,8.264046 -15.9816,5.978244 -15.9816,4.219924 -16.8597,1.934138 -17.7379,1.406655 -17.2109,1.582474 -26.1677,1.230809 -20.899,1.758306 -19.8453,0.527495 -25.4651,4.571603 -31.7876,3.868261 -23.8846,4.571602 -19.66965,4.044107 -35.47563,6.85739 -18.79154,4.219952 -27.57264,7.384872 -5.97115,2.109969 -5.6199,-5.274916 -6.67364,-4.219925 -6.84925,-6.857404 -7.02487,0.35165 -7.72737,6.505754 -8.07861,0 -10.53731,7.912367 -10.01046,5.450749 -12.29354,2.285801 -3.51244,0.351664 1.05374,3.164947 5.61991,1.75831 8.07859,2.81328 c 0,0 3.86369,0.17583 5.61991,0.70333 1.75623,0.52749 4.56617,1.7583 4.56617,1.7583 l -8.60547,1.93414 -15.45473,0.70333 -19.31841,0.70331 -16.50846,0.5275 -11.59105,-0.70333 -8.07861,-2.28579 -9.30797,-5.0991 -7.72736,-7.209051 L 734.20857,83.374373 729.6424,79.506112 701.36727,55.9448 679.9414,37.30674 658.51552,18.31703 638.14338,2.8439455 616.01502,-7.7059009 595.29162,-10.870848 Z"
         style="opacity:1;fill:#112847;fill-opacity:1;fill-rule:evenodd;stroke:#112847;stroke-width:2;stroke-linecap:butt;stroke-linejoin:miter;stroke-miterlimit:4;stroke-dasharray:none;stroke-opacity:1" />
      <path
         inkscape:connector-curvature="0"
         id="path4348"
         d="m 692.31129,79.506112 7.451,11.570805 12.41834,4.973244 6.45755,7.459869 4.96734,19.89296 6.45754,15.91437 -6.95427,23.37425 -3.97388,27.35281 -10.92814,24.36889 -7.45101,16.4117 1.49021,3.48127 1.98693,0 5.9608,-7.95719 4.96734,-14.4224 9.43794,-16.4117 7.94774,-16.41169 12.91508,-12.43311 17.38568,-9.44916 24.33996,-5.47057 24.33995,-0.99464 21.35957,0.99464 27.32035,5.47057 23.84323,9.94649 20.86282,6.46521 35.76484,12.93042 42.22237,11.43847 46.19623,13.42775 42.2224,6.46521 46.1962,2.98394 41.2289,-0.49732 52.1571,-1.98929 48.1832,-3.9786 42.7191,2.98395 28.3138,-1.9893 22.353,0.99464 24.8367,-4.47591 26.3269,-5.9679 26.3269,-3.97858 26.8236,-1.49198 9.438,0 -17.8824,-9.94647 -18.8759,-5.47058 -17.3857,-4.97323 -18.3792,-4.47592 -14.902,-6.46522 5.4641,-4.97324 17.3857,-8.95184 18.3791,-7.45985 16.3922,-4.97325 15.8955,-5.96788 7.9478,-2.98395 17.3857,-2.98395 -29.8041,-2.48661 -23.8432,1.98929 -28.3138,1.49197 -32.2877,2.98395 -16.889,2.48662 -12.915,0.99465 -1.2419,9.44916 -0.4967,7.45985 2.4836,6.46522 4.4707,7.2112 1.7385,3.23261 -0.9934,2.73529 -3.4772,-0.99466 -3.9739,-3.23261 -4.4706,-5.96788 -1.4902,-8.45451 0.7451,-7.2112 2.4837,-10.44381 -11.4249,3.97859 -8.1961,1.49198 -8.4445,0.24866 -6.2091,-2.98395 -5.7125,-5.71923 -5.9608,-4.47592 -11.4249,-2.73527 -23.5948,-3.23261 -21.1112,-2.23796 -45.4511,-3.72993 -25.0851,0.24866 -24.5883,-0.49733 -21.6079,0.24867 -32.5361,-0.99465 -28.0655,0.24866 -24.5883,0.24866 -19.621,-1.49198 -38.00012,1.74064 -37.50339,2.23797 -34.02628,1.49197 -28.56218,3.72993 -18.87589,-0.24866 -14.90202,-1.24331 -26.07853,1.49197 -20.36607,1.2433 -16.14386,-1.49196 -15.64712,-2.23797 -7.69937,-0.99464 -11.67325,-2.23797 -6.20916,-8.95183 -5.96081,-10.69247 -4.96734,-7.957188 -6.95428,-6.962538 -4.84222,-3.784279 -9.48358,-2.813283 -5.26866,0 z"
         style="opacity:1;fill:#9eb2c8;fill-opacity:1;fill-rule:evenodd;stroke:none;stroke-width:1px;stroke-linecap:butt;stroke-linejoin:miter;stroke-opacity:1" />
      <path
         inkscape:connector-curvature="0"
         id="path4350"
         d="m 1117.0187,142.30131 17.3857,-6.96254 19.1242,-3.23261 15.8955,-1.24331 21.3596,1.24331 19.8693,3.48127 26.5753,7.70852 17.8824,7.45987 15.8955,11.43845 0.7451,2.98395 -13.6602,-2.23795 -11.4249,-4.47593 -13.1634,-2.73527 -14.4053,-3.48127 -9.4379,-0.24868 15.1503,9.20051 7.4511,4.97324 8.6928,8.70318 5.4641,9.94647 -6.4576,-0.24866 -9.1895,-5.96788 -11.9217,-7.2112 -13.6601,-8.45451 -10.1831,-5.22191 -15.1504,-5.47056 -21.1112,-4.47592 -13.1634,-0.99466 -19.3726,-2.48661 z"
         style="opacity:1;fill:#1d4c8a;fill-opacity:1;fill-rule:evenodd;stroke:#000000;stroke-width:2;stroke-linecap:butt;stroke-linejoin:miter;stroke-miterlimit:4;stroke-dasharray:none;stroke-opacity:1" />
      <path
         inkscape:connector-curvature="0"
         id="path4352"
         d="m 1379.4435,134.71692 -1.0537,5.62658 2.81,4.57159 3.688,1.40666 4.5662,-0.17584 2.8099,-2.46163 2.2831,-3.69244 -0.1756,-4.39577 -2.4587,-3.51661 -2.81,-1.93414 -4.3905,0.35166 -4.5662,3.69245 z"
         style="opacity:1;fill:none;fill-rule:evenodd;stroke:#000000;stroke-width:2.20000005;stroke-linecap:butt;stroke-linejoin:miter;stroke-miterlimit:4;stroke-dasharray:none;stroke-opacity:1" />
      <ellipse
         ry="3.2697806"
         rx="2.0622652"
         cy="137.3544"
         cx="1386.7318"
         id="path4354"
         style="opacity:1;fill:#203f66;fill-opacity:1;stroke:none;stroke-width:2.20000005;stroke-linejoin:miter;stroke-miterlimit:4;stroke-dasharray:none;stroke-opacity:1" />
      <ellipse
         ry="3.1649513"
         rx="1.7562193"
         cy="61.219704"
         cx="1260.5475"
         id="path4356"
         style="opacity:1;fill:#1f649f;fill-opacity:1;stroke:none;stroke-width:2.20000005;stroke-linejoin:miter;stroke-miterlimit:4;stroke-dasharray:none;stroke-opacity:1" />
      <ellipse
         ry="3.9122319"
         rx="1.8220774"
         cy="80.121529"
         cx="1263.6428"
         id="path4360"
         style="opacity:1;fill:#1f649f;fill-opacity:1;stroke:none;stroke-width:2.20000005;stroke-linejoin:miter;stroke-miterlimit:4;stroke-dasharray:none;stroke-opacity:1" />
      <ellipse
         ry="3.3847399"
         rx="1.953794"
         cy="98.715591"
         cx="1264.521"
         id="path4362"
         style="opacity:1;fill:#1f649f;fill-opacity:1;stroke:none;stroke-width:2.20000005;stroke-linejoin:miter;stroke-miterlimit:4;stroke-dasharray:none;stroke-opacity:1" />
      <ellipse
         ry="5.6705379"
         rx="1.7342664"
         cy="118.05699"
         cx="1267.1113"
         id="path4364"
         style="opacity:1;fill:#1f649f;fill-opacity:1;stroke:none;stroke-width:2.20000005;stroke-linejoin:miter;stroke-miterlimit:4;stroke-dasharray:none;stroke-opacity:1" />
      <ellipse
         ry="4.7254486"
         rx="2.2611325"
         cy="136.40929"
         cx="1269.2189"
         id="path4366"
         style="opacity:1;fill:#1f649f;fill-opacity:1;stroke:none;stroke-width:2.20000005;stroke-linejoin:miter;stroke-miterlimit:4;stroke-dasharray:none;stroke-opacity:1" />
      <ellipse
         ry="2.1099677"
         rx="1.6464556"
         cy="150.23399"
         cx="1269.614"
         id="path4368"
         style="opacity:1;fill:#1f649f;fill-opacity:1;stroke:none;stroke-width:2.20000005;stroke-linejoin:miter;stroke-miterlimit:4;stroke-dasharray:none;stroke-opacity:1" />
      <ellipse
         ry="5.8903265"
         rx="3.2929113"
         cy="58.670158"
         cx="1195.3479"
         id="path4370"
         style="opacity:1;fill:#1f649f;fill-opacity:1;stroke:none;stroke-width:2.20000005;stroke-linejoin:miter;stroke-miterlimit:4;stroke-dasharray:none;stroke-opacity:1" />
      <ellipse
         ry="3.1649513"
         rx="2.4587069"
         cy="73.176201"
         cx="1194.6892"
         id="path4372"
         style="opacity:1;fill:#1f649f;fill-opacity:1;stroke:none;stroke-width:2.20000005;stroke-linejoin:miter;stroke-miterlimit:4;stroke-dasharray:none;stroke-opacity:1" />
      <ellipse
         ry="3.5166128"
         rx="2.0635576"
         cy="87.770164"
         cx="1194.382"
         id="path4374"
         style="opacity:1;fill:#1f649f;fill-opacity:1;stroke:none;stroke-width:2.20000005;stroke-linejoin:miter;stroke-miterlimit:4;stroke-dasharray:none;stroke-opacity:1" />
      <ellipse
         ry="3.3407819"
         rx="2.1513686"
         cy="103.06739"
         cx="1194.4697"
         id="path4376"
         style="opacity:1;fill:#1f649f;fill-opacity:1;stroke:none;stroke-width:2.20000005;stroke-linejoin:miter;stroke-miterlimit:4;stroke-dasharray:none;stroke-opacity:1" />
      <ellipse
         ry="3.2528667"
         rx="1.8440303"
         cy="116.34261"
         cx="1194.7771"
         id="path4378"
         style="opacity:1;fill:#1f649f;fill-opacity:1;stroke:none;stroke-width:2.20000005;stroke-linejoin:miter;stroke-miterlimit:4;stroke-dasharray:none;stroke-opacity:1" />
      <ellipse
         ry="1.6264334"
         rx="1.4927864"
         cy="166.32249"
         cx="1192.7574"
         id="path4380"
         style="opacity:1;fill:#1f649f;fill-opacity:1;stroke:none;stroke-width:2.20000005;stroke-linejoin:miter;stroke-miterlimit:4;stroke-dasharray:none;stroke-opacity:1" />
      <ellipse
         ry="2.5935018"
         rx="1.6245029"
         cy="181.09222"
         cx="1192.4501"
         id="path4382"
         style="opacity:1;fill:#1f649f;fill-opacity:1;stroke:none;stroke-width:2.20000005;stroke-linejoin:miter;stroke-miterlimit:4;stroke-dasharray:none;stroke-opacity:1" />
      <ellipse
         ry="3.0771933"
         rx="2.6699443"
         cy="60.709072"
         cx="1122.7311"
         id="path4384"
         style="opacity:1;fill:#1f649f;fill-opacity:1;stroke:none;stroke-width:2.20000005;stroke-linejoin:miter;stroke-miterlimit:4;stroke-dasharray:none;stroke-opacity:1" />
      <ellipse
         ry="2.6731172"
         rx="2.3905315"
         cy="74.478745"
         cx="1122.5759"
         id="path4386"
         style="opacity:1;fill:#1f649f;fill-opacity:1;stroke:none;stroke-width:2.20000005;stroke-linejoin:miter;stroke-miterlimit:4;stroke-dasharray:none;stroke-opacity:1" />
      <ellipse
         ry="3.201524"
         rx="2.0800729"
         cy="89.118729"
         cx="1122.7001"
         id="path4388"
         style="opacity:1;fill:#1f649f;fill-opacity:1;stroke:none;stroke-width:2.20000005;stroke-linejoin:miter;stroke-miterlimit:4;stroke-dasharray:none;stroke-opacity:1" />
      <ellipse
         ry="3.6055999"
         rx="2.4215775"
         cy="104.81551"
         cx="1122.1102"
         id="path4390"
         style="opacity:1;fill:#1f649f;fill-opacity:1;stroke:none;stroke-width:2.20000005;stroke-linejoin:miter;stroke-miterlimit:4;stroke-dasharray:none;stroke-opacity:1" />
      <ellipse
         ry="3.2326069"
         rx="2.297394"
         cy="118.24325"
         cx="1121.6135"
         id="path4392"
         style="opacity:1;fill:#1f649f;fill-opacity:1;stroke:none;stroke-width:2.20000005;stroke-linejoin:miter;stroke-miterlimit:4;stroke-dasharray:none;stroke-opacity:1" />
      <ellipse
         ry="2.9217794"
         rx="1.9248435"
         cy="132.35484"
         cx="1120.1233"
         id="path4394"
         style="opacity:1;fill:#1f649f;fill-opacity:1;stroke:none;stroke-width:2.20000005;stroke-linejoin:miter;stroke-miterlimit:4;stroke-dasharray:none;stroke-opacity:1" />
      <ellipse
         ry="2.6109517"
         rx="2.0179811"
         cy="155.60472"
         cx="1119.7819"
         id="path4396"
         style="opacity:1;fill:#1f649f;fill-opacity:1;stroke:none;stroke-width:2.20000005;stroke-linejoin:miter;stroke-miterlimit:4;stroke-dasharray:none;stroke-opacity:1" />
      <ellipse
         ry="2.4555378"
         rx="1.7075225"
         cy="170.86638"
         cx="1119.7819"
         id="path4398"
         style="opacity:1;fill:#1f649f;fill-opacity:1;stroke:none;stroke-width:2.20000005;stroke-linejoin:miter;stroke-miterlimit:4;stroke-dasharray:none;stroke-opacity:1" />
      <ellipse
         ry="5.4084001"
         rx="3.3529534"
         cy="191.97157"
         cx="1117.8879"
         id="path4400"
         style="opacity:1;fill:#1f649f;fill-opacity:1;stroke:none;stroke-width:2.20000005;stroke-linejoin:miter;stroke-miterlimit:4;stroke-dasharray:none;stroke-opacity:1" />
      <ellipse
         ry="3.5605705"
         rx="2.5904233"
         cy="70.934364"
         cx="1043.6105"
         id="path4402"
         style="opacity:1;fill:#1f649f;fill-opacity:1;stroke:none;stroke-width:2.20000005;stroke-linejoin:miter;stroke-miterlimit:4;stroke-dasharray:none;stroke-opacity:1" />
      <ellipse
         ry="2.989121"
         rx="3.1172893"
         cy="84.07769"
         cx="1043.7861"
         id="path4404"
         style="opacity:1;fill:#1f649f;fill-opacity:1;stroke:none;stroke-width:2.20000005;stroke-linejoin:miter;stroke-miterlimit:4;stroke-dasharray:none;stroke-opacity:1" />
      <ellipse
         ry="3.0770361"
         rx="1.8440303"
         cy="97.528763"
         cx="1044.7081"
         id="path4406"
         style="opacity:1;fill:#1f649f;fill-opacity:1;stroke:none;stroke-width:2.20000005;stroke-linejoin:miter;stroke-miterlimit:4;stroke-dasharray:none;stroke-opacity:1" />
      <ellipse
         ry="2.6814172"
         rx="2.3269906"
         cy="109.08962"
         cx="1044.5764"
         id="path4408"
         style="opacity:1;fill:#1f649f;fill-opacity:1;stroke:none;stroke-width:2.20000005;stroke-linejoin:miter;stroke-miterlimit:4;stroke-dasharray:none;stroke-opacity:1" />
      <ellipse
         ry="2.1978829"
         rx="1.9757466"
         cy="122.32086"
         cx="1043.6982"
         id="path4410"
         style="opacity:1;fill:#1f649f;fill-opacity:1;stroke:none;stroke-width:2.20000005;stroke-linejoin:miter;stroke-miterlimit:4;stroke-dasharray:none;stroke-opacity:1" />
      <ellipse
         ry="3.3407819"
         rx="1.5366919"
         cy="137.88187"
         cx="1045.1033"
         id="path4412"
         style="opacity:1;fill:#1f649f;fill-opacity:1;stroke:none;stroke-width:2.20000005;stroke-linejoin:miter;stroke-miterlimit:4;stroke-dasharray:none;stroke-opacity:1" />
      <ellipse
         ry="2.1978829"
         rx="1.7123139"
         cy="149.22293"
         cx="1043.4349"
         id="path4414"
         style="opacity:1;fill:#1f649f;fill-opacity:1;stroke:none;stroke-width:2.20000005;stroke-linejoin:miter;stroke-miterlimit:4;stroke-dasharray:none;stroke-opacity:1" />
      <ellipse
         ry="4.0001469"
         rx="2.0635576"
         cy="165.09169"
         cx="1042.6445"
         id="path4416"
         style="opacity:1;fill:#1f649f;fill-opacity:1;stroke:none;stroke-width:2.20000005;stroke-linejoin:miter;stroke-miterlimit:4;stroke-dasharray:none;stroke-opacity:1" />
      <ellipse
         ry="2.6814172"
         rx="1.5366919"
         cy="181.09222"
         cx="1040.5371"
         id="path4418"
         style="opacity:1;fill:#1f649f;fill-opacity:1;stroke:none;stroke-width:2.20000005;stroke-linejoin:miter;stroke-miterlimit:4;stroke-dasharray:none;stroke-opacity:1" />
      <ellipse
         ry="4.13202"
         rx="2.5465178"
         cy="194.49931"
         cx="1039.2638"
         id="path4420"
         style="opacity:1;fill:#1f649f;fill-opacity:1;stroke:none;stroke-width:2.20000005;stroke-linejoin:miter;stroke-miterlimit:4;stroke-dasharray:none;stroke-opacity:1" />
      <ellipse
         ry="2.6731172"
         rx="2.0179811"
         cy="86.538841"
         cx="971.19629"
         id="path4422"
         style="opacity:1;fill:#1f649f;fill-opacity:1;stroke:none;stroke-width:2.20000005;stroke-linejoin:miter;stroke-miterlimit:4;stroke-dasharray:none;stroke-opacity:1" />
      <ellipse
         ry="1.5541379"
         rx="1.6764767"
         cy="101.58292"
         cx="971.10315"
         id="path4424"
         style="opacity:1;fill:#1f649f;fill-opacity:1;stroke:none;stroke-width:2.20000005;stroke-linejoin:miter;stroke-miterlimit:4;stroke-dasharray:none;stroke-opacity:1" />
      <ellipse
         ry="2.8596139"
         rx="1.583339"
         cy="110.96989"
         cx="971.75513"
         id="path4426"
         style="opacity:1;fill:#1f649f;fill-opacity:1;stroke:none;stroke-width:2.20000005;stroke-linejoin:miter;stroke-miterlimit:4;stroke-dasharray:none;stroke-opacity:1" />
      <ellipse
         ry="3.3258553"
         rx="2.3594856"
         cy="129.89929"
         cx="970.48224"
         id="path4428"
         style="opacity:1;fill:#1f649f;fill-opacity:1;stroke:none;stroke-width:2.20000005;stroke-linejoin:miter;stroke-miterlimit:4;stroke-dasharray:none;stroke-opacity:1" />
      <ellipse
         ry="2.5177035"
         rx="1.3660181"
         cy="143.88654"
         cx="970.60638"
         id="path4430"
         style="opacity:1;fill:#1f649f;fill-opacity:1;stroke:none;stroke-width:2.20000005;stroke-linejoin:miter;stroke-miterlimit:4;stroke-dasharray:none;stroke-opacity:1" />
      <ellipse
         ry="1.3365586"
         rx="1.2728804"
         cy="157.00348"
         cx="970.45117"
         id="path4432"
         style="opacity:1;fill:#1f649f;fill-opacity:1;stroke:none;stroke-width:2.20000005;stroke-linejoin:miter;stroke-miterlimit:4;stroke-dasharray:none;stroke-opacity:1" />
      <ellipse
         ry="1.9892967"
         rx="1.7696143"
         cy="166.79454"
         cx="969.83026"
         id="path4434"
         style="opacity:1;fill:#1f649f;fill-opacity:1;stroke:none;stroke-width:2.20000005;stroke-linejoin:miter;stroke-miterlimit:4;stroke-dasharray:none;stroke-opacity:1" />
      <ellipse
         ry="3.7299311"
         rx="2.0179811"
         cy="179.04111"
         cx="969.02307"
         id="path4436"
         style="opacity:1;fill:#1f649f;fill-opacity:1;stroke:none;stroke-width:2.20000005;stroke-linejoin:miter;stroke-miterlimit:4;stroke-dasharray:none;stroke-opacity:1" />
      <ellipse
         ry="3.2326069"
         rx="1.9869354"
         cy="100.89908"
         cx="897.3382"
         id="path4438"
         style="opacity:1;fill:#1f649f;fill-opacity:1;stroke:none;stroke-width:2.20000005;stroke-linejoin:miter;stroke-miterlimit:4;stroke-dasharray:none;stroke-opacity:1" />
      <ellipse
         ry="3.0461104"
         rx="1.9248435"
         cy="111.5294"
         cx="896.9035"
         id="path4440"
         style="opacity:1;fill:#1f649f;fill-opacity:1;stroke:none;stroke-width:2.20000005;stroke-linejoin:miter;stroke-miterlimit:4;stroke-dasharray:none;stroke-opacity:1" />
      <ellipse
         ry="1.9892967"
         rx="1.4902015"
         cy="122.03538"
         cx="897.3382"
         id="path4442"
         style="opacity:1;fill:#1f649f;fill-opacity:1;stroke:none;stroke-width:2.20000005;stroke-linejoin:miter;stroke-miterlimit:4;stroke-dasharray:none;stroke-opacity:1" />
      <ellipse
         ry="2.3622897"
         rx="1.8627518"
         cy="132.97647"
         cx="896.46887"
         id="path4444"
         style="opacity:1;fill:#1f649f;fill-opacity:1;stroke:none;stroke-width:2.20000005;stroke-linejoin:miter;stroke-miterlimit:4;stroke-dasharray:none;stroke-opacity:1" />
      <ellipse
         ry="2.7974482"
         rx="1.5522932"
         cy="145.47177"
         cx="896.4068"
         id="path4446"
         style="opacity:1;fill:#1f649f;fill-opacity:1;stroke:none;stroke-width:2.20000005;stroke-linejoin:miter;stroke-miterlimit:4;stroke-dasharray:none;stroke-opacity:1" />
      <ellipse
         ry="2.9839447"
         rx="2.1111188"
         cy="158.713"
         cx="895.97217"
         id="path4448"
         style="opacity:1;fill:#1f649f;fill-opacity:1;stroke:none;stroke-width:2.20000005;stroke-linejoin:miter;stroke-miterlimit:4;stroke-dasharray:none;stroke-opacity:1" />
      <ellipse
         ry="2.8596139"
         rx="1.7385684"
         cy="117.31076"
         cx="834.74969"
         id="path4450"
         style="opacity:1;fill:#1f649f;fill-opacity:1;stroke:none;stroke-width:2.20000005;stroke-linejoin:miter;stroke-miterlimit:4;stroke-dasharray:none;stroke-opacity:1" />
      <ellipse
         ry="1.4919723"
         rx="1.0555594"
         cy="124.77063"
         cx="834.93597"
         id="path4452"
         style="opacity:1;fill:#1f649f;fill-opacity:1;stroke:none;stroke-width:2.20000005;stroke-linejoin:miter;stroke-miterlimit:4;stroke-dasharray:none;stroke-opacity:1" />
      <ellipse
         ry="2.7974482"
         rx="1.6143849"
         cy="135.40096"
         cx="833.38367"
         id="path4454"
         style="opacity:1;fill:#1f649f;fill-opacity:1;stroke:none;stroke-width:2.20000005;stroke-linejoin:miter;stroke-miterlimit:4;stroke-dasharray:none;stroke-opacity:1" />
      <ellipse
         ry="1.0568138"
         rx="1.5522932"
         cy="143.10947"
         cx="833.32159"
         id="path4456"
         style="opacity:1;fill:#1f649f;fill-opacity:1;stroke:none;stroke-width:2.20000005;stroke-linejoin:miter;stroke-miterlimit:4;stroke-dasharray:none;stroke-opacity:1" />
      <ellipse
         ry="2.1136277"
         rx="2.483669"
         cy="119.30008"
         cx="780.23315"
         id="path4458"
         style="opacity:1;fill:#1f649f;fill-opacity:1;stroke:none;stroke-width:2.20000005;stroke-linejoin:miter;stroke-miterlimit:4;stroke-dasharray:none;stroke-opacity:1" />
      <ellipse
         ry="1.8649656"
         rx="1.4281098"
         cy="125.64095"
         cx="778.68091"
         id="path4460"
         style="opacity:1;fill:#1f649f;fill-opacity:1;stroke:none;stroke-width:2.20000005;stroke-linejoin:miter;stroke-miterlimit:4;stroke-dasharray:none;stroke-opacity:1" />
      <ellipse
         ry="2.4244552"
         rx="1.5522932"
         cy="133.78465"
         cx="778.92926"
         id="path4462"
         style="opacity:1;fill:#1f649f;fill-opacity:1;stroke:none;stroke-width:2.20000005;stroke-linejoin:miter;stroke-miterlimit:4;stroke-dasharray:none;stroke-opacity:1" />
      <ellipse
         ry="1.4298069"
         rx="1.1797428"
         cy="141.24449"
         cx="778.92926"
         id="path4464"
         style="opacity:1;fill:none;fill-opacity:1;stroke:#000000;stroke-width:2.20000005;stroke-linejoin:miter;stroke-miterlimit:4;stroke-dasharray:none;stroke-opacity:1" />
      <path
         inkscape:connector-curvature="0"
         id="path4474"
         d="m 2080.6823,62.729445 16.3922,-9.946487 15.1504,-8.951832 16.3922,-11.935782 17.1373,-13.427742 9.9347,-10.6924807 8.6929,-7.95717836 8.9412,3.72992906 2.2353,7.211198 -2.7321,10.195147 -7.9477,8.951833 -15.3988,7.957192 -16.1437,10.692467 -16.6406,7.957178 -15.6472,7.708532 -10.4314,4.22725 -7.9477,-0.24866 -3.4772,-4.22725 z"
         style="fill:#234887;fill-opacity:1;fill-rule:evenodd;stroke:#234887;stroke-width:4.5;stroke-linecap:butt;stroke-linejoin:miter;stroke-miterlimit:4;stroke-dasharray:none;stroke-opacity:1" />
      <path
         sodipodi:nodetypes="ccccccc"
         inkscape:connector-curvature="0"
         id="path4476"
         d="m 587.58922,-146.05444 -32.69064,32.14684 -6.32239,228.57982 50.57911,2.8133 30.90947,-30.242872 -51.98409,-1.406642 z"
         style="fill:#817260;fill-opacity:1;fill-rule:evenodd;stroke:none;stroke-width:1px;stroke-linecap:butt;stroke-linejoin:miter;stroke-opacity:1" />
      <path
         inkscape:connector-curvature="0"
         id="path4478"
         d="m 694.79495,-67.569482 11.42488,50.72706 47.18971,-131.293568 -39.7387,27.35283 z"
         style="fill:#817260;fill-opacity:1;fill-rule:evenodd;stroke:none;stroke-width:1px;stroke-linecap:butt;stroke-linejoin:miter;stroke-opacity:1" />
      <path
         inkscape:connector-curvature="0"
         id="path4480"
         d="m 769.50857,-30.915535 -1.40497,116.048213 46.36419,1.406642 -6.32238,8.088213 0.35123,4.219939 7.02489,4.219938 -20.72339,3.16495 -19.31842,-1.40664 -18.26467,-5.978248 -10.18608,-9.494855 -5.26866,-16.176427 0,-24.96794 6.32238,-20.748015 20.72339,-60.48574 z"
         style="fill:#817260;fill-opacity:1;fill-rule:evenodd;stroke:none;stroke-width:1px;stroke-linecap:butt;stroke-linejoin:miter;stroke-opacity:1" />
      <path
         inkscape:connector-curvature="0"
         id="path4482"
         d="m 836.94739,74.934496 c 0.70249,-2.109956 93.43087,-222.249926 93.43087,-222.249926 l -33.7194,17.93474 -64.27763,159.654208 -0.70249,41.496031 z"
         style="fill:#817260;fill-opacity:1;fill-rule:evenodd;stroke:none;stroke-width:1px;stroke-linecap:butt;stroke-linejoin:miter;stroke-opacity:1" />
      <path
         inkscape:connector-curvature="0"
         id="path4484"
         d="m 942.41677,-26.291575 5.9608,11.189788 17.63404,-1.243301 -13.66018,-36.304664 z"
         style="fill:#817260;fill-opacity:1;fill-rule:evenodd;stroke:none;stroke-width:1px;stroke-linecap:butt;stroke-linejoin:miter;stroke-opacity:1" />
      <path
         inkscape:connector-curvature="0"
         id="path4486"
         d="m 966.01161,41.344511 8.19612,22.379588 17.63405,-1.243314 2.48367,-1.243314 -7.20265,-20.14162 z"
         style="fill:#817260;fill-opacity:1;fill-rule:evenodd;stroke:none;stroke-width:1px;stroke-linecap:butt;stroke-linejoin:miter;stroke-opacity:1" />
      <path
         inkscape:connector-curvature="0"
         id="path4488"
         d="m 1075.2931,-147.14135 -27.8171,25.86086 -0.4968,132.785554 4.9674,19.39564 6.4575,12.930422 15.8955,0.994654 2.4837,-4.475923 z"
         style="fill:#817260;fill-opacity:1;fill-rule:evenodd;stroke:none;stroke-width:1px;stroke-linecap:butt;stroke-linejoin:miter;stroke-opacity:1" />
      <path
         inkscape:connector-curvature="0"
         id="path4490"
         d="m 1139.1234,-69.310117 0.2483,-21.633594 20.1177,-1.491975 15.3988,1.243315 8.6928,6.465204 4.2223,11.438461 -2.9804,10.692467 -4.719,4.227249 -13.1634,2.237969 -8.4445,-0.24866 -1.987,-6.962538 -5.9608,-2.735289 z"
         style="fill:#817260;fill-opacity:1;fill-rule:evenodd;stroke:none;stroke-width:1px;stroke-linecap:butt;stroke-linejoin:miter;stroke-opacity:1" />
      <path
         inkscape:connector-curvature="0"
         id="path4492"
         d="m 1137.8815,-2.4200117 0.2484,29.8394467 5.9608,0 4.9673,11.189787 5.9608,1.740635 6.7059,0.24866 4.4707,-1.243301 -17.3857,-41.7752277 z"
         style="fill:#817260;fill-opacity:1;fill-rule:evenodd;stroke:none;stroke-width:1px;stroke-linecap:butt;stroke-linejoin:miter;stroke-opacity:1" />
      <path
         inkscape:connector-curvature="0"
         id="path4494"
         d="m 1242.9853,18.492862 c 0.1756,-0.703313 12.996,-17.75888578 12.996,-17.75888578 l 13.1717,-12.65981622 2.8099,-17.407222 -0.46,-118.056948 -28.5622,35.31002 3.2288,6.71387 4.9673,11.93578 1.2419,11.687122 -0.2484,13.427755 -2.2353,13.427742 -4.2222,10.941141 -2.4837,5.719224 -1.7386,14.91973 1.4902,32.5747217 z"
         style="fill:#817260;fill-opacity:1;fill-rule:evenodd;stroke:none;stroke-width:1px;stroke-linecap:butt;stroke-linejoin:miter;stroke-opacity:1" />
      <path
         inkscape:connector-curvature="0"
         id="path4496"
         d="m 1398.4184,22.446191 0.2484,-143.975341 30.5491,-26.10952 1.4902,236.477633 25.3334,2.486614 34.7714,-0.99464 0.7451,-1.243314 1.9869,-214.098043 23.8433,-22.13093 1.9869,238.964261 28.0655,0.745981 18.3791,0 6.7059,-0.994641 -16.1438,8.703169 -17.6341,6.46521 -18.8759,3.48127 -19.1242,1.49197 -14.902,0.99466 -5.7125,-0.746 0.7451,-15.665709 -16.1438,15.914389 -9.1896,1.49196 -17.8824,-1.74064 -13.9086,-1.98929 -12.6667,-4.47591 -6.2091,-4.47593 -19.3727,-6.216554 -1.9869,-4.724569 35.7648,-0.24866 -1.2418,-67.138765 z"
         style="fill:#817260;fill-opacity:1;fill-rule:evenodd;stroke:none;stroke-width:1px;stroke-linecap:butt;stroke-linejoin:miter;stroke-opacity:1" />
      <path
         inkscape:connector-curvature="0"
         id="path4498"
         d="m 1580.7197,1.3099174 1.4902,-42.7698824 71.2813,120.601101 -11.4249,4.475923 -11.6732,3.481269 -33.7779,-55.451644 z"
         style="fill:#817260;fill-opacity:1;fill-rule:evenodd;stroke:none;stroke-width:1px;stroke-linecap:butt;stroke-linejoin:miter;stroke-opacity:1" />
      <path
         inkscape:connector-curvature="0"
         id="path4500"
         d="m 1672.1188,-146.89268 1.4901,128.309624 -17.3856,-25.612184 -7.2027,-12.681775 -4.7189,-19.14698 c 0,0 0.2483,-24.866205 0.4967,-25.860855 0.2484,-0.99464 7.451,-12.68176 7.451,-12.68176 z"
         style="fill:#817260;fill-opacity:1;fill-rule:evenodd;stroke:none;stroke-width:1px;stroke-linecap:butt;stroke-linejoin:miter;stroke-opacity:1" />
      <path
         inkscape:connector-curvature="0"
         id="path4502"
         d="m 1837.2827,36.868588 10.9282,-8.454513 4.4706,-9.946473 -3.4772,-6.962538 -8.6928,-4.9732431 -16.1438,-7.9571923 -21.608,-7.2111981 -21.1111,-9.2004925 -11.9217,-8.951833 -12.6667,-19.892973 -5.464,-22.379589 1.4902,-10.692467 5.464,-24.617546 7.9478,-11.68712 12.4183,-10.94113 15.1504,-11.93578 -27.072,14.17374 -18.8759,14.17374 -10.183,15.91438 -2.2353,24.368883 0.2483,25.612183 0.9935,24.617543 2.9804,5.221904 8.1961,10.4438068 13.4118,10.443807 14.6537,5.9678972 21.6079,6.962538 17.8824,4.973244 15.1504,6.713878 z"
         style="fill:#817260;fill-opacity:1;fill-rule:evenodd;stroke:none;stroke-width:1px;stroke-linecap:butt;stroke-linejoin:miter;stroke-opacity:1" />
      <path
         inkscape:connector-curvature="0"
         id="path4504"
         d="m 1866.4431,-56.762649 12.6448,-18.813877 -9.308,-8.264032 -9.8348,-4.571602 -11.4154,-2.109969 -9.8348,0.175831 -8.7811,2.989116 -5.0931,4.044106 -1.7562,5.978244 0.1756,4.395771 8.6055,0.703313 7.0249,0 6.498,1.582488 5.7955,2.109969 7.3761,3.692443 4.5662,4.044093 z"
         style="fill:#817260;fill-opacity:1;fill-rule:evenodd;stroke:none;stroke-width:1px;stroke-linecap:butt;stroke-linejoin:miter;stroke-opacity:1" />
      <path
         inkscape:connector-curvature="0"
         id="path4506"
         d="m 1950.0413,-146.64402 -23.8432,103.692081 54.3923,1.243314 -18.8758,24.368883 -46.1963,-0.74598 -14.1569,-15.168391 24.0916,-93.994267 5.7124,-7.21119 9.4379,-6.21656 z"
         style="fill:#817260;fill-opacity:1;fill-rule:evenodd;stroke:none;stroke-width:1px;stroke-linecap:butt;stroke-linejoin:miter;stroke-opacity:1" />
      <path
         inkscape:connector-curvature="0"
         id="path4508"
         d="m 642.70954,52.076525 c -0.70248,5.62658 0,16.879741 0,16.879741 l 10.53732,27.429572 17.56219,33.759482 7.02488,22.50632 -3.51243,30.24287 -13.34727,44.30933 -13.34727,30.24287 -11.2398,30.24287 -11.9423,26.72626 -14.04976,28.1329 -8.42984,14.76977 0.70249,4.92325 7.02487,4.21994 14.04975,0.70333 21.07463,-2.8133 20.37215,-9.84652 11.2398,-19.69302 -11.2398,7.73655 -13.34727,4.21992 -15.45472,1.40666 -4.91742,-2.10997 5.6199,-23.91298 18.26469,-26.02293 16.15721,-42.19934 16.15721,-46.4193 11.2398,-42.19934 2.10747,-39.38608 -7.02487,-11.25316 -16.85971,-25.319603 -18.26467,-22.506321 z"
         style="fill:#817260;fill-opacity:1;fill-rule:evenodd;stroke:none;stroke-width:1px;stroke-linecap:butt;stroke-linejoin:miter;stroke-opacity:1" />
      <path
         inkscape:connector-curvature="0"
         id="path4510"
         d="m 748.08269,205.40083 13.34727,-13.01147 15.10349,-7.38488 14.40101,-0.70331 15.10348,3.86826 4.56616,3.16496 -15.45473,10.54983 15.10349,5.62658 14.401,6.32991 11.59105,3.51661 10.53731,0.70333 9.48359,1.7583 9.13234,-3.86827 9.13233,-7.03324 5.6199,1.40666 6.67365,0.70331 3.16119,-1.05498 36.17812,12.30814 23.53333,12.30815 -8.0786,8.79153 -9.48359,21.45134 -9.83483,16.17642 -11.2398,13.01146 0,3.51663 9.48358,0.70331 23.53334,-0.35166 22.12837,-3.86828 16.15721,-10.9015 1.75622,-2.46163 -19.31842,5.27493 -11.59103,0 -7.37614,0 1.05374,-5.62658 7.02488,-8.08821 3.51243,-8.79153 7.37612,-13.36313 6.67364,-18.28639 2.45871,-14.76978 -4.21493,-5.27491 -11.94229,-3.16495 -20.37214,-7.73655 -33.71941,-11.95649 -9.83483,8.08822 -12.64478,3.51661 -13.69851,-3.86828 -15.10349,-4.92325 -17.21095,-7.03323 -16.50845,-7.03323 -11.9423,-2.46163 -11.94228,-1.05498 2.4587,-4.5716 6.32239,-3.51661 4.21493,-1.40664 -12.64479,-1.05498 -17.56218,4.57159 -14.75224,7.73655 -9.48359,12.30814 z"
         style="fill:#817260;fill-opacity:1;fill-rule:evenodd;stroke:none;stroke-width:1px;stroke-linecap:butt;stroke-linejoin:miter;stroke-opacity:1" />
      <path
         inkscape:connector-curvature="0"
         id="path4512"
         d="m 1023.4579,251.1168 22.8308,-20.04469 33.3682,3.16495 39.3393,2.8133 37.5831,-1.75832 27.0458,-1.40665 25.6408,-2.10996 -18.2647,5.97824 -15.806,4.5716 -2.1074,3.51661 2.8099,7.38489 3.1612,3.86827 9.8348,1.40664 12.2936,-0.35166 18.6159,-5.97823 10.1861,-4.21994 -13.3473,10.54983 -8.7811,6.68158 -8.7811,5.27491 -5.6199,7.38489 0.3513,6.32991 1.7562,4.92325 6.6736,1.05498 6.6736,-3.51661 14.401,-5.27492 35.4757,-21.80299 -20.0209,23.20963 -14.7523,11.25316 -12.2935,8.08821 -17.9134,4.92326 -15.4548,1.05499 -9.8348,-3.86828 -2.81,-6.68155 2.81,-8.79155 1.7562,-3.16494 -10.5373,1.7583 -10.8886,0 -7.0248,-4.21994 -2.1075,-5.97824 4.9174,-5.62658 9.4836,-8.43986 -35.8269,0 -32.3144,0.35166 -30.9095,-4.21994 -24.587,-4.5716 z"
         style="fill:#817260;fill-opacity:1;fill-rule:evenodd;stroke:none;stroke-width:1px;stroke-linecap:butt;stroke-linejoin:miter;stroke-opacity:1" />
      <path
         inkscape:connector-curvature="0"
         id="path4514"
         d="m 1271.7873,250.41347 18.2647,-20.74801 20.7234,1.05499 19.6696,1.05498 21.4259,-1.40665 23.5333,-4.21993 22.1284,-5.27492 15.1035,-2.81328 21.7771,-1.75831 15.806,-1.75832 13.6985,0.70333 14.0497,1.05499 14.401,2.46162 -25.6408,20.74801 -8.7811,0.35167 -12.996,-1.75831 -20.7234,0.70333 -15.4547,2.81328 -15.1035,3.51662 -16.1572,3.51661 -17.9134,3.51662 -16.8598,2.46162 -15.4547,2.10997 -18.6159,-0.70331 -17.5622,0.70331 -11.9423,-2.10997 z"
         style="fill:#817260;fill-opacity:1;fill-rule:evenodd;stroke:none;stroke-width:1px;stroke-linecap:butt;stroke-linejoin:miter;stroke-opacity:1" />
      <path
         inkscape:connector-curvature="0"
         id="path4516"
         d="m 1416.3241,164.08063 8.6055,-0.70331 9.8348,-3.86828 8.9567,-4.0441 14.2254,-6.32991 10.0105,-3.51661 9.8348,-1.23081 15.6304,-2.8133 13.5228,-3.16495 17.3866,-3.34077 22.1284,-4.04411 13.3473,-2.2858 11.7666,-2.8133 5.4443,-2.10995 -5.4443,6.50572 -11.2398,8.79153 -10.5373,10.19818 -8.7811,11.95649 -5.2687,10.54983 -4.2149,11.60483 c 0,0 -2.8099,14.9456 -2.8099,15.82476 0,0.87914 -1.2294,10.02234 -1.2294,10.02234 l 0.3513,14.59395 2.1074,6.50572 5.4443,12.83564 9.8348,11.60482 8.2543,6.15408 10.8885,3.69244 12.996,2.2858 17.211,0.52748 11.2398,-2.46162 12.8204,-4.5716 18.0891,-10.72566 27.9238,-26.02293 2.2831,18.28638 7.2005,10.72566 8.6055,6.85741 10.8886,4.21992 16.5084,2.2858 13.6985,-2.46163 16.3329,-6.50573 10.0104,-7.56071 10.8886,-8.26405 2.2831,0.35166 1.4049,5.45075 3.1612,5.97825 6.1468,5.45074 7.7274,5.62658 6.3224,2.98913 8.0786,2.98912 10.7129,-0.17583 6.6736,-1.58248 3.3368,-1.93413 -21.0746,35.34195 -5.9711,8.79154 -5.9712,9.14319 -4.7418,6.85739 -8.0786,10.02235 -12.6541,12.61767 -11.5817,9.00949 -12.8204,10.37402 -10.3617,7.38488 -6.1468,2.81329 -8.2542,1.23082 -5.9711,0 -1.0538,-1.05499 7.5518,-2.98912 10.6203,-6.13891 5.7125,-5.99341 9.6592,-8.61569 12.1179,-14.76977 10.8886,-12.48399 10.7129,-13.89061 9.1324,-11.78065 7.903,-12.13232 -0.1757,-3.51661 -3.688,1.05499 -10.5373,-0.17583 -8.9568,-2.98913 -7.7273,-3.86828 -8.2543,-6.15406 -7.5517,-10.72568 -1.5806,-3.69244 -9.6592,4.21994 -5.6199,5.45074 -7.2005,4.74744 -13.8741,3.51661 -14.2254,2.2858 -10.0105,0.52748 -12.996,-4.39575 -12.8204,-8.08822 -6.8492,-8.26404 -3.5125,-6.15406 -1.7562,-2.98913 -15.1035,11.78065 -15.4547,7.38489 c 0,0 -14.401,5.45075 -15.1035,5.80241 -0.7025,0.35166 -20.5478,4.92325 -20.5478,4.92325 l -15.9816,0.5275 -15.9815,-2.46163 -10.3617,-2.81329 -11.9423,-8.26404 -8.2543,-7.20906 -6.1467,-8.61569 -4.7418,-9.84652 -3.3369,-11.95649 -0.5268,-12.83563 2.1074,-10.37402 3.8637,-16.52807 5.4443,-12.30814 6.6736,-11.42899 7.0249,-8.96736 7.0249,-10.37402 -18.6159,3.69245 -17.7378,3.69244 -15.9816,4.04411 -16.6841,5.45074 -15.6304,4.21994 -5.9711,0.87915 -4.0393,-2.46162 -5.2687,0.35166 -8.6055,-1.40665 z"
         style="fill:#817260;fill-opacity:1;fill-rule:evenodd;stroke:none;stroke-width:1px;stroke-linecap:butt;stroke-linejoin:miter;stroke-opacity:1" />
      <path
         inkscape:connector-curvature="0"
         id="path4518"
         d="m 1592.8242,239.51197 17.5622,-11.60482 12.2935,-10.19817 12.2935,-12.6598 5.9712,-9.49485 -16.8597,4.21992 -20.0209,3.86827 -8.4299,-4.57158 -3.8637,-4.92327 -2.1074,-17.2314 8.0786,-14.76978 11.2398,-13.36312 12.6448,-15.47309 11.2398,-9.1432 12.996,-8.79153 5.9711,-1.75831 2.4587,2.81329 1.0538,4.5716 -2.4587,5.62658 -4.5662,4.92325 -5.9711,4.92327 -10.8886,3.86827 -8.4299,5.27492 -5.9711,8.79153 -5.6199,13.36312 2.8099,10.90152 7.0249,6.32989 7.3761,3.86827 11.5911,-1.40664 12.6448,-3.16494 6.6736,-5.27493 8.7811,-10.54984 8.0786,-14.76977 3.1612,-10.19818 8.7811,-12.30814 17.9134,-16.52809 15.1035,-6.32989 15.4548,-5.27492 5.6199,-2.10997 -13.3473,-10.198182 -21.7771,20.044692 -22.8309,0.35166 -7.3761,-0.35166 0,-4.57159 -4.9174,-4.92327 5.9711,-5.274915 5.6199,-7.033222 0.7025,-1.758305 54.4428,-1.758306 1.405,-46.419296 34.0706,-17.934719 -26.3432,45.012642 4.5661,5.274916 5.2687,3.516611 13.3473,6.681571 13.3472,7.033222 -23.5333,9.143191 -19.3184,7.73655 -28.802,19.34137 -20.3722,20.39635 -14.7522,25.31962 -21.4259,24.26463 -12.6448,13.01146 -15.1035,16.17642 -12.2935,8.08821 -11.2398,5.97824 -7.7274,2.10997 z"
         style="fill:#817260;fill-opacity:1;fill-rule:evenodd;stroke:none;stroke-width:1px;stroke-linecap:butt;stroke-linejoin:miter;stroke-opacity:1" />
      <path
         inkscape:connector-curvature="0"
         id="path4520"
         d="m 1707.3297,233.53373 15.4547,-13.36311 9.8348,-10.54985 18.6159,-18.63805 7.0249,-19.69303 2.81,-13.36313 -4.9174,-10.54984 8.4298,-8.08821 17.5622,-14.41811 13.6985,-5.27491 5.2687,3.86827 -1.405,7.73655 -6.3224,20.74802 -12.2935,22.50632 -11.2398,15.4731 -8.4299,10.90149 -10.8885,12.30814 -11.9423,9.84652 -11.9423,7.73655 -11.2398,4.21994 z"
         style="fill:#817260;fill-opacity:1;fill-rule:evenodd;stroke:none;stroke-width:1px;stroke-linecap:butt;stroke-linejoin:miter;stroke-opacity:1" />
      <path
         inkscape:connector-curvature="0"
         id="path4522"
         d="m 1804.273,241.62194 13.3472,-3.51661 10.8886,-11.60482 20.3721,-21.09968 11.9423,-14.76977 13.6985,-23.5613 12.9961,-25.67128 12.996,-26.72626 -18.9672,-2.81328 -2.1074,-9.84652 2.4587,-11.253162 1.0537,-1.758305 -11.9423,5.978244 0.3512,7.736553 -8.4298,13.36313 -2.1075,6.68155 7.0249,2.10997 5.6199,0 2.4587,1.05498 -10.5373,18.2864 -12.996,22.85798 -10.5373,17.23141 -8.0787,14.76977 -11.591,12.6598 -10.1861,13.01146 -7.7273,9.49486 -3.1612,2.8133 0.3512,4.57158 z"
         style="fill:#817260;fill-opacity:1;fill-rule:evenodd;stroke:none;stroke-width:1px;stroke-linecap:butt;stroke-linejoin:miter;stroke-opacity:1" />
      <path
         inkscape:connector-curvature="0"
         id="path4524"
         d="m 1896.8908,87.098328 18.8759,-1.491974 11.4249,-18.400986 15.3987,-24.368883 22.8498,-29.839446 17.8824,-18.8983197 20.3661,-19.3956533 15.8954,-11.935768 9.4381,-7.459872 -32.2878,12.930436 -20.8628,14.919716 -17.3857,13.427756 -14.4053,13.427756 -14.9021,18.898319 -15.8953,22.876909 -12.9152,24.866203 z"
         style="fill:#817260;fill-opacity:1;fill-rule:evenodd;stroke:none;stroke-width:1px;stroke-linecap:butt;stroke-linejoin:miter;stroke-opacity:1" />
      <path
         inkscape:connector-curvature="0"
         id="path4526"
         d="m 1985.3094,57.258881 22.8498,-31.828741 17.8824,-29.3421261 8.9412,-15.9143709 13.9086,-9.946487 9.9346,-0.49732 -11.9216,16.411691 -11.9216,17.9036652 -14.902,19.3956538 -11.9216,14.422396 z"
         style="fill:#817260;fill-opacity:1;fill-rule:evenodd;stroke:none;stroke-width:1px;stroke-linecap:butt;stroke-linejoin:miter;stroke-opacity:1" />
      <path
         inkscape:connector-curvature="0"
         id="path4528"
         d="m 1953.0217,115.4458 27.8171,-1.49196 13.4119,0.99464 11.9216,-6.46522 -18.8759,18.89832 -16.3923,12.93044 -16.3922,18.40098 -10.9281,22.37959 -6.9543,31.82874 3.4772,24.36889 12.4183,17.40634 14.9019,11.43846 24.8368,5.96789 20.366,0.49733 13.9086,-3.48127 -21.3595,19.39564 -26.8236,4.47591 -26.8236,-7.45986 -20.8629,-15.41705 -12.915,-20.39028 -4.4706,-16.4117 1.4901,-25.86086 7.451,-22.37959 12.4184,-19.89296 14.4053,-19.39564 6.9543,-9.94649 -11.4249,-0.49732 -4.4706,-0.49732 z"
         style="fill:#817260;fill-opacity:1;fill-rule:evenodd;stroke:none;stroke-width:1px;stroke-linecap:butt;stroke-linejoin:miter;stroke-opacity:1" />
      <path
         inkscape:connector-curvature="0"
         id="path4530"
         d="m 2075.715,180.59527 4.4706,0 -17.8825,23.37423 -19.8693,18.89832 -13.9086,12.4331 -19.8693,9.94649 4.9673,-6.46522 12.4184,-7.45986 16.3922,-15.41705 14.902,-16.41169 z"
         style="fill:#817260;fill-opacity:1;fill-rule:evenodd;stroke:none;stroke-width:1px;stroke-linecap:butt;stroke-linejoin:miter;stroke-opacity:1" />
      <path
         inkscape:connector-curvature="0"
         id="path4532"
         d="m 1982.329,219.38655 4.4706,-17.40634 1.987,-6.46522 28.3137,-5.47057 24.8368,-4.47591 24.34,-12.4331 19.3725,-6.96254 -30.3008,25.36353 -23.8431,16.90902 -21.8563,6.96254 -20.3661,2.98395 z"
         style="fill:#817260;fill-opacity:1;fill-rule:evenodd;stroke:none;stroke-width:1px;stroke-linecap:butt;stroke-linejoin:miter;stroke-opacity:1" />
      <path
         inkscape:connector-curvature="0"
         id="path4534"
         d="m 2034.9828,153.24244 7.9478,-10.94113 2.9803,-8.95183 -0.9935,-5.47056 14.4054,-8.45452 11.4249,-3.9786 0.4967,4.47592 -4.9673,7.45986 -10.4314,10.94114 -7.9478,7.95718 -9.4379,7.95719 z"
         style="fill:#817260;fill-opacity:1;fill-rule:evenodd;stroke:none;stroke-width:1px;stroke-linecap:butt;stroke-linejoin:miter;stroke-opacity:1" />
      <path
         inkscape:connector-curvature="0"
         id="path4536"
         d="m 2096.5778,73.670572 -14.4053,6.962538 -13.4118,-2.983935 -4.9673,-7.459872 1.9869,-11.935767 8.4445,-12.930436 20.366,-16.411691 24.34,-18.898319 15.3987,-8.9518327 17.8825,-5.9678977 -2.4836,6.962538 -12.9151,10.9411414 -17.8825,15.417036 -30.3007,22.379589 -11.9216,7.957192 -5.9608,5.967884 5.464,7.957192 8.4445,0 z"
         style="fill:#817260;fill-opacity:1;fill-rule:evenodd;stroke:none;stroke-width:1px;stroke-linecap:butt;stroke-linejoin:miter;stroke-opacity:1" />
    </g>
  </g>
</svg>
