<?xml version="1.0" encoding="UTF-8" standalone="no"?>
<!-- Created with Inkscape (http://www.inkscape.org/) -->

<svg
   xmlns:dc="http://purl.org/dc/elements/1.1/"
   xmlns:cc="http://creativecommons.org/ns#"
   xmlns:rdf="http://www.w3.org/1999/02/22-rdf-syntax-ns#"
   xmlns:svg="http://www.w3.org/2000/svg"
   xmlns="http://www.w3.org/2000/svg"
   xmlns:sodipodi="http://sodipodi.sourceforge.net/DTD/sodipodi-0.dtd"
   xmlns:inkscape="http://www.inkscape.org/namespaces/inkscape"
   width="459.83099mm"
   height="155.32408mm"
   viewBox="0 0 1629.3225 550.36093"
   id="svg2"
   version="1.1"
   inkscape:version="0.91 r13725"
   sodipodi:docname="marlins.svg">
  <defs
     id="defs4">
    <clipPath
       id="clipPath4994"
       clipPathUnits="userSpaceOnUse">
      <rect
         y="0.46884531"
         x="0.70870137"
         height="120.44411"
         width="971.34332"
         id="rect4996"
         style="opacity:0.9;fill:#000000;fill-opacity:1;stroke:#000000;stroke-width:1.87300003;stroke-linejoin:miter;stroke-miterlimit:4;stroke-dasharray:none;stroke-opacity:1" />
    </clipPath>
    <clipPath
       id="clipPath4994-9"
       clipPathUnits="userSpaceOnUse">
      <rect
         y="0.46884531"
         x="0.70870137"
         height="120.44411"
         width="971.34332"
         id="rect4996-0"
         style="opacity:0.9;fill:#000000;fill-opacity:1;stroke:#000000;stroke-width:1.87300003;stroke-linejoin:miter;stroke-miterlimit:4;stroke-dasharray:none;stroke-opacity:1" />
    </clipPath>
    <clipPath
       id="clipPath4994-5"
       clipPathUnits="userSpaceOnUse">
      <rect
         y="0.46884531"
         x="0.70870137"
         height="120.44411"
         width="971.34332"
         id="rect4996-5"
         style="opacity:0.9;fill:#000000;fill-opacity:1;stroke:#000000;stroke-width:1.87300003;stroke-linejoin:miter;stroke-miterlimit:4;stroke-dasharray:none;stroke-opacity:1" />
    </clipPath>
  </defs>
  <sodipodi:namedview
     id="base"
     pagecolor="#ffffff"
     bordercolor="#666666"
     borderopacity="1.0"
     inkscape:pageopacity="0.0"
     inkscape:pageshadow="2"
     inkscape:zoom="0.35355339"
     inkscape:cx="542.46572"
     inkscape:cy="222.284"
     inkscape:document-units="px"
     inkscape:current-layer="layer1-5"
     showgrid="false"
     fit-margin-top="0"
     fit-margin-left="0"
     fit-margin-right="0"
     fit-margin-bottom="0"
     showguides="true"
     inkscape:guide-bbox="true"
     inkscape:window-width="1440"
     inkscape:window-height="852"
     inkscape:window-x="0"
     inkscape:window-y="0"
     inkscape:window-maximized="1"
     inkscape:object-nodes="true" />
  <metadata
     id="metadata7">
    <rdf:RDF>
      <cc:Work
         rdf:about="">
        <dc:format>image/svg+xml</dc:format>
        <dc:type
           rdf:resource="http://purl.org/dc/dcmitype/StillImage" />
        <dc:title />
      </cc:Work>
    </rdf:RDF>
  </metadata>
  <g
     inkscape:label="Layer 1"
     inkscape:groupmode="layer"
     id="layer1"
     transform="translate(-549.03339,-426.73056)">
    <g
       transform="matrix(1.3908548,0,0,1.392752,1311.3263,139.16985)"
       id="layer1-5"
       inkscape:label="Layer 1">
      <path
         inkscape:connector-curvature="0"
         id="path4220-8"
         d="m -513.98251,209.33155 -7.57614,159.6041 35.1028,0.50507 3.78807,-101.77286 31.8198,96.46956 28.78935,0.50508 38.3858,-104.55079 -3.03046,109.85409 37.12311,0.25254 1.26269,-159.09903 -0.25254,-2.52538 -47.98225,0.25254 -38.13325,106.31855 -31.31473,-106.06601 -47.98225,-1.01015 z"
         style="opacity:1;fill:#156294;fill-opacity:1;fill-rule:evenodd;stroke:#156294;stroke-width:2.87396979;stroke-linecap:butt;stroke-linejoin:miter;stroke-miterlimit:4;stroke-dasharray:none;stroke-opacity:1" />
      <path
         id="path4226-2"
         transform="translate(-570.80359,182.18314)"
         d="m 302.16211,26.429688 -67.87695,161.332032 40.09765,0 9.97461,-31.06055 58.08399,-0.75781 10.98632,31.81836 38.51172,0 -61.11523,-161.332032 -28.66211,0 z m 10.78516,54.552734 16.51757,43.035158 -32.5,0 15.98243,-43.035158 z"
         style="opacity:1;fill:#156294;fill-opacity:1;fill-rule:evenodd;stroke:#156294;stroke-width:2.87396979;stroke-linecap:butt;stroke-linejoin:miter;stroke-miterlimit:4;stroke-dasharray:none;stroke-opacity:1"
         inkscape:connector-curvature="0" />
      <path
         id="path4231-8"
         transform="translate(-570.80359,182.18314)"
         d="m 408.10156,26.429688 -0.50586,161.332032 34.97657,0 0.12695,-63.76563 14.77344,1.26368 29.04296,62.50195 38.00586,0 -29.04101,-65.02734 9.08984,-5.8086 7.95508,-7.95508 5.05078,-8.33398 3.41016,-8.837892 1.76758,-7.324219 0.12695,-8.964843 -0.75781,-8.839844 -3.15625,-9.847656 -6.1875,-11.617188 -7.95508,-7.828125 -9.84961,-6.566406 -4.17383,-2.634766 -4.66406,-1.746093 -78.03516,0 z m 59.34571,34.054687 5.30468,0.503906 4.29297,1.263672 4.67188,2.904297 3.78711,3.787109 1.76757,5.808594 0.25391,3.535156 -0.75781,6.566407 -2.27344,5.177734 -1.76758,2.271484 -2.52539,1.515625 -3.78711,0.884766 -33.71484,0.251953 0,-34.09375 13.38476,0 11.36329,-0.376953 z"
         style="opacity:1;fill:#156294;fill-opacity:1;fill-rule:evenodd;stroke:#156294;stroke-width:2.87396979;stroke-linecap:butt;stroke-linejoin:miter;stroke-miterlimit:4;stroke-dasharray:none;stroke-opacity:1"
         inkscape:connector-curvature="0" />
      <path
         inkscape:connector-curvature="0"
         id="path4236-4"
         d="m -22.5433,208.61229 -0.76029,161.33352 95.8409,0 -1.01015,-32.95624 -59.09392,-0.88388 -0.12627,-127.4934 z"
         style="opacity:1;fill:#156294;fill-opacity:1;fill-rule:evenodd;stroke:#156294;stroke-width:2.87396979;stroke-linecap:butt;stroke-linejoin:miter;stroke-miterlimit:4;stroke-dasharray:none;stroke-opacity:1" />
      <path
         inkscape:connector-curvature="0"
         id="path4238-7"
         d="m 91.1607,208.61229 0,161.33352 33.92857,0 0.35714,-161.33352 z"
         style="opacity:1;fill:#156294;fill-opacity:1;fill-rule:evenodd;stroke:#156294;stroke-width:2.87396979;stroke-linecap:butt;stroke-linejoin:miter;stroke-miterlimit:4;stroke-dasharray:none;stroke-opacity:1" />
      <path
         style="opacity:1;fill:#156294;fill-opacity:1;fill-rule:evenodd;stroke:#156294;stroke-width:2.87396979;stroke-linecap:butt;stroke-linejoin:miter;stroke-miterlimit:4;stroke-dasharray:none;stroke-opacity:1"
         d="m -513.98251,209.33155 -7.57614,159.6041 35.1028,0.50507 3.78807,-101.77286 31.8198,96.46956 28.78935,0.50508 38.3858,-104.55079 -3.03046,109.85409 37.12311,0.25254 1.26269,-159.09903 -0.25254,-2.52538 -47.98225,0.25254 -38.13325,106.31855 -31.31473,-106.06601 -47.98225,-1.01015 z"
         id="path4249-6"
         inkscape:connector-curvature="0" />
      <path
         inkscape:connector-curvature="0"
         id="path4269-9"
         d="m 154.48594,208.61229 0.75761,161.33352 33.0825,0 0.50507,-112.37948 65.40738,112.37948 47.81506,0 -1.69643,-161.33352 -35.71429,0 1.25,111.78571 -67.14286,-111.78571 z"
         style="opacity:1;fill:#156294;fill-opacity:1;fill-rule:evenodd;stroke:#156294;stroke-width:2.87396979;stroke-linecap:butt;stroke-linejoin:miter;stroke-miterlimit:4;stroke-dasharray:none;stroke-opacity:1" />
      <path
         inkscape:connector-curvature="0"
         id="path4271-8"
         d="m 319.99998,359.50514 5.26786,3.66072 6.16072,3.48214 8.125,3.29781 12.05357,4.7379 10.08928,2.94643 8.21429,1.42857 10,0.80358 6.96428,-0.44643 9.28572,-1.60715 9.19643,-3.75 9.375,-6.25 4.91071,-4.375 3.75,-4.73214 4.375,-6.69643 3.92857,-8.57143 1.5179,-6.69642 0.625,-7.23215 0,-8.30357 -1.3393,-8.39286 -1.6965,-6.25 -3.39281,-6.875 -4.64286,-5.71428 -4.46428,-3.83929 -7.94643,-5 -6.25,-2.94643 -7.85715,-2.94642 -11.78571,-4.64286 -10.71429,-3.92857 -7.23214,-3.66072 -3.83928,-6.33928 0,-6.96429 0.89285,-1.78571 4.375,-4.91072 4.91072,-2.94642 5.26785,-1.69643 5.53572,-0.625 7.05357,0.89285 6.96429,2.05358 7.85714,3.48214 5.625,4.10714 4.91071,-5 6.60715,-8.66071 9.55355,-13.30358 -9.99998,-8.21428 -6.33929,-3.03572 -5.35714,-1.69642 -7.05357,-1.78572 -11.60715,-1.96428 -5.17857,0 -6.59921,0.68769 -7.63928,1.23112 -5.96621,1.48366 -6.06092,1.86247 -5.1139,2.02031 -4.86136,2.68321 -6.18718,4.38786 -6.9448,6.31345 -6.18718,6.56599 -2.65166,4.29315 -1.38895,3.78807 -2.14658,6.9448 -1.76777,8.20749 0.25254,5.3033 1.19956,6.37659 1.13642,4.04061 2.27284,5.87151 2.58852,3.91434 3.59867,4.16688 3.78807,3.85121 4.41942,2.90418 3.28299,1.89404 3.91434,2.08344 6.37659,2.58852 5.93465,1.95717 7.89182,2.52538 6.50285,2.65165 6.20394,2.52691 4.375,2.09821 3.70535,2.54464 2.67858,2.85715 1.74107,3.25892 1.02678,2.85715 0.3125,2.54464 0,2.85714 -0.40178,2.85715 -1.69643,3.25892 -2.00893,2.09822 -2.99107,2.23214 -2.72322,1.33929 -2.63392,0.9375 -3.39286,0.44643 -4.50893,-0.0893 -5.9375,-0.98214 -5.26786,-1.875 -5.84821,-1.78572 -5,-2.23214 -4.55357,-2.94643 -3.4375,-3.21428 -3.03572,-2.5 -4.33035,5.08928 -3.03572,3.75 -2.72321,3.83929 -3.34822,4.46428 -3.52678,4.6875 -3.66072,4.91072 -2.85714,4.28571 z"
         style="opacity:1;fill:#156294;fill-opacity:1;fill-rule:evenodd;stroke:#156294;stroke-width:2.87396979;stroke-linecap:butt;stroke-linejoin:miter;stroke-miterlimit:4;stroke-dasharray:none;stroke-opacity:1" />
      <path
         inkscape:connector-curvature="0"
         id="path4273-8"
         d="m 465.10781,208.61229 35.6079,0 -17.1726,67.8944 -34.0926,0.25254 z"
         style="opacity:1;fill:#156294;fill-opacity:1;fill-rule:evenodd;stroke:#156294;stroke-width:2.87396979;stroke-linecap:butt;stroke-linejoin:miter;stroke-miterlimit:4;stroke-dasharray:none;stroke-opacity:1" />
      <path
         id="path4275-3"
         transform="translate(-570.80359,182.18314)"
         d="m 1109.8223,93.304688 -5.8946,1.33789 -8.3027,3.304688 -5.7148,3.482424 -5.8926,4.64258 -7.2324,6.07031 -7.2325,7.14453 -6.7851,6.96289 -9.6426,10.53711 -8.0352,9.19531 -8.125,10.26758 -6.3398,7.85742 -5.5352,8.39258 -4.8222,7.5 -4.375,7.76172 -5.9824,11.16797 -24.55278,-0.17969 0,8.125 20.17778,0.44727 -5.80278,12.14257 -6.16015,10.98243 -6.78711,12.58984 -5.71289,11.78516 -3.48243,7.94531 -5.26757,7.5 -6.96485,8.57226 -8.30469,9.28516 -6.51757,6.96484 -6.69532,6.16016 -6.69726,4.55469 -6.60742,2.85742 -4.28516,0.53516 -4.19727,-1.16016 -3.30273,-1.96484 -1.07227,-2.85743 -0.53515,-5.17773 1.25,-4.55469 2.14258,-6.42773 2.94726,-6.16211 4.01758,-8.03516 6.16016,-11.875 6.53906,-11.85351 7.57617,-12.37305 7.82813,-12.375 7.07226,-11.36524 6.3125,-8.58593 -14.64648,-1.00977 -13.38477,0.25196 -0.75781,4.54687 -1.00977,3.53516 -0.50586,0.69531 -2.14648,-4.10547 -0.94727,-2.65039 -3.02929,-3.15625 -4.86133,-1.76953 -3.97852,-0.44141 -4.67187,0.0625 -4.54492,0.63281 -5.8086,1.26172 -7.95508,2.46289 -5.74414,2.46289 -6.63086,2.77735 -6.375,3.2832 -5.99804,3.53516 -3.66211,2.46289 -4.79883,3.53515 -3.91406,3.09375 -4.06446,3.39063 -3.75,3.39258 -3.48046,3.92773 -3.66211,4.82227 -3.22657,5.23828 -3.72461,5.55469 -3.7871,5.42968 -2.5254,3.47266 -7.38671,7.95508 -5.11329,5.49219 -4.29492,4.60937 -5.49218,5.42969 -4.35547,4.60937 -3.53516,3.47071 -5.11523,4.73632 -4.98633,3.40821 -4.92578,3.34765 -4.98633,2.71485 -5.05078,1.32422 -5.61914,0.75781 -5.87305,-0.18945 -4.41797,-1.51563 -4.86133,-3.3457 -3.2207,-4.10352 -1.83008,-4.41992 -0.82226,-6.18555 0.56835,-5.42968 1.32618,-6.63086 2.46289,-7.82813 2.96679,-8.26953 3.47266,-7.19727 2.71484,-4.67187 4.48243,-6.31445 4.41992,-5.9336 5.30273,-5.99804 5.11328,-5.42969 4.23047,-4.04102 6.125,-4.98828 6.56446,-3.97656 6.63085,-3.2832 5.8711,-1.38868 3.53516,0.63086 3.2207,2.33594 1.70312,4.10352 -0.3789,3.97851 -1.57813,4.29297 -3.53515,3.78711 -5.55664,4.73633 -6.375,4.10351 -5.6836,3.66211 -4.35547,4.03907 -3.15625,4.41992 -0.3164,4.86133 1.00976,3.85156 2.21094,2.77734 3.49414,0.9375 5.17773,0.89258 5.53711,-0.89258 6.25,-3.21484 4.28516,-5.17774 4.82227,-7.5 2.67773,-6.60742 1.78516,-8.75 1.25,-8.39258 -0.35743,-3.75 -1.42773,-6.25 -2.32227,-5.17773 -5.17773,-3.57227 -9.82227,-0.53515 -8.21289,1.42773 -14.28711,4.46485 -10.35546,5.35742 -8.39454,5.17773 -6.42773,5.17969 -7.32227,7.5 -5.89257,6.42773 -4.10743,5.53516 -3.92773,6.25 -4.46484,6.96484 -2.85743,7.85743 -2.5,10 -0.53515,8.39257 1.07226,6.78516 1.96289,7.85742 4.28711,7.32227 4.46289,4.82031 5.89454,3.75 7.85546,2.5 7.85743,1.42969 9.28711,0 7.5,-1.42969 8.39257,-3.03516 7.32032,-4.46484 6.96484,-6.07031 7.5,-6.78711 6.60742,-7.32031 10.17774,-10.89258 0,11.96289 0.17968,5.53711 1.07032,4.82031 2.85742,6.42969 3.75,4.10742 5,3.75 4.10742,1.60547 5.89258,1.25 6.25,0 10,-1.78516 9.46484,-4.82031 5.71485,-4.46484 6.42773,-5.71485 7.32227,-7.85742 0.89257,8.57227 1.96289,5.53515 3.75,4.82227 4.28711,3.92773 3.75,1.78516 5.89258,1.78711 7.32031,0.35742 8.92969,-1.60742 6.96485,-3.03711 7.85546,-5.17774 13.21485,-15.89257 -13.75,19.82031 -5.71485,10.17969 -5.35546,8.75 -4.64454,6.25 -4.46289,6.96484 -4.64257,7.32031 -5,8.03516 -6.13868,7.80078 -5.17773,6.81836 -6.69141,8.08203 -7.07226,6.3125 -7.95508,5.93555 -7.57617,5.17578 -6.69141,3.2832 -7.70312,3.03125 -7.70118,1.89453 -6.0625,0.63086 -4.54492,0 -2.39843,-0.75781 -3.41016,-2.77734 -2.52539,-2.14649 -1.89453,-0.3789 -3.0293,1.64062 -1.51562,2.40039 -0.63086,3.0293 1.38867,4.04101 2.52539,2.27344 4.67187,1.51367 7.32422,0.37891 9.2168,-1.38867 14.39453,-4.92383 18.30859,-7.95508 19.19336,-11.74414 21.08789,-18.56055 14.39454,-16.03711 14.77343,-18.6875 14.77344,-19.57031 9.84766,-15.40625 5.68359,-9.97461 5.42969,-12.12109 8.20511,-17.70508 8.3925,-16.25 5.7129,-13.39258 6.0723,-12.85742 4.1973,-8.125 2.6777,-5 10.625,0 10.2676,-0.17773 7.9472,-0.35743 7.9454,-0.44726 0.5371,-7.76758 -18.5723,-0.26758 -3.2148,-0.35742 8.5722,-6.69531 5.625,-4.29297 6.7852,-5.26172 5,-4.55273 4.1074,-4.82227 5.8027,-5.98242 6.4297,-5.44531 4.5528,-4.82227 4.1074,-4.73242 4.5547,-5.17774 4.1953,-5.98242 4.6426,-7.05273 4.0175,-6.60742 4.4649,-8.125 2.7676,-5.98243 0.8046,-6.42773 -0.2675,-5.98242 -2.0547,-4.017581 -3.6602,-2.679687 -5.5351,-0.802734 z m 0.4609,6.701172 1.7676,0.75781 0.8847,1.64063 -0.6308,6.69336 -3.0313,6.56445 -3.914,7.45117 -4.293,7.07031 -5.5566,8.20703 -4.7969,6.44141 -7.0723,8.20703 -6.8183,7.32227 -6.3125,5.80859 -6.1875,7.07227 -7.1973,7.19726 -8.207,7.32227 -10.6075,6.69336 0.252,-3.15625 3.7891,-8.08203 6.4394,-11.49024 7.0703,-11.86914 6.0625,-9.34375 5.3028,-7.95508 6.9453,-9.72265 6.3125,-8.96485 5.8086,-7.19726 6.8183,-7.45117 7.0703,-5.30274 5.6836,-3.03125 4.418,-0.88281 z m -186.75195,109.22266 3.2832,0.50586 2.02149,3.7871 0.5039,6.56641 -1.26172,7.57617 -3.78906,9.84766 -5.05078,10.10156 -5.80859,11.8711 -8.08008,11.61523 -6.06445,7.20508 -6.42774,6.69531 -8.21484,7.14258 -6.51758,5.35742 -5.71484,4.91211 -7.76758,4.28516 -3.83985,0.89257 -4.46289,-0.35742 -2.67968,-1.33984 -3.57032,-5.08789 -0.0898,-6.875 1.33984,-6.07227 2.5,-7.58984 2.64258,-6.26367 3.53711,-7.57618 5.42774,-8.58593 4.04101,-6.43946 6.81836,-7.32422 7.07227,-7.32226 8.33398,-8.33398 8.58594,-7.07227 8.58594,-5.80859 8.83789,-4.79688 5.80859,-1.51562 z"
         style="opacity:1;fill:#c18faf;fill-opacity:1;fill-rule:evenodd;stroke:#93888f;stroke-width:3.23321605;stroke-linecap:butt;stroke-linejoin:miter;stroke-miterlimit:4;stroke-dasharray:none;stroke-opacity:1"
         inkscape:connector-curvature="0" />
      <path
         id="path4283-9"
         transform="translate(-570.80359,182.18314)"
         d="m 1121.0176,200.64258 -6.9453,0.5039 -9.8496,1.83204 -8.6485,2.83984 -6.3769,2.46289 -6.125,3.2207 -7.1973,3.78711 -6.0605,3.47266 -5.6192,3.91406 -5.2402,3.59961 -4.8613,3.4082 -5.1758,4.60938 -6.5664,6.43945 -4.2305,4.67188 -2.8418,4.60937 -3.9141,7.95508 -1.7675,5.49219 -1.7051,5.80859 -1.3242,8.52344 -0.3164,6.37695 0.8828,8.45899 1.4531,4.16797 3.4726,7.07031 4.9239,6.06054 6.3769,5.11329 6.4395,2.65234 8.2715,2.14648 11.4902,1.19922 8.459,-2.01953 6.7558,-3.2832 7.3243,-5.05078 5.0507,-4.54493 4.42,-4.10351 3.6601,-2.9043 4.9883,-4.41992 3.5352,-3.72461 3.789,-4.16797 4.9239,-5.68164 4.3574,-4.98828 5.8515,-6.86328 3.3047,-4.73242 3.75,-5.89258 0.8028,-2.76953 0,-2.5 -0.625,-0.80274 -0.8028,-0.26757 -1.7851,1.07031 -2.1446,2.14453 -3.3027,3.83789 -4.1074,5 -4.375,5.53711 -6.25,7.41016 -4.4649,4.91015 -4.9101,4.73242 -5.4453,4.91016 -5.17,4.35352 -7.1972,5.80859 -6.4395,4.92383 -6.8183,3.4082 -7.0723,2.27344 -7.3242,0.12695 -5.8067,-1.38867 -6.5664,-4.92578 -2.4004,-4.92383 -1.2617,-6.81836 1.1367,-8.08203 2.0196,-7.19727 2.0215,-5.30273 4.039,-8.58594 4.1055,-0.69531 7.2598,-1.13672 6.1875,-1.32617 8.08,-1.95703 9.3438,-2.27149 7.8301,-2.52539 6.4394,-1.83203 6.5664,-2.46094 8.1446,-3.2207 8.207,-4.10352 5.4922,-4.79882 3.9765,-4.73438 3.4727,-5.11328 1.7676,-5.61914 0.064,-4.98828 -1.1367,-5.7461 -2.6523,-5.17578 -2.7149,-3.15625 -3.2187,-1.64257 -5.1153,-1.57813 -6.5644,-0.82031 z m -3.875,7.39453 4.1074,0.53516 2.5,3.57031 0.3574,5 -3.5722,6.96484 -6.25,7.32227 -6.0704,5.89258 -8.0371,5.89257 -11.4277,5.89258 -10.1777,3.75 -9.1075,2.5 -7.3222,0.89258 1.7851,-4.82031 6.0723,-7.67969 7.1426,-8.75 7.1426,-7.14258 6.6074,-5.89258 6.0722,-3.75 7.6778,-4.82226 7.1426,-3.75 5.3574,-1.60547 z"
         style="opacity:1;fill:#c18faf;fill-opacity:1;fill-rule:evenodd;stroke:#93888f;stroke-width:3.23321605;stroke-linecap:butt;stroke-linejoin:miter;stroke-miterlimit:4;stroke-dasharray:none;stroke-opacity:1"
         inkscape:connector-curvature="0" />
      <path
         inkscape:connector-curvature="0"
         id="path4288-4"
         d="m -521.05358,306.81127 9.59645,8.33375 9.84899,7.57615 18.68782,16.92005 12.12183,12.62691 15.15229,17.67768 8.33376,9.84898 7.57614,7.82868 4.54569,8.83883 2.52538,10.85914 1.01015,10.10153 -0.50507,11.36422 -3.283,14.39467 -3.28299,11.61675 -4.54569,13.38453 -5.05076,10.85914 -4.04061,12.37436 -4.79823,14.14214 -4.54568,11.36422 -4.54569,13.13198 -4.54569,8.5863 -7.3236,11.86929 -3.03046,4.79822 0,2.27285 3.03046,0.25253 2.77792,0.50508 7.07106,-3.283 7.07107,-4.54568 5.3033,-6.56599 5.05076,-6.56599 6.566,-9.59645 5.55584,-13.38453 9.84898,-18.94036 6.81853,-12.87944 6.31346,-13.13198 5.05076,-11.11168 5.55584,-10.35407 9.34391,-13.38452 7.82868,-5.80837 10.6066,-2.52539 9.84899,-0.75761 13.38452,1.01015 8.83884,2.27285 -3.283,1.76776 -6.31345,1.51523 -3.283,2.02031 6.06092,2.27284 6.06091,1.01015 5.05076,2.02031 4.54569,2.0203 6.56599,2.77792 6.06092,2.52538 5.3033,2.52539 8.5863,3.03045 5.3033,-0.75761 4.54568,-1.26269 3.78807,-3.283 3.283,-3.78807 11.11168,4.04061 9.09137,4.04061 9.09137,3.53553 10.35407,4.29315 10.6066,1.51523 6.56599,1.51523 1.26269,4.29315 -1.76777,8.83883 -2.52538,9.59645 -2.27284,4.04061 -3.78807,11.11168 -5.3033,7.57614 -3.53554,6.31346 1.26269,1.76777 6.81853,-1.51523 6.06092,-1.51523 8.5863,-3.03046 10.6066,-8.83883 7.07107,-6.566 6.06091,-5.80837 7.07107,-7.07107 5.3033,-5.55584 2.27284,-2.27284 14.39468,1.76776 11.36421,1.76777 17.1726,0.75761 11.61675,0.50508 10.6066,-0.75761 13.38452,0 13.63706,-0.25254 21.97082,-1.26269 17.17259,-1.51523 17.1726,-1.26269 -9.34391,4.54568 -10.35407,4.29315 -10.85914,3.53554 -8.33376,2.52538 -7.07106,1.01015 -1.76777,1.26269 0.25254,3.03046 1.76776,1.51523 2.52539,0 7.3236,-1.76777 13.8896,-3.53553 15.14563,-5.50088 10.53571,-4.46428 11.60714,-5 -8.57142,8.75 -6.07143,5.89285 -6.78572,5 -15.53571,10 -8.03572,5 -3.57142,2.14286 -1.60715,2.5 0.71429,1.78571 3.21428,0.17858 6.60715,-3.03572 9.10714,-5.35714 7.85714,-4.28572 7.85715,-4.64285 7.14285,-5.17857 6.07143,-5.17858 6.42857,-6.07142 7.32143,-8.21429 20.71429,0.53571 10.71428,0.53572 7.85715,-0.35714 c 0,0 7.32142,-1.07143 8.39285,-1.07143 1.07143,0 10.71429,-1.78572 10.71429,-1.78572 l 6.63871,-1.05492 13.82646,-3.4724 13.25825,-2.52538 8.96511,-1.13642 11.49048,-1.13642 13.76333,-0.12627 11.11168,0.88388 5.68211,0.12627 -2.02031,-4.16688 -3.6618,-3.28299 -5.68211,-2.77792 -8.71256,-4.9245 -5.93465,-2.77792 -7.44987,-2.52538 -6.69227,-2.27284 -7.95495,-1.89404 -6.69226,-2.39911 -6.69226,-1.13642 -5.05076,-2.02031 6.56599,-3.78807 6.69226,-2.65165 7.07107,-3.03046 6.43972,-2.14657 7.32361,-2.52538 c 0,0 13.00571,-4.9245 14.14213,-5.55584 1.13643,-0.63135 14.64722,-4.41942 14.64722,-4.41942 l 9.59644,-1.38896 12.62691,-1.89403 12.50064,-1.89404 12.37437,-3.15673 c 0,0 19.44543,-4.29315 19.1929,-4.41941 -0.25254,-0.12627 10.10152,-2.14658 10.10152,-2.14658 l 14.52094,-3.28299 12.11909,-3.72275 11.07143,-2.85715 12.14286,-2.32143 9.46428,-2.14285 4.10715,-3.75 -0.17858,-6.16648 -12.14285,5.80933 -10.71429,2.5 -15.17857,3.21429 -25,5.53571 -17.32143,3.39286 -16.78571,3.57143 -12.14286,1.42857 -19.28571,3.03572 -20.53572,0.71428 -21.07143,-1.25 -15.53571,-1.96428 -15.35714,-6.25 -10.17858,-4.64286 -9.82142,-7.32143 -13.75,-7.77362 -8.92858,-9.54781 -5.1127,-8.12987 -3.40926,-10.6066 -1.26269,-6.06092 -1.01016,-8.58629 -2.39911,-10.2278 -2.52538,-13.51079 -1.89404,-7.3236 -3.03045,-7.82869 -3.91435,-6.56599 -4.54568,-4.79822 -3.91434,-1.6415 -0.63135,1.26269 0.25254,4.04061 0.12627,6.31345 -1.01015,6.06092 -1.6415,6.56599 -2.77792,3.6618 -4.67196,7.07107 -5.42957,3.53554 -3.28299,5.3033 -3.66181,4.67195 -7.57614,6.81853 -10.35406,5.93465 -11.49049,4.29315 -11.49048,3.03045 -12.12183,1.38896 -12.75318,1.01016 -12.37437,1.13642 -18.81409,0.88388 -15.02602,1.26269 -14.2684,0.37881 -18.30902,3.283 -22.8547,2.77791 -17.17259,3.283 -14.14214,2.90419 -25.50635,4.92449 -13.51079,3.03047 -19.82424,5.30329 -4.29315,1.51523 -4.04061,-3.78807 -4.79823,-3.03045 -4.92449,-4.9245 -5.05076,0.25253 -5.55584,4.67197 -5.80838,0 -7.57614,5.6821 -7.19734,3.91434 -8.83884,1.6415 -2.52538,0.25254 0.75762,2.27284 4.04061,1.26269 5.80837,2.0203 c 0,0 2.77792,0.12627 4.04061,0.50508 1.2627,0.37881 3.283,1.26269 3.283,1.26269 l -6.18718,1.38896 -11.11168,0.50508 -13.8896,0.50507 -11.86929,0.37881 -8.33376,-0.50508 -5.80838,-1.64149 -6.69226,-3.66181 -5.55584,-5.17703 -7.44987,-7.82868 -3.283,-2.77791 -20.32932,-16.92006 -15.40482,-13.38453 -15.40483,-13.63706 -14.64721,-11.11167 -15.9099,-7.57615 -14.89976,-2.27284 z"
         style="opacity:1;fill:#112847;fill-opacity:1;fill-rule:evenodd;stroke:#112847;stroke-width:1.4369849;stroke-linecap:butt;stroke-linejoin:miter;stroke-miterlimit:4;stroke-dasharray:none;stroke-opacity:1" />
      <path
         inkscape:connector-curvature="0"
         id="path4348-3"
         d="m -444.73216,369.94581 5.35714,8.30933 8.92857,3.57143 4.64286,5.35715 3.57143,14.28571 4.64286,11.42857 -5,16.78572 -2.85715,19.64285 -7.85714,17.5 -5.35714,11.78572 1.07143,2.5 1.42857,0 4.28571,-5.71429 3.57143,-10.35714 6.78571,-11.78572 5.71429,-11.78571 9.28571,-8.92857 12.5,-6.78572 17.5,-3.92857 17.5,-0.71428 15.35715,0.71428 19.64285,3.92857 17.14286,7.14286 15,4.64286 25.71429,9.28571 30.35714,8.21429 33.21429,9.64286 30.35714,4.64285 33.21428,2.14286 29.64286,-0.35714 37.5,-1.42857 34.64286,-2.85715 30.71429,2.14286 20.35714,-1.42857 16.07143,0.71428 17.85714,-3.21428 18.92857,-4.28572 18.92857,-2.85714 19.28572,-1.07143 6.78571,0 -12.85714,-7.14285 -13.57143,-3.92858 -12.5,-3.57142 -13.21429,-3.21429 -10.71428,-4.64286 3.92857,-3.57143 12.5,-6.42857 13.21429,-5.35714 11.78571,-3.57143 11.42857,-4.28571 5.71429,-2.14286 12.5,-2.14286 -21.42857,-1.78571 -17.14286,1.42857 -20.35714,1.07143 -23.21429,2.14286 -12.14286,1.78571 -9.28571,0.71429 -0.89286,6.78571 -0.35714,5.35714 1.78571,4.64286 3.21429,5.17857 1.25,2.32143 -0.71429,1.96429 -2.5,-0.71429 -2.85714,-2.32143 -3.21429,-4.28571 -1.07142,-6.07143 0.53571,-5.17857 1.78571,-7.5 -8.21428,2.85714 -5.89286,1.07143 -6.07143,0.17857 -4.46428,-2.14286 -4.10715,-4.10714 -4.28571,-3.21429 -8.21429,-1.96428 -16.96428,-2.32143 -15.17857,-1.60714 -32.67857,-2.67857 -18.03572,0.17857 -17.67857,-0.35715 -15.53571,0.17858 -23.39286,-0.71429 -20.17857,0.17857 -17.67857,0.17857 -14.10715,-1.07143 -27.32143,1.25 -26.96428,1.60715 -24.46429,1.07143 -20.53571,2.67857 -13.57143,-0.17857 -10.71429,-0.89286 -18.75,1.07143 -14.64285,0.89285 -11.60715,-1.07142 -11.25,-1.60715 -5.53571,-0.71428 -8.39286,-1.60715 -4.46428,-6.42857 -4.28572,-7.67857 -3.57143,-5.71429 -5,-5 -3.48147,-2.7176 -6.81853,-2.0203 -3.78807,0 z"
         style="opacity:1;fill:#9eb2c8;fill-opacity:1;fill-rule:evenodd;stroke:none;stroke-width:1px;stroke-linecap:butt;stroke-linejoin:miter;stroke-opacity:1" />
      <path
         inkscape:connector-curvature="0"
         id="path4350-1"
         d="m -139.37502,415.04086 12.5,-5 13.75,-2.32143 11.42857,-0.89286 15.35715,0.89286 14.28571,2.5 19.10714,5.53571 12.85715,5.35715 11.42857,8.21428 0.53571,2.14286 -9.82143,-1.60714 -8.21428,-3.21429 -9.46429,-1.96428 -10.35714,-2.5 -6.78571,-0.17858 10.89285,6.60715 5.35715,3.57143 6.25,6.25 3.92857,7.14285 -4.64286,-0.17857 -6.60714,-4.28571 -8.57143,-5.17857 -9.82143,-6.07143 -7.32143,-3.75 -10.89286,-3.92857 -15.17857,-3.21429 -9.46428,-0.71429 -13.92857,-1.78571 z"
         style="opacity:1;fill:#1d4c8a;fill-opacity:1;fill-rule:evenodd;stroke:#000000;stroke-width:1.4369849;stroke-linecap:butt;stroke-linejoin:miter;stroke-miterlimit:4;stroke-dasharray:none;stroke-opacity:1" />
      <path
         inkscape:connector-curvature="0"
         id="path4352-8"
         d="m 49.3038,409.59429 -0.75761,4.04061 2.02031,3.28299 2.65165,1.01016 3.28299,-0.12627 2.02031,-1.76777 1.64149,-2.65165 -0.12626,-3.15673 -1.76777,-2.52538 -2.02031,-1.38896 -3.15672,0.25254 -3.283,2.65165 z"
         style="opacity:1;fill:none;fill-rule:evenodd;stroke:#000000;stroke-width:1.58068335;stroke-linecap:butt;stroke-linejoin:miter;stroke-miterlimit:4;stroke-dasharray:none;stroke-opacity:1" />
      <ellipse
         ry="2.348124"
         rx="1.4827323"
         cy="411.48834"
         cx="54.543945"
         id="path4354-2"
         style="opacity:1;fill:#203f66;fill-opacity:1;stroke:none;stroke-width:2.20000005;stroke-linejoin:miter;stroke-miterlimit:4;stroke-dasharray:none;stroke-opacity:1" />
      <ellipse
         ry="2.2728431"
         rx="1.2626907"
         cy="356.81381"
         cx="-36.180359"
         id="path4356-2"
         style="opacity:1;fill:#1f649f;fill-opacity:1;stroke:none;stroke-width:2.20000005;stroke-linejoin:miter;stroke-miterlimit:4;stroke-dasharray:none;stroke-opacity:1" />
      <ellipse
         ry="2.8094869"
         rx="1.3100415"
         cy="370.38776"
         cx="-33.954834"
         id="path4360-9"
         style="opacity:1;fill:#1f649f;fill-opacity:1;stroke:none;stroke-width:2.20000005;stroke-linejoin:miter;stroke-miterlimit:4;stroke-dasharray:none;stroke-opacity:1" />
      <ellipse
         ry="2.4306796"
         rx="1.4047434"
         cy="383.74069"
         cx="-33.323486"
         id="path4362-0"
         style="opacity:1;fill:#1f649f;fill-opacity:1;stroke:none;stroke-width:2.20000005;stroke-linejoin:miter;stroke-miterlimit:4;stroke-dasharray:none;stroke-opacity:1" />
      <ellipse
         ry="4.0721774"
         rx="1.246907"
         cy="397.63031"
         cx="-31.461061"
         id="path4364-2"
         style="opacity:1;fill:#1f649f;fill-opacity:1;stroke:none;stroke-width:2.20000005;stroke-linejoin:miter;stroke-miterlimit:4;stroke-dasharray:none;stroke-opacity:1" />
      <ellipse
         ry="3.3934813"
         rx="1.6257143"
         cy="410.80963"
         cx="-29.945803"
         id="path4366-4"
         style="opacity:1;fill:#1f649f;fill-opacity:1;stroke:none;stroke-width:2.20000005;stroke-linejoin:miter;stroke-miterlimit:4;stroke-dasharray:none;stroke-opacity:1" />
      <ellipse
         ry="1.5152289"
         rx="1.1837726"
         cy="420.73755"
         cx="-29.661684"
         id="path4368-9"
         style="opacity:1;fill:#1f649f;fill-opacity:1;stroke:none;stroke-width:2.20000005;stroke-linejoin:miter;stroke-miterlimit:4;stroke-dasharray:none;stroke-opacity:1" />
      <ellipse
         ry="4.2300138"
         rx="2.3675451"
         cy="354.98291"
         cx="-83.057739"
         id="path4370-9"
         style="opacity:1;fill:#1f649f;fill-opacity:1;stroke:none;stroke-width:2.20000005;stroke-linejoin:miter;stroke-miterlimit:4;stroke-dasharray:none;stroke-opacity:1" />
      <ellipse
         ry="2.2728431"
         rx="1.767767"
         cy="365.40012"
         cx="-83.53125"
         id="path4372-4"
         style="opacity:1;fill:#1f649f;fill-opacity:1;stroke:none;stroke-width:2.20000005;stroke-linejoin:miter;stroke-miterlimit:4;stroke-dasharray:none;stroke-opacity:1" />
      <ellipse
         ry="2.5253813"
         rx="1.4836615"
         cy="375.88046"
         cx="-83.752228"
         id="path4374-2"
         style="opacity:1;fill:#1f649f;fill-opacity:1;stroke:none;stroke-width:2.20000005;stroke-linejoin:miter;stroke-miterlimit:4;stroke-dasharray:none;stroke-opacity:1" />
      <ellipse
         ry="2.3991122"
         rx="1.5467961"
         cy="386.86584"
         cx="-83.689087"
         id="path4376-1"
         style="opacity:1;fill:#1f649f;fill-opacity:1;stroke:none;stroke-width:2.20000005;stroke-linejoin:miter;stroke-miterlimit:4;stroke-dasharray:none;stroke-opacity:1" />
      <ellipse
         ry="2.3359778"
         rx="1.3258252"
         cy="396.39917"
         cx="-83.468109"
         id="path4378-1"
         style="opacity:1;fill:#1f649f;fill-opacity:1;stroke:none;stroke-width:2.20000005;stroke-linejoin:miter;stroke-miterlimit:4;stroke-dasharray:none;stroke-opacity:1" />
      <ellipse
         ry="1.1679889"
         rx="1.0732871"
         cy="432.29117"
         cx="-84.920227"
         id="path4380-1"
         style="opacity:1;fill:#1f649f;fill-opacity:1;stroke:none;stroke-width:2.20000005;stroke-linejoin:miter;stroke-miterlimit:4;stroke-dasharray:none;stroke-opacity:1" />
      <ellipse
         ry="1.8624687"
         rx="1.1679889"
         cy="442.89774"
         cx="-85.141174"
         id="path4382-5"
         style="opacity:1;fill:#1f649f;fill-opacity:1;stroke:none;stroke-width:2.20000005;stroke-linejoin:miter;stroke-miterlimit:4;stroke-dasharray:none;stroke-opacity:1" />
      <ellipse
         ry="2.2098215"
         rx="1.9196428"
         cy="356.44711"
         cx="-135.26788"
         id="path4384-2"
         style="opacity:1;fill:#1f649f;fill-opacity:1;stroke:none;stroke-width:2.20000005;stroke-linejoin:miter;stroke-miterlimit:4;stroke-dasharray:none;stroke-opacity:1" />
      <ellipse
         ry="1.9196428"
         rx="1.71875"
         cy="366.33551"
         cx="-135.37949"
         id="path4386-7"
         style="opacity:1;fill:#1f649f;fill-opacity:1;stroke:none;stroke-width:2.20000005;stroke-linejoin:miter;stroke-miterlimit:4;stroke-dasharray:none;stroke-opacity:1" />
      <ellipse
         ry="2.2991071"
         rx="1.4955357"
         cy="376.84891"
         cx="-135.29019"
         id="path4388-3"
         style="opacity:1;fill:#1f649f;fill-opacity:1;stroke:none;stroke-width:2.20000005;stroke-linejoin:miter;stroke-miterlimit:4;stroke-dasharray:none;stroke-opacity:1" />
      <ellipse
         ry="2.5892856"
         rx="1.7410715"
         cy="388.12122"
         cx="-135.71429"
         id="path4390-1"
         style="opacity:1;fill:#1f649f;fill-opacity:1;stroke:none;stroke-width:2.20000005;stroke-linejoin:miter;stroke-miterlimit:4;stroke-dasharray:none;stroke-opacity:1" />
      <ellipse
         ry="2.3214285"
         rx="1.6517857"
         cy="397.76407"
         cx="-136.07144"
         id="path4392-2"
         style="opacity:1;fill:#1f649f;fill-opacity:1;stroke:none;stroke-width:2.20000005;stroke-linejoin:miter;stroke-miterlimit:4;stroke-dasharray:none;stroke-opacity:1" />
      <ellipse
         ry="2.0982144"
         rx="1.3839285"
         cy="407.89801"
         cx="-137.14288"
         id="path4394-7"
         style="opacity:1;fill:#1f649f;fill-opacity:1;stroke:none;stroke-width:2.20000005;stroke-linejoin:miter;stroke-miterlimit:4;stroke-dasharray:none;stroke-opacity:1" />
      <ellipse
         ry="1.875"
         rx="1.4508928"
         cy="424.59442"
         cx="-137.3884"
         id="path4396-8"
         style="opacity:1;fill:#1f649f;fill-opacity:1;stroke:none;stroke-width:2.20000005;stroke-linejoin:miter;stroke-miterlimit:4;stroke-dasharray:none;stroke-opacity:1" />
      <ellipse
         ry="1.7633928"
         rx="1.2276785"
         cy="435.55426"
         cx="-137.3884"
         id="path4398-5"
         style="opacity:1;fill:#1f649f;fill-opacity:1;stroke:none;stroke-width:2.20000005;stroke-linejoin:miter;stroke-miterlimit:4;stroke-dasharray:none;stroke-opacity:1" />
      <ellipse
         ry="3.8839285"
         rx="2.4107144"
         cy="450.71051"
         cx="-138.75003"
         id="path4400-8"
         style="opacity:1;fill:#1f649f;fill-opacity:1;stroke:none;stroke-width:2.20000005;stroke-linejoin:miter;stroke-miterlimit:4;stroke-dasharray:none;stroke-opacity:1" />
      <ellipse
         ry="2.5569487"
         rx="1.8624687"
         cy="363.79019"
         cx="-192.15421"
         id="path4402-9"
         style="opacity:1;fill:#1f649f;fill-opacity:1;stroke:none;stroke-width:2.20000005;stroke-linejoin:miter;stroke-miterlimit:4;stroke-dasharray:none;stroke-opacity:1" />
      <ellipse
         ry="2.1465743"
         rx="2.241276"
         cy="373.22879"
         cx="-192.02795"
         id="path4404-4"
         style="opacity:1;fill:#1f649f;fill-opacity:1;stroke:none;stroke-width:2.20000005;stroke-linejoin:miter;stroke-miterlimit:4;stroke-dasharray:none;stroke-opacity:1" />
      <ellipse
         ry="2.2097087"
         rx="1.3258252"
         cy="382.8884"
         cx="-191.36505"
         id="path4406-1"
         style="opacity:1;fill:#1f649f;fill-opacity:1;stroke:none;stroke-width:2.20000005;stroke-linejoin:miter;stroke-miterlimit:4;stroke-dasharray:none;stroke-opacity:1" />
      <ellipse
         ry="1.9256033"
         rx="1.6730652"
         cy="391.19058"
         cx="-191.45975"
         id="path4408-9"
         style="opacity:1;fill:#1f649f;fill-opacity:1;stroke:none;stroke-width:2.20000005;stroke-linejoin:miter;stroke-miterlimit:4;stroke-dasharray:none;stroke-opacity:1" />
      <ellipse
         ry="1.5783633"
         rx="1.420527"
         cy="400.69232"
         cx="-192.09109"
         id="path4410-7"
         style="opacity:1;fill:#1f649f;fill-opacity:1;stroke:none;stroke-width:2.20000005;stroke-linejoin:miter;stroke-miterlimit:4;stroke-dasharray:none;stroke-opacity:1" />
      <ellipse
         ry="2.3991122"
         rx="1.1048543"
         cy="411.86713"
         cx="-191.08093"
         id="path4412-5"
         style="opacity:1;fill:#1f649f;fill-opacity:1;stroke:none;stroke-width:2.20000005;stroke-linejoin:miter;stroke-miterlimit:4;stroke-dasharray:none;stroke-opacity:1" />
      <ellipse
         ry="1.5783633"
         rx="1.2311234"
         cy="420.01147"
         cx="-192.28049"
         id="path4414-4"
         style="opacity:1;fill:#1f649f;fill-opacity:1;stroke:none;stroke-width:2.20000005;stroke-linejoin:miter;stroke-miterlimit:4;stroke-dasharray:none;stroke-opacity:1" />
      <ellipse
         ry="2.8726213"
         rx="1.4836615"
         cy="431.40729"
         cx="-192.84869"
         id="path4416-8"
         style="opacity:1;fill:#1f649f;fill-opacity:1;stroke:none;stroke-width:2.20000005;stroke-linejoin:miter;stroke-miterlimit:4;stroke-dasharray:none;stroke-opacity:1" />
      <ellipse
         ry="1.9256033"
         rx="1.1048543"
         cy="442.89774"
         cx="-194.36392"
         id="path4418-5"
         style="opacity:1;fill:#1f649f;fill-opacity:1;stroke:none;stroke-width:2.20000005;stroke-linejoin:miter;stroke-miterlimit:4;stroke-dasharray:none;stroke-opacity:1" />
      <ellipse
         ry="2.9673231"
         rx="1.8309015"
         cy="452.52576"
         cx="-195.27939"
         id="path4420-0"
         style="opacity:1;fill:#1f649f;fill-opacity:1;stroke:none;stroke-width:2.20000005;stroke-linejoin:miter;stroke-miterlimit:4;stroke-dasharray:none;stroke-opacity:1" />
      <ellipse
         ry="1.9196428"
         rx="1.4508928"
         cy="374.99622"
         cx="-244.21878"
         id="path4422-1"
         style="opacity:1;fill:#1f649f;fill-opacity:1;stroke:none;stroke-width:2.20000005;stroke-linejoin:miter;stroke-miterlimit:4;stroke-dasharray:none;stroke-opacity:1" />
      <ellipse
         ry="1.1160715"
         rx="1.2053572"
         cy="385.7998"
         cx="-244.28574"
         id="path4424-1"
         style="opacity:1;fill:#1f649f;fill-opacity:1;stroke:none;stroke-width:2.20000005;stroke-linejoin:miter;stroke-miterlimit:4;stroke-dasharray:none;stroke-opacity:1" />
      <ellipse
         ry="2.0535715"
         rx="1.1383928"
         cy="392.54086"
         cx="-243.81699"
         id="path4426-0"
         style="opacity:1;fill:#1f649f;fill-opacity:1;stroke:none;stroke-width:2.20000005;stroke-linejoin:miter;stroke-miterlimit:4;stroke-dasharray:none;stroke-opacity:1" />
      <ellipse
         ry="2.3883929"
         rx="1.6964285"
         cy="406.13461"
         cx="-244.73215"
         id="path4428-4"
         style="opacity:1;fill:#1f649f;fill-opacity:1;stroke:none;stroke-width:2.20000005;stroke-linejoin:miter;stroke-miterlimit:4;stroke-dasharray:none;stroke-opacity:1" />
      <ellipse
         ry="1.8080357"
         rx="0.98214287"
         cy="416.17926"
         cx="-244.64288"
         id="path4430-9"
         style="opacity:1;fill:#1f649f;fill-opacity:1;stroke:none;stroke-width:2.20000005;stroke-linejoin:miter;stroke-miterlimit:4;stroke-dasharray:none;stroke-opacity:1" />
      <ellipse
         ry="0.9598214"
         rx="0.9151786"
         cy="425.59891"
         cx="-244.75449"
         id="path4432-8"
         style="opacity:1;fill:#1f649f;fill-opacity:1;stroke:none;stroke-width:2.20000005;stroke-linejoin:miter;stroke-miterlimit:4;stroke-dasharray:none;stroke-opacity:1" />
      <ellipse
         ry="1.4285715"
         rx="1.2723215"
         cy="432.63016"
         cx="-245.2009"
         id="path4434-5"
         style="opacity:1;fill:#1f649f;fill-opacity:1;stroke:none;stroke-width:2.20000005;stroke-linejoin:miter;stroke-miterlimit:4;stroke-dasharray:none;stroke-opacity:1" />
      <ellipse
         ry="2.6785715"
         rx="1.4508928"
         cy="441.42477"
         cx="-245.78128"
         id="path4436-5"
         style="opacity:1;fill:#1f649f;fill-opacity:1;stroke:none;stroke-width:2.20000005;stroke-linejoin:miter;stroke-miterlimit:4;stroke-dasharray:none;stroke-opacity:1" />
      <ellipse
         ry="2.3214285"
         rx="1.4285715"
         cy="385.30872"
         cx="-297.32144"
         id="path4438-8"
         style="opacity:1;fill:#1f649f;fill-opacity:1;stroke:none;stroke-width:2.20000005;stroke-linejoin:miter;stroke-miterlimit:4;stroke-dasharray:none;stroke-opacity:1" />
      <ellipse
         ry="2.1875"
         rx="1.3839285"
         cy="392.94266"
         cx="-297.63394"
         id="path4440-1"
         style="opacity:1;fill:#1f649f;fill-opacity:1;stroke:none;stroke-width:2.20000005;stroke-linejoin:miter;stroke-miterlimit:4;stroke-dasharray:none;stroke-opacity:1" />
      <ellipse
         ry="1.4285715"
         rx="1.0714285"
         cy="400.4873"
         cx="-297.32144"
         id="path4442-9"
         style="opacity:1;fill:#1f649f;fill-opacity:1;stroke:none;stroke-width:2.20000005;stroke-linejoin:miter;stroke-miterlimit:4;stroke-dasharray:none;stroke-opacity:1" />
      <ellipse
         ry="1.6964285"
         rx="1.3392857"
         cy="408.34442"
         cx="-297.94644"
         id="path4444-7"
         style="opacity:1;fill:#1f649f;fill-opacity:1;stroke:none;stroke-width:2.20000005;stroke-linejoin:miter;stroke-miterlimit:4;stroke-dasharray:none;stroke-opacity:1" />
      <ellipse
         ry="2.0089285"
         rx="1.1160715"
         cy="417.31766"
         cx="-297.99109"
         id="path4446-4"
         style="opacity:1;fill:#1f649f;fill-opacity:1;stroke:none;stroke-width:2.20000005;stroke-linejoin:miter;stroke-miterlimit:4;stroke-dasharray:none;stroke-opacity:1" />
      <ellipse
         ry="2.1428571"
         rx="1.5178572"
         cy="426.82657"
         cx="-298.30359"
         id="path4448-4"
         style="opacity:1;fill:#1f649f;fill-opacity:1;stroke:none;stroke-width:2.20000005;stroke-linejoin:miter;stroke-miterlimit:4;stroke-dasharray:none;stroke-opacity:1" />
      <ellipse
         ry="2.0535715"
         rx="1.25"
         cy="397.09442"
         cx="-342.32144"
         id="path4450-6"
         style="opacity:1;fill:#1f649f;fill-opacity:1;stroke:none;stroke-width:2.20000005;stroke-linejoin:miter;stroke-miterlimit:4;stroke-dasharray:none;stroke-opacity:1" />
      <ellipse
         ry="1.0714285"
         rx="0.7589286"
         cy="402.45157"
         cx="-342.18753"
         id="path4452-6"
         style="opacity:1;fill:#1f649f;fill-opacity:1;stroke:none;stroke-width:2.20000005;stroke-linejoin:miter;stroke-miterlimit:4;stroke-dasharray:none;stroke-opacity:1" />
      <ellipse
         ry="2.0089285"
         rx="1.1607143"
         cy="410.08551"
         cx="-343.30359"
         id="path4454-1"
         style="opacity:1;fill:#1f649f;fill-opacity:1;stroke:none;stroke-width:2.20000005;stroke-linejoin:miter;stroke-miterlimit:4;stroke-dasharray:none;stroke-opacity:1" />
      <ellipse
         ry="0.7589286"
         rx="1.1160715"
         cy="415.62122"
         cx="-343.34824"
         id="path4456-6"
         style="opacity:1;fill:#1f649f;fill-opacity:1;stroke:none;stroke-width:2.20000005;stroke-linejoin:miter;stroke-miterlimit:4;stroke-dasharray:none;stroke-opacity:1" />
      <ellipse
         ry="1.5178572"
         rx="1.7857143"
         cy="398.52301"
         cx="-381.51788"
         id="path4458-2"
         style="opacity:1;fill:#1f649f;fill-opacity:1;stroke:none;stroke-width:2.20000005;stroke-linejoin:miter;stroke-miterlimit:4;stroke-dasharray:none;stroke-opacity:1" />
      <ellipse
         ry="1.3392857"
         rx="1.0267857"
         cy="403.07657"
         cx="-382.63394"
         id="path4460-9"
         style="opacity:1;fill:#1f649f;fill-opacity:1;stroke:none;stroke-width:2.20000005;stroke-linejoin:miter;stroke-miterlimit:4;stroke-dasharray:none;stroke-opacity:1" />
      <ellipse
         ry="1.7410715"
         rx="1.1160715"
         cy="408.9248"
         cx="-382.45538"
         id="path4462-7"
         style="opacity:1;fill:#1f649f;fill-opacity:1;stroke:none;stroke-width:2.20000005;stroke-linejoin:miter;stroke-miterlimit:4;stroke-dasharray:none;stroke-opacity:1" />
      <ellipse
         ry="1.0267857"
         rx="0.84821427"
         cy="414.28192"
         cx="-382.45538"
         id="path4464-5"
         style="opacity:1;fill:none;fill-opacity:1;stroke:#000000;stroke-width:1.58068335;stroke-linejoin:miter;stroke-miterlimit:4;stroke-dasharray:none;stroke-opacity:1" />
      <path
         inkscape:connector-curvature="0"
         id="path4474-3"
         d="m 553.48211,357.898 11.7857,-7.14286 10.8929,-6.42857 11.7857,-8.57143 12.3214,-9.64285 7.1429,-7.67858 6.25,-5.71428 6.4286,2.67857 1.6071,5.17857 -1.9643,7.32143 -5.7143,6.42857 -11.0714,5.71429 -11.6071,7.67857 -11.9643,5.71428 -11.25,5.53572 -7.5,3.03571 -5.7143,-0.17857 -2.5,-3.03571 z"
         style="fill:#c18faf;fill-opacity:1;fill-rule:evenodd;stroke:#93888f;stroke-width:3.23321605;stroke-linecap:butt;stroke-linejoin:miter;stroke-miterlimit:4;stroke-dasharray:none;stroke-opacity:1" />
      <path
         sodipodi:nodetypes="ccccccc"
         inkscape:connector-curvature="0"
         id="path4476-4"
         d="m -520.02548,207.96425 -23.50399,23.08558 -4.54569,164.14978 36.36549,2.02031 22.22336,-21.71828 -37.37564,-1.01015 z"
         style="fill:#000000;fill-opacity:1;fill-rule:evenodd;stroke:none;stroke-width:1px;stroke-linecap:butt;stroke-linejoin:miter;stroke-opacity:1" />
      <path
         inkscape:connector-curvature="0"
         id="path4478-6"
         d="m -442.94645,264.32657 8.21429,36.42857 33.92857,-94.28571 -28.57143,19.64286 z"
         style="fill:#000000;fill-opacity:1;fill-rule:evenodd;stroke:none;stroke-width:1px;stroke-linecap:butt;stroke-linejoin:miter;stroke-opacity:1" />
      <path
         inkscape:connector-curvature="0"
         id="path4480-6"
         d="m -389.22867,290.64883 -1.01015,83.33758 33.33503,1.01015 -4.54568,5.80838 0.25253,3.03046 5.05077,3.03046 -14.89975,2.27284 -13.8896,-1.01015 -13.13198,-4.29315 -7.32361,-6.81853 -3.78807,-11.61676 0,-17.9302 4.54568,-14.89975 14.89975,-43.43656 z"
         style="fill:#000000;fill-opacity:1;fill-rule:evenodd;stroke:none;stroke-width:1px;stroke-linecap:butt;stroke-linejoin:miter;stroke-opacity:1" />
      <path
         inkscape:connector-curvature="0"
         id="path4482-8"
         d="m -340.74135,366.6628 c 0.50508,-1.51522 67.17515,-159.6041 67.17515,-159.6041 l -24.24366,12.87945 -46.21448,114.65231 -0.50508,29.7995 z"
         style="fill:#000000;fill-opacity:1;fill-rule:evenodd;stroke:none;stroke-width:1px;stroke-linecap:butt;stroke-linejoin:miter;stroke-opacity:1" />
      <path
         inkscape:connector-curvature="0"
         id="path4484-9"
         d="m -264.91073,293.96943 4.28571,8.03571 12.67857,-0.89285 -9.82143,-26.07143 z"
         style="fill:#000000;fill-opacity:1;fill-rule:evenodd;stroke:none;stroke-width:1px;stroke-linecap:butt;stroke-linejoin:miter;stroke-opacity:1" />
      <path
         inkscape:connector-curvature="0"
         id="path4486-5"
         d="m -247.94645,342.54086 5.89286,16.07143 12.67857,-0.89286 1.78572,-0.89286 -5.17858,-14.46428 z"
         style="fill:#000000;fill-opacity:1;fill-rule:evenodd;stroke:none;stroke-width:1px;stroke-linecap:butt;stroke-linejoin:miter;stroke-opacity:1" />
      <path
         inkscape:connector-curvature="0"
         id="path4488-3"
         d="m -169.37502,207.18371 -20,18.57143 -0.35714,95.35715 3.57143,13.92857 4.64285,9.28571 11.42858,0.71429 1.78571,-3.21429 z"
         style="fill:#000000;fill-opacity:1;fill-rule:evenodd;stroke:none;stroke-width:1px;stroke-linecap:butt;stroke-linejoin:miter;stroke-opacity:1" />
      <path
         inkscape:connector-curvature="0"
         id="path4490-2"
         d="m -123.48216,263.07657 0.17857,-15.53571 14.46429,-1.07143 11.07143,0.89286 6.25,4.64285 3.03571,8.21429 -2.14286,7.67857 -3.39285,3.03571 -9.46429,1.60715 -6.07143,-0.17857 -1.42857,-5 -4.28571,-1.96429 z"
         style="fill:#000000;fill-opacity:1;fill-rule:evenodd;stroke:none;stroke-width:1px;stroke-linecap:butt;stroke-linejoin:miter;stroke-opacity:1" />
      <path
         inkscape:connector-curvature="0"
         id="path4492-7"
         d="m -124.37502,311.11229 0.17857,21.42857 4.28572,0 3.57143,8.03571 4.28571,1.25 4.82143,0.17857 3.21429,-0.89285 -12.5,-30 z"
         style="fill:#000000;fill-opacity:1;fill-rule:evenodd;stroke:none;stroke-width:1px;stroke-linecap:butt;stroke-linejoin:miter;stroke-opacity:1" />
      <path
         inkscape:connector-curvature="0"
         id="path4494-0"
         d="m -48.80726,326.13043 c 0.12627,-0.50507 9.34391,-12.75317 9.34391,-12.75317 l 9.47018,-9.09138 2.0203,-12.50063 -0.33072,-84.78011 -20.53571,25.35715 2.32143,4.82142 3.57142,8.57143 0.89286,8.39286 -0.17857,9.64286 -1.60714,9.64285 -3.03572,7.85715 -1.78571,4.10714 -1.25,10.71429 1.07143,23.39285 z"
         style="fill:#000000;fill-opacity:1;fill-rule:evenodd;stroke:none;stroke-width:1px;stroke-linecap:butt;stroke-linejoin:miter;stroke-opacity:1" />
      <path
         inkscape:connector-curvature="0"
         id="path4496-7"
         d="m 62.94641,328.96943 0.17857,-103.39286 21.96429,-18.75 1.07143,169.82143 18.21428,1.78571 25,-0.71428 0.53572,-0.89286 1.42857,-153.75 17.14286,-15.89286 1.42857,171.60715 20.17857,0.53571 13.21428,0 4.82143,-0.71428 -11.60714,6.25 -12.67857,4.64285 -13.57143,2.5 -13.75,1.07143 -10.71429,0.71429 -4.10714,-0.53572 0.53572,-11.25 -11.60715,11.42858 -6.60714,1.07142 -12.85714,-1.25 -10,-1.42857 -9.10715,-3.21428 -4.46428,-3.21429 -13.92857,-4.46429 -1.42857,-3.39285 25.71428,-0.17857 -0.89286,-48.21429 z"
         style="fill:#000000;fill-opacity:1;fill-rule:evenodd;stroke:none;stroke-width:1px;stroke-linecap:butt;stroke-linejoin:miter;stroke-opacity:1" />
      <path
         inkscape:connector-curvature="0"
         id="path4498-3"
         d="m 194.01784,313.79086 1.07143,-30.71429 51.25,86.60714 -8.21429,3.21429 -8.39285,2.5 -24.28572,-39.82143 z"
         style="fill:#000000;fill-opacity:1;fill-rule:evenodd;stroke:none;stroke-width:1px;stroke-linecap:butt;stroke-linejoin:miter;stroke-opacity:1" />
      <path
         inkscape:connector-curvature="0"
         id="path4500-7"
         d="m 259.73213,207.36229 1.07142,92.14285 -12.5,-18.39285 -5.17857,-9.10715 -3.39285,-13.75 c 0,0 0.17857,-17.85714 0.35714,-18.57143 0.17857,-0.71428 5.35714,-9.10714 5.35714,-9.10714 z"
         style="fill:#000000;fill-opacity:1;fill-rule:evenodd;stroke:none;stroke-width:1px;stroke-linecap:butt;stroke-linejoin:miter;stroke-opacity:1" />
      <path
         inkscape:connector-curvature="0"
         id="path4502-1"
         d="m 378.48213,339.32657 7.85714,-6.07143 3.21428,-7.14285 -2.5,-5 -6.25,-3.57143 -11.60714,-5.71429 -15.53571,-5.17857 -15.17857,-6.60714 -8.57143,-6.42857 -9.10715,-14.28572 -3.92857,-16.07143 1.07143,-7.67857 3.92857,-17.67857 5.71429,-8.39286 8.92857,-7.85714 10.89286,-8.57143 -19.46429,10.17857 -13.57143,10.17857 -7.32143,11.42858 -1.60714,17.5 0.17857,18.39285 0.71429,17.67857 2.14286,3.75 5.89285,7.5 9.64286,7.5 10.53571,4.28572 15.53572,5 12.85714,3.57143 10.89286,4.82143 z"
         style="fill:#000000;fill-opacity:1;fill-rule:evenodd;stroke:none;stroke-width:1px;stroke-linecap:butt;stroke-linejoin:miter;stroke-opacity:1" />
      <path
         inkscape:connector-curvature="0"
         id="path4504-4"
         d="m 399.44793,272.08727 9.09137,-13.51079 -6.69226,-5.93464 -7.07106,-3.283 -8.20749,-1.51523 -7.07107,0.12627 -6.31345,2.14657 -3.66181,2.90419 -1.26269,4.29315 0.12627,3.15673 6.18718,0.50507 5.05077,0 4.67195,1.13643 4.16688,1.51523 5.3033,2.65165 3.283,2.90418 z"
         style="fill:#000000;fill-opacity:1;fill-rule:evenodd;stroke:none;stroke-width:1px;stroke-linecap:butt;stroke-linejoin:miter;stroke-opacity:1" />
      <path
         inkscape:connector-curvature="0"
         id="path4506-4"
         d="m 459.55351,207.54086 -17.1428,74.46428 39.1071,0.89286 -13.5714,17.5 -33.2143,-0.53571 -10.17856,-10.89286 17.32146,-67.5 4.1071,-5.17857 6.7857,-4.46429 z"
         style="fill:#000000;fill-opacity:1;fill-rule:evenodd;stroke:none;stroke-width:1px;stroke-linecap:butt;stroke-linejoin:miter;stroke-opacity:1" />
      <path
         inkscape:connector-curvature="0"
         id="path4508-3"
         d="m -480.39494,350.24783 c -0.50507,4.04061 0,12.12183 0,12.12183 l 7.57615,19.69797 12.6269,24.24366 5.05077,16.16244 -2.52538,21.71828 -9.59645,31.81981 -9.59645,21.71828 -8.08122,21.71828 -8.5863,19.1929 -10.10153,20.20305 -6.06091,10.6066 0.50508,3.53553 5.05076,3.03046 10.10152,0.50508 15.15229,-2.02031 14.64721,-7.07107 8.08122,-14.14213 -8.08122,5.55584 -9.59645,3.03045 -11.11167,1.01016 -3.53554,-1.51523 4.04061,-17.1726 13.13199,-18.68782 11.61675,-30.30457 11.61675,-33.33504 8.08122,-30.30457 1.51523,-28.28428 -5.05076,-8.08122 -12.12183,-18.18274 -13.13198,-16.16244 z"
         style="fill:#000000;fill-opacity:1;fill-rule:evenodd;stroke:none;stroke-width:1px;stroke-linecap:butt;stroke-linejoin:miter;stroke-opacity:1" />
      <path
         inkscape:connector-curvature="0"
         id="path4510-1"
         d="m -404.6335,460.35445 9.59645,-9.34391 10.85914,-5.3033 10.35407,-0.50507 10.85914,2.77791 3.28299,2.27285 -11.11168,7.57614 10.85914,4.04061 10.35407,4.54569 8.33376,2.52538 7.57614,0.50508 6.81853,1.26269 6.56599,-2.77792 6.56599,-5.05077 4.04061,1.01016 4.79823,0.50507 2.27284,-0.75761 26.01143,8.83883 16.92005,8.83884 -5.80837,6.31345 -6.81853,15.40483 -7.07107,11.61675 -8.08122,9.34391 0,2.52539 6.81853,0.50507 16.92005,-0.25254 15.90991,-2.77792 11.61675,-7.82868 1.26269,-1.76777 -13.8896,3.78808 -8.33375,0 -5.30331,0 0.75762,-4.04061 5.05076,-5.80838 2.52538,-6.31345 5.3033,-9.59645 4.79823,-13.13199 1.76777,-10.6066 -3.03046,-3.78807 -8.5863,-2.27284 -14.64721,-5.55584 -24.24366,-8.5863 -7.07107,5.80838 -9.09137,2.52538 -9.84899,-2.77792 -10.85914,-3.53553 -12.37437,-5.05077 -11.86929,-5.05076 -8.5863,-1.76777 -8.58629,-0.75761 1.76776,-3.283 4.54569,-2.52538 3.03046,-1.01015 -9.09138,-0.75761 -12.6269,3.28299 -10.6066,5.55584 -6.81853,8.83883 z"
         style="fill:#000000;fill-opacity:1;fill-rule:evenodd;stroke:none;stroke-width:1px;stroke-linecap:butt;stroke-linejoin:miter;stroke-opacity:1" />
      <path
         inkscape:connector-curvature="0"
         id="path4512-0"
         d="m -206.6436,493.18441 16.41498,-14.39467 23.99112,2.27284 28.28428,2.02031 27.02158,-1.2627 19.44543,-1.01015 18.43529,-1.51523 -13.13199,4.29315 -11.36421,3.283 -1.51523,2.52538 2.0203,5.3033 2.27285,2.77792 7.07107,1.01015 8.83883,-0.25254 13.38452,-4.29314 7.32361,-3.03046 -9.59645,7.57614 -6.31346,4.79823 -6.31345,3.78807 -4.04061,5.3033 0.25254,4.54569 1.26269,3.53553 4.79822,0.75761 4.79823,-2.52538 10.35406,-3.78807 25.50635,-15.65736 -14.39467,16.66751 -10.6066,8.08122 -8.83884,5.80838 -12.87944,3.53553 -11.11168,0.75762 -7.07107,-2.77792 -2.0203,-4.79822 2.0203,-6.31346 1.26269,-2.27284 -7.57614,1.26269 -7.82868,0 -5.05076,-3.03046 -1.51523,-4.29315 3.53553,-4.04061 6.81853,-6.06091 -25.75889,0 -23.23351,0.25254 -22.22335,-3.03046 -17.67767,-3.283 z"
         style="fill:#000000;fill-opacity:1;fill-rule:evenodd;stroke:none;stroke-width:1px;stroke-linecap:butt;stroke-linejoin:miter;stroke-opacity:1" />
      <path
         inkscape:connector-curvature="0"
         id="path4514-4"
         d="m -28.09913,492.67933 13.13198,-14.89975 14.89975,0.75762 14.14213,0.75761 15.40483,-1.01015 16.92006,-3.03046 15.9099,-3.78807 10.85914,-2.0203 15.65736,-1.26269 11.36422,-1.2627 9.84899,0.50508 10.10152,0.75762 10.35407,1.76776 -18.43529,14.89975 -6.31345,0.25254 -9.34391,-1.26269 -14.89975,0.50508 -11.11168,2.0203 -10.85914,2.52538 -11.61676,2.52538 -12.87944,2.52539 -12.12183,1.76776 -11.11168,1.51523 -13.38452,-0.50507 -12.62691,0.50507 -8.58629,-1.51523 z"
         style="fill:#000000;fill-opacity:1;fill-rule:evenodd;stroke:none;stroke-width:1px;stroke-linecap:butt;stroke-linejoin:miter;stroke-opacity:1" />
      <path
         inkscape:connector-curvature="0"
         id="path4516-5"
         d="m 75.82031,430.68122 6.18718,-0.50507 7.07107,-2.77792 6.43972,-2.90419 10.2278,-4.54569 7.19734,-2.52538 7.07106,-0.88388 11.23795,-2.02031 9.72272,-2.27284 12.50064,-2.39911 15.9099,-2.90419 9.59645,-1.6415 8.46003,-2.02031 3.91434,-1.51522 -3.91434,4.67195 -8.08122,6.31345 -7.57615,7.32361 -6.31345,8.5863 -3.78807,7.57614 -3.03046,8.33376 c 0,0 -2.02031,10.73287 -2.02031,11.36422 0,0.63134 -0.88388,7.19733 -0.88388,7.19733 l 0.25254,10.48034 1.51523,4.67195 3.91434,9.21764 7.07107,8.33376 5.93464,4.41942 7.82868,2.65165 9.34391,1.6415 12.37437,0.3788 8.08122,-1.76776 9.21765,-3.283 13.00571,-7.70241 20.07678,-18.68782 1.6415,13.13198 5.17703,7.70241 6.18719,4.9245 7.82868,3.03045 11.86929,1.6415 9.84899,-1.76777 11.74302,-4.67195 7.19734,-5.42957 7.82868,-5.93465 1.6415,0.25254 1.01015,3.91434 2.27284,4.29315 4.41942,3.91434 5.55584,4.04061 4.54569,2.14658 5.80837,2.14657 7.70242,-0.12627 4.79822,-1.13642 2.39911,-1.38896 -15.15228,25.38008 -4.29315,6.31346 -4.29315,6.56599 -3.40927,4.92449 -5.80837,7.19734 -9.09813,9.06111 -8.327,6.46998 -9.21765,7.44988 -7.44987,5.3033 -4.41942,2.0203 -5.93464,0.88389 -4.29315,0 -0.75762,-0.75762 5.42957,-2.14657 7.6358,-4.40853 4.10723,-4.30404 6.94479,-6.18718 8.71257,-10.6066 7.82868,-8.96511 7.70242,-9.97525 6.56599,-8.46003 5.68211,-8.71257 -0.12627,-2.52538 -2.65165,0.75762 -7.57615,-0.12627 -6.43972,-2.14658 -5.55584,-2.77792 -5.93465,-4.41941 -5.42957,-7.70242 -1.13642,-2.65165 -6.9448,3.03046 -4.04061,3.91434 -5.17703,3.40927 -9.97525,2.52538 -10.2278,1.6415 -7.19734,0.3788 -9.34391,-3.15672 -9.21764,-5.80838 -4.92449,-5.93465 -2.52538,-4.41941 -1.26269,-2.14658 -10.85914,8.46003 -11.11168,5.3033 c 0,0 -10.35407,3.91434 -10.85914,4.16688 -0.50508,0.25254 -14.77348,3.53553 -14.77348,3.53553 l -11.49049,0.37881 -11.49048,-1.76777 -7.44988,-2.0203 -8.5863,-5.93465 -5.93464,-5.17703 -4.41942,-6.18718 -3.40926,-7.07107 -2.39912,-8.5863 -0.3788,-9.21764 1.51522,-7.44988 2.77792,-11.86929 3.91435,-8.83883 4.79822,-8.20749 5.05076,-6.43972 5.05077,-7.44988 -13.38453,2.65165 -12.75317,2.65165 -11.49049,2.90419 -11.99556,3.91434 -11.23795,3.03046 -4.29314,0.63134 -2.90419,-1.76776 -3.78807,0.25254 -6.18719,-1.01016 z"
         style="fill:#000000;fill-opacity:1;fill-rule:evenodd;stroke:none;stroke-width:1px;stroke-linecap:butt;stroke-linejoin:miter;stroke-opacity:1" />
      <path
         inkscape:connector-curvature="0"
         id="path4518-7"
         d="m 202.72072,484.85065 12.62691,-8.33376 8.83883,-7.3236 8.83884,-9.09137 4.29315,-6.81853 -12.12183,3.03045 -14.39468,2.77792 -6.06091,-3.28299 -2.77792,-3.53554 -1.51523,-12.37437 5.80838,-10.6066 8.08122,-9.59645 9.09137,-11.11167 8.08122,-6.566 9.34391,-6.31345 4.29315,-1.26269 1.76777,2.0203 0.75761,3.283 -1.76777,4.04061 -3.28299,3.53553 -4.29315,3.53554 -7.82868,2.77792 -6.06092,3.78807 -4.29315,6.31345 -4.04061,9.59645 2.02031,7.82869 5.05076,4.54568 5.3033,2.77792 8.33376,-1.01015 9.09137,-2.27284 4.79823,-3.78808 6.31345,-7.57614 5.80838,-10.6066 2.27284,-7.32361 6.31346,-8.83883 12.87944,-11.8693 10.85914,-4.54568 11.11168,-3.78807 4.04061,-1.51523 -9.59645,-7.32361 -15.65737,14.39467 -16.41497,0.25254 -5.3033,-0.25254 0,-3.28299 -3.53554,-3.53554 4.29315,-3.78807 4.04061,-5.05076 0.50508,-1.26269 39.14341,-1.26269 1.01015,-33.33504 24.4962,-12.87944 -18.94036,32.32488 3.28299,3.78807 3.78808,2.52538 9.59645,4.79823 9.59645,5.05076 -16.92006,6.56599 -13.8896,5.55584 -20.70812,13.8896 -14.64722,14.64721 -10.6066,18.18275 -15.40482,17.42513 -9.09138,9.34391 -10.85914,11.61675 -8.83883,5.80838 -8.08122,4.29315 -5.55584,1.51523 z"
         style="fill:#000000;fill-opacity:1;fill-rule:evenodd;stroke:none;stroke-width:1px;stroke-linecap:butt;stroke-linejoin:miter;stroke-opacity:1" />
      <path
         inkscape:connector-curvature="0"
         id="path4520-4"
         d="m 285.04815,480.5575 11.11168,-9.59644 7.07107,-7.57615 13.38452,-13.38452 5.05076,-14.14214 2.02031,-9.59645 -3.53553,-7.57614 6.06091,-5.80838 12.62691,-10.35406 9.84899,-3.78807 3.78807,2.77792 -1.01016,5.55584 -4.54568,14.89975 -8.83884,16.16244 -8.08122,11.11168 -6.06091,7.82868 -7.82868,8.83883 -8.5863,7.07107 -8.5863,5.55584 -8.08122,3.03046 z"
         style="fill:#000000;fill-opacity:1;fill-rule:evenodd;stroke:none;stroke-width:1px;stroke-linecap:butt;stroke-linejoin:miter;stroke-opacity:1" />
      <path
         inkscape:connector-curvature="0"
         id="path4522-6"
         d="m 354.74868,486.36588 9.59645,-2.52538 7.82868,-8.33376 14.64721,-15.15229 8.5863,-10.6066 9.84899,-16.92005 9.34391,-18.43529 9.34391,-19.1929 -13.63706,-2.0203 -1.51523,-7.07107 1.76777,-8.08122 0.75761,-1.26269 -8.58629,4.29315 0.25253,5.55584 -6.06091,9.59645 -1.51523,4.79822 5.05076,1.51523 4.04061,0 1.76777,0.75761 -7.57614,13.13199 -9.34391,16.41498 -7.57615,12.37437 -5.80838,10.6066 -8.33375,9.09137 -7.32361,9.34391 -5.55584,6.81853 -2.27284,2.02031 0.25254,3.28299 z"
         style="fill:#000000;fill-opacity:1;fill-rule:evenodd;stroke:none;stroke-width:1px;stroke-linecap:butt;stroke-linejoin:miter;stroke-opacity:1" />
      <path
         inkscape:connector-curvature="0"
         id="path4524-2"
         d="m 421.33927,375.398 13.57144,-1.07143 8.2143,-13.21428 11.0714,-17.5 16.4286,-21.42857 12.8571,-13.57143 14.6429,-13.92858 11.4285,-8.57142 6.7858,-5.35715 -23.2143,9.28572 -15,10.71428 -12.5,9.64286 -10.3572,9.64286 -10.7143,13.57143 -11.4285,16.42857 -9.28574,17.85714 z"
         style="fill:#000000;fill-opacity:1;fill-rule:evenodd;stroke:none;stroke-width:1px;stroke-linecap:butt;stroke-linejoin:miter;stroke-opacity:1" />
      <path
         inkscape:connector-curvature="0"
         id="path4526-0"
         d="m 484.91071,353.96943 16.4286,-22.85714 12.8571,-21.07143 6.4286,-11.42857 10,-7.14286 7.1428,-0.35714 -8.5714,11.78571 -8.5714,12.85714 -10.7143,13.92858 -8.5714,10.35714 z"
         style="fill:#000000;fill-opacity:1;fill-rule:evenodd;stroke:none;stroke-width:1px;stroke-linecap:butt;stroke-linejoin:miter;stroke-opacity:1" />
      <path
         inkscape:connector-curvature="0"
         id="path4528-8"
         d="m 461.69641,395.75514 20,-1.07142 9.6429,0.71428 8.5714,-4.64286 -13.5714,13.57143 -11.7858,9.28572 -11.7857,13.21428 -7.8571,16.07143 -5,22.85714 2.5,17.5 8.9286,12.5 10.7142,8.21429 17.8572,4.28571 14.6428,0.35715 10,-2.5 -15.3571,13.92857 -19.2857,3.21428 -19.2857,-5.35714 -15,-11.07143 -9.2857,-14.64285 -3.2143,-11.78572 1.0714,-18.57143 5.3571,-16.07143 8.9286,-14.28571 10.3572,-13.92857 5,-7.14286 -8.2143,-0.35714 -3.2143,-0.35714 z"
         style="fill:#000000;fill-opacity:1;fill-rule:evenodd;stroke:none;stroke-width:1px;stroke-linecap:butt;stroke-linejoin:miter;stroke-opacity:1" />
      <path
         inkscape:connector-curvature="0"
         id="path4530-4"
         d="m 549.91071,442.54086 3.2143,0 -12.8572,16.78571 -14.2857,13.57143 -10,8.92857 -14.2857,7.14286 3.5714,-4.64286 8.9286,-5.35714 11.7857,-11.07143 10.7143,-11.78571 z"
         style="fill:#000000;fill-opacity:1;fill-rule:evenodd;stroke:none;stroke-width:1px;stroke-linecap:butt;stroke-linejoin:miter;stroke-opacity:1" />
      <path
         inkscape:connector-curvature="0"
         id="path4532-8"
         d="m 482.76781,470.398 3.2143,-12.5 1.4286,-4.64286 20.3571,-3.92857 17.8572,-3.21428 17.5,-8.92857 13.9285,-5 -21.7857,18.21428 -17.1428,12.14286 -15.7143,5 -14.6429,2.14286 z"
         style="fill:#000000;fill-opacity:1;fill-rule:evenodd;stroke:none;stroke-width:1px;stroke-linecap:butt;stroke-linejoin:miter;stroke-opacity:1" />
      <path
         inkscape:connector-curvature="0"
         id="path4534-9"
         d="m 520.62501,422.898 5.7143,-7.85714 2.1428,-6.42857 -0.7143,-3.92857 10.3572,-6.07143 8.2143,-2.85715 0.3571,3.21429 -3.5714,5.35714 -7.5,7.85715 -5.7143,5.71428 -6.7857,5.71429 z"
         style="fill:#000000;fill-opacity:1;fill-rule:evenodd;stroke:none;stroke-width:1px;stroke-linecap:butt;stroke-linejoin:miter;stroke-opacity:1" />
      <path
         inkscape:connector-curvature="0"
         id="path4536-7"
         d="m 564.91071,365.75514 -10.3572,5 -9.6428,-2.14285 -3.5714,-5.35715 1.4285,-8.57142 6.0715,-9.28572 14.6428,-11.78571 17.5,-13.57143 11.0714,-6.42857 12.8572,-4.28572 -1.7857,5 -9.2857,7.85715 -12.8572,11.07142 -21.7857,16.07143 -8.5714,5.71429 -4.2857,4.28571 3.9285,5.71429 6.0715,0 z"
         style="fill:#000000;fill-opacity:1;fill-rule:evenodd;stroke:none;stroke-width:1px;stroke-linecap:butt;stroke-linejoin:miter;stroke-opacity:1" />
    </g>
  </g>
</svg>
